<svg width="16" height="16" viewBox="0 0 16 16" fill="none" xmlns="http://www.w3.org/2000/svg">
<g clip-path="url(#clip0_647_3089)">
<path d="M7.99968 15C6.37981 15.0002 4.80997 14.4388 3.55764 13.4114C2.30532 12.3839 1.44801 10.954 1.13179 9.36531C0.815564 7.77661 1.06 6.12741 1.82345 4.69873C2.58689 3.27005 3.8221 2.1503 5.31861 1.53027C6.81512 0.910236 8.48032 0.828295 10.0305 1.29841C11.5806 1.76852 12.9198 2.76159 13.8198 4.10841C14.7198 5.45524 15.125 7.07247 14.9663 8.68454C14.8076 10.2966 14.0948 11.8038 12.9494 12.9492C12.3011 13.6016 11.5298 14.1188 10.6801 14.4708C9.83046 14.8228 8.91937 15.0027 7.99968 15ZM7.99968 1.40761C6.69592 1.40761 5.42145 1.79422 4.33742 2.51854C3.25339 3.24287 2.4085 4.27238 1.90957 5.47689C1.41065 6.6814 1.28011 8.00681 1.53446 9.28551C1.7888 10.5642 2.41662 11.7388 3.33851 12.6607C4.2604 13.5825 5.43496 14.2104 6.71366 14.4647C7.99236 14.7191 9.31777 14.5885 10.5223 14.0896C11.7268 13.5907 12.7563 12.7458 13.4806 11.6617C14.2049 10.5777 14.5916 9.30324 14.5916 7.99949C14.5898 6.25177 13.8947 4.57614 12.6589 3.34031C11.423 2.10448 9.7474 1.40941 7.99968 1.40761ZM7.99968 13.6735C6.6871 13.6726 5.41542 13.2168 4.40126 12.3835C3.3871 11.5502 2.6932 10.3911 2.43777 9.10367C2.18233 7.8162 2.38117 6.47998 3.00041 5.32266C3.61965 4.16534 4.62097 3.25851 5.83381 2.75665C7.04665 2.25478 8.39597 2.18893 9.65191 2.57032C10.9079 2.9517 11.9927 3.75673 12.7217 4.84825C13.4507 5.93977 13.7787 7.25028 13.6498 8.55651C13.521 9.86274 12.9432 11.0839 12.015 12.0119C11.4891 12.541 10.8633 12.9602 10.174 13.2455C9.48472 13.5307 8.74564 13.6762 7.99968 13.6735ZM7.99968 2.73219C6.95805 2.73219 5.93982 3.04107 5.07375 3.61979C4.20769 4.19851 3.53269 5.02105 3.13412 5.98341C2.73555 6.94576 2.63132 8.0047 2.8346 9.02629C3.03788 10.0479 3.53955 10.9863 4.27615 11.7227C5.01276 12.4592 5.95122 12.9607 6.97286 13.1638C7.99449 13.3669 9.05341 13.2625 10.0157 12.8637C10.978 12.465 11.8004 11.7898 12.3789 10.9236C12.9575 10.0575 13.2662 9.03918 13.266 7.99756C13.264 6.60173 12.7084 5.26371 11.7211 4.27698C10.7338 3.29026 9.3955 2.7354 7.99968 2.73412V2.73219ZM7.99968 12.4147C7.127 12.4147 6.27392 12.156 5.54831 11.6711C4.82271 11.1863 4.25717 10.4972 3.92321 9.69093C3.58925 8.88468 3.50187 7.9975 3.67212 7.14159C3.84237 6.28568 4.2626 5.49948 4.87968 4.8824C5.49676 4.26533 6.28296 3.84509 7.13887 3.67484C7.99478 3.50459 8.88196 3.59197 9.6882 3.92593C10.4945 4.25989 11.1836 4.82543 11.6684 5.55103C12.1532 6.27664 12.412 7.12972 12.412 8.0024C12.41 9.17173 11.9443 10.2925 11.1172 11.1191C10.2901 11.9457 9.169 12.4106 7.99968 12.4118V12.4147ZM7.99968 3.99866C7.20758 3.99866 6.43327 4.23356 5.77468 4.67364C5.11609 5.11373 4.6028 5.73924 4.29972 6.47106C3.99664 7.20288 3.91739 8.00814 4.07199 8.785C4.22659 9.56186 4.6081 10.2754 5.16826 10.8355C5.72843 11.3955 6.44209 11.7768 7.21899 11.9312C7.99589 12.0857 8.80113 12.0062 9.53288 11.703C10.2646 11.3997 10.89 10.8863 11.3299 10.2276C11.7699 9.56886 12.0046 8.79449 12.0044 8.0024C12.0039 6.94026 11.5818 5.92175 10.831 5.17053C10.0801 4.4193 9.06181 3.99678 7.99968 3.99576V3.99866Z" fill="#1D3C34"/>
</g>
<defs>
<clipPath id="clip0_647_3089">
<rect width="14" height="14" fill="white" transform="translate(1 1)"/>
</clipPath>
</defs>
</svg>
