<svg width="593" height="594" viewBox="0 0 593 594" fill="none" xmlns="http://www.w3.org/2000/svg">
<path d="M296.11 593.438C227.613 593.449 161.231 569.656 108.276 526.113C55.3203 482.57 19.0682 421.971 5.69652 354.643C-7.67513 287.314 2.66108 217.422 34.9439 156.875C67.2267 96.3282 119.459 48.8734 182.739 22.5967C246.02 -3.67999 316.434 -7.15263 381.984 12.7705C447.533 32.6936 504.161 74.7798 542.219 131.858C580.277 188.935 597.41 257.473 590.699 325.792C583.987 394.111 553.847 457.984 505.413 506.527C477.999 534.174 445.383 556.092 409.455 571.011C373.526 585.93 335 593.553 296.11 593.438ZM296.11 17.3986C240.98 17.3986 187.088 33.7829 141.249 64.4795C95.4102 95.1761 59.6831 138.806 38.5857 189.853C17.4884 240.9 11.9684 297.07 22.7237 351.261C33.479 405.452 60.0267 455.229 99.0095 494.298C137.992 533.368 187.659 559.974 241.73 570.754C295.801 581.533 351.847 576.001 402.78 554.856C453.714 533.712 497.247 497.906 527.876 451.965C558.504 406.024 574.852 352.013 574.852 296.76C574.777 222.692 545.385 151.68 493.127 99.3057C440.869 46.9317 370.014 17.4746 296.11 17.3986V17.3986ZM296.11 537.221C240.607 537.186 186.833 517.866 143.949 482.553C101.064 447.24 71.7219 398.118 60.9208 343.555C50.1197 288.992 58.5278 232.364 84.7126 183.317C110.897 134.27 153.239 95.8389 204.525 74.5701C255.811 53.3013 312.868 50.5107 365.976 66.6736C419.084 82.8365 464.959 116.953 495.784 163.212C526.61 209.47 540.48 265.009 535.031 320.366C529.582 375.724 505.152 427.476 465.902 466.806C443.662 489.226 417.201 506.995 388.053 519.083C358.906 531.17 327.654 537.336 296.11 537.221V537.221ZM296.11 73.5335C252.064 73.5335 209.008 86.6241 172.385 111.15C135.763 135.676 107.22 170.535 90.3666 211.319C73.5129 252.103 69.1052 296.981 77.7011 340.275C86.297 383.57 107.51 423.338 138.658 454.55C169.806 485.761 209.49 507.014 252.69 515.621C295.891 524.228 340.668 519.802 381.359 502.904C422.049 486.005 456.826 457.392 481.291 420.684C505.755 383.976 518.809 340.822 518.801 296.678C518.714 237.523 495.221 180.819 453.473 139.002C411.726 97.1845 355.133 73.6699 296.11 73.6156V73.5335ZM296.11 483.876C259.208 483.876 223.135 472.909 192.452 452.362C161.77 431.815 137.855 402.611 123.734 368.442C109.612 334.274 105.917 296.676 113.116 260.403C120.315 224.129 138.085 190.81 164.179 164.659C190.272 138.507 223.518 120.698 259.71 113.483C295.903 106.268 333.418 109.971 367.511 124.124C401.604 138.277 430.743 162.244 451.245 192.995C471.746 223.746 482.689 259.899 482.689 296.883C482.602 346.439 462.913 393.938 427.938 428.968C392.963 463.997 345.556 483.699 296.11 483.753V483.876ZM296.11 127.206C262.616 127.206 229.874 137.161 202.025 155.812C174.176 174.462 152.471 200.971 139.655 231.985C126.839 263 123.488 297.126 130.025 330.05C136.563 362.973 152.695 393.213 176.382 416.947C200.069 440.681 230.246 456.842 263.098 463.386C295.95 469.93 330 466.563 360.943 453.711C391.885 440.859 418.33 419.1 436.932 391.184C455.535 363.269 465.46 330.452 465.452 296.883C465.43 251.87 447.584 208.706 415.834 176.87C384.083 145.033 341.023 127.127 296.11 127.083V127.206Z" fill="#25443C"/>
</svg>
