<svg width="176" height="120" viewBox="0 0 176 120" fill="none" xmlns="http://www.w3.org/2000/svg">
<rect width="176" height="120" fill="white"/>
<g clip-path="url(#clip0_308_4064)">
<path d="M38.9071 35.1177C39.482 33.6888 39.2696 33.6929 40.0903 32.1349C43.8395 25.0862 48.3679 27.4233 48.3679 27.4233C48.3679 27.4233 50.0342 28.1398 50.8674 29.3271C51.7006 30.5144 52.7212 32.9431 52.7712 33.6138C52.8212 34.2845 52.8003 37.1839 51.1923 39.2794C49.5843 41.3748 46.1433 42.4538 43.8812 42.3788C41.6191 42.3038 40.6068 41.9331 40.1944 41.2124C39.782 40.4917 38.9446 39.9126 38.853 38.8878C38.7613 37.863 38.3323 36.5466 38.9071 35.1177ZM40.4777 37.5422C40.5413 38.0391 40.7412 38.5087 41.0551 38.8991C41.3691 39.2895 41.7849 39.5855 42.2565 39.7543C43.2313 40.1251 44.5019 40.2334 46.664 39.6002C48.8261 38.9669 50.6299 37.059 50.9299 36.1675C51.2298 35.276 50.7257 33.3222 50.6716 32.5348C50.6174 31.7475 50.0092 30.8685 49.3093 29.8937C48.9509 29.3424 48.4119 28.9329 47.7846 28.7355C43.4813 27.7691 42.8689 30.5935 41.8191 31.6517C40.7693 32.7098 40.661 34.3553 40.3069 35.1302C39.9528 35.905 40.411 36.5966 40.4777 37.5422Z" fill="#2F6DB3"/>
<path d="M40.1195 34.4886C40.5861 33.3639 40.4153 33.3639 41.0735 32.1391C44.0854 26.5776 47.7389 28.4148 47.7389 28.4148C48.5182 28.7455 49.2068 29.2584 49.7468 29.9103C50.4134 30.8477 51.2382 32.7598 51.2757 33.2889C51.3132 33.8179 51.2757 36.1008 50.0009 37.7589C48.7262 39.4169 45.9434 40.2584 44.1312 40.2084C42.3191 40.1584 41.4984 39.8668 41.1693 39.2919C40.8402 38.717 40.1528 38.2713 40.0986 37.4589C40.0445 36.6466 39.6571 35.6176 40.1195 34.4886ZM41.3692 36.4008C41.4226 36.795 41.5844 37.1666 41.8368 37.4741C42.0891 37.7816 42.422 38.0129 42.7981 38.1421C43.5813 38.4337 44.5978 38.517 46.3391 38.0171C48.0805 37.5172 49.5219 36.005 49.7635 35.3052C50.0051 34.6053 49.6052 33.0639 49.5594 32.439C49.5135 31.8142 49.0303 31.1351 48.4721 30.3561C48.1824 29.9187 47.7493 29.5961 47.2473 29.4438C43.7896 28.6897 43.298 30.9101 42.4524 31.7517C41.6067 32.5932 41.5192 33.8846 41.2318 34.497C40.9443 35.1094 41.3234 35.6551 41.3776 36.3924L41.3692 36.4008Z" fill="#2F6DB3"/>
<path d="M42.3896 16.4791C42.3896 16.4791 42.8062 16.0125 42.6896 16C29.7462 19.7493 33.4413 46.0651 33.6329 56.4423C33.8371 67.7694 33.458 104.837 35.1243 103.983C42.0772 91.2982 41.9939 83.9871 36.2866 49.1437C32.3665 25.1649 37.8738 18.5662 42.3896 16.4791Z" fill="#49A1DA"/>
<path d="M51.7006 56.6544C51.6908 57.1663 51.53 57.6639 51.2384 58.0847C50.9469 58.5056 50.5375 58.831 50.0618 59.0201C49.586 59.2092 49.0649 59.2536 48.564 59.1477C48.0631 59.0418 47.6046 58.7904 47.2461 58.4249C46.8875 58.0595 46.6448 57.5963 46.5485 57.0934C46.4522 56.5906 46.5065 56.0705 46.7046 55.5984C46.9028 55.1263 47.2359 54.7232 47.6622 54.4398C48.0886 54.1563 48.5891 54.005 49.1011 54.0049C49.4458 54.0081 49.7864 54.0793 50.1036 54.2142C50.4208 54.3491 50.7082 54.5452 50.9496 54.7912C51.191 55.0373 51.3816 55.3284 51.5104 55.6481C51.6393 55.9678 51.7039 56.3097 51.7006 56.6544Z" fill="#C52F35"/>
<path d="M53.0586 77.4628L52.9502 77.5753C52.1671 77.5281 50.9548 77.5059 49.3134 77.5086C47.6846 77.5086 46.4723 77.5295 45.6891 77.5753L45.5808 77.4628V76.7213L45.6975 76.6088C46.1586 76.5964 46.6189 76.5603 47.0764 76.5005C47.1815 76.4854 47.2789 76.4366 47.354 76.3615C47.4291 76.2864 47.4778 76.189 47.4929 76.0839C47.6277 74.9463 47.6792 73.8004 47.6471 72.6554V66.8023C47.679 65.6573 47.6275 64.5114 47.4929 63.3738C47.4778 63.2687 47.4291 63.1713 47.354 63.0962C47.2789 63.0211 47.1815 62.9723 47.0764 62.9572C46.9597 62.9281 46.4973 62.8906 45.6975 62.8447L45.5808 62.7364V61.9866L45.6975 61.8824C46.4515 61.9283 47.6638 61.9532 49.3259 61.9532C50.9881 61.9532 52.1837 61.9283 52.9378 61.8824L53.0586 61.9866V62.7364L52.9378 62.8447C52.1379 62.892 51.6797 62.9294 51.563 62.9572C51.4581 62.973 51.3611 63.0219 51.2861 63.0969C51.2111 63.1719 51.1622 63.2689 51.1464 63.3738C51.0118 64.5114 50.9603 65.6573 50.9923 66.8023V72.6595C50.9602 73.8046 51.0117 74.9505 51.1464 76.0881C51.1622 76.1929 51.2111 76.29 51.2861 76.365C51.3611 76.4399 51.4581 76.4889 51.563 76.5047C52.0191 76.5646 52.4779 76.6007 52.9378 76.613L53.0586 76.7254V77.4628Z" fill="#C52F35"/>
<path d="M54.9961 62H57.3206L60.97 71.5815H61.0158V62H63.4403V77.8762H61.1616L57.454 68.3321H57.4081V77.8762H54.9961V62Z" fill="#B1B2B1"/>
<path d="M70.6013 77.8762H68.4642L65.0273 62H67.5894L69.5057 73.0812H69.5557L71.5011 62H74.0631L70.6013 77.8762Z" fill="#B1B2B1"/>
<path d="M75.7463 61.8418H82.9533V63.9831H78.1625V68.6405H82.3284V70.7859H78.1625V75.4476H82.9533V77.718H75.7463V61.8418Z" fill="#B1B2B1"/>
<path d="M92.5804 66.4113H90.1642V65.8989C90.1642 64.8532 89.6893 63.9826 88.4562 63.9826C87.1272 63.9826 86.8148 64.9866 86.8148 66.0322C86.8148 67.257 86.9356 67.6985 88.1937 68.1526L90.0434 68.84C92.1763 69.6024 92.5804 70.8729 92.5804 73.1933C92.5804 75.8678 91.5389 77.8508 88.4145 77.8508C86.0691 77.8508 84.2903 76.2219 84.2903 74.1015V73.2683H86.7065V73.9848C86.7065 74.818 87.1814 75.6137 88.4145 75.6137C90.0517 75.6137 90.1725 74.6972 90.1725 73.2475C90.1725 71.552 89.96 71.2854 88.7728 70.8396L87.0314 70.1356C84.9485 69.3316 84.3986 68.0526 84.3986 66.0572C84.3986 63.6493 85.7775 61.708 88.5645 61.708C90.9807 61.708 92.5929 63.5368 92.5929 65.2948L92.5804 66.4113Z" fill="#B1B2B1"/>
<path d="M96.1964 63.9831H93.397V61.8418H101.412V63.9831H98.6126V77.7305H96.1964V63.9831Z" fill="#B1B2B1"/>
<path d="M102.729 61.8418H105.053L108.161 70.2485H108.207L111.294 61.8418H113.639V77.718H111.219V68.0531H111.194L108.798 74.881H107.59L105.195 68.0531H105.149V77.718H102.729V61.8418Z" fill="#B1B2B1"/>
<path d="M116.151 61.8418H123.362V63.9831H118.567V68.6405H122.733V70.7859H118.567V75.4476H123.362V77.718H116.151V61.8418Z" fill="#B1B2B1"/>
<path d="M125.07 61.8418H127.391L131.044 71.4233H131.09V61.8418H133.51V77.718H131.236L127.537 68.1739H127.487V77.718H125.07V61.8418Z" fill="#B1B2B1"/>
<path d="M137.518 63.9831H134.718V61.8418H142.733V63.9831H139.938V77.7305H137.522L137.518 63.9831Z" fill="#B1B2B1"/>
<path d="M51.5007 89.1607H49.6969V88.7775C49.6969 87.9984 49.3469 87.3486 48.4471 87.3486C47.4598 87.3486 47.2307 88.0943 47.2307 88.8774C47.2307 89.7898 47.3223 90.1022 48.2555 90.4521L49.6302 90.9687C51.2174 91.5353 51.5215 92.4768 51.5215 94.2056C51.5215 96.1969 50.7467 97.6716 48.4138 97.6716C46.6683 97.6716 45.3435 96.4635 45.3435 94.868V94.2389H47.1432V94.768C47.1331 94.9349 47.1596 95.1019 47.2207 95.2576C47.2819 95.4132 47.3762 95.5536 47.4972 95.669C47.6181 95.7844 47.7628 95.872 47.9211 95.9258C48.0794 95.9795 48.2475 95.9981 48.4138 95.9803C49.6302 95.9803 49.7177 95.3012 49.7177 94.2223C49.7177 92.9725 49.5594 92.7601 48.6804 92.4268L47.389 91.931C45.8351 91.3312 45.431 90.373 45.431 88.8941C45.431 87.1028 46.4558 85.6572 48.5221 85.6572C50.3217 85.6572 51.5215 87.0195 51.5215 88.3317L51.5007 89.1607Z" fill="#808285"/>
<path d="M52.9048 85.7578H58.2871V87.3492H54.7044V90.8194H57.8122V92.4107H54.7044V95.8809H58.2871V97.5764H52.9048V85.7578Z" fill="#808285"/>
<path d="M59.6118 85.7578H62.5071C64.64 85.7578 65.6815 86.9368 65.6815 89.2238C65.6815 90.5861 65.2649 91.5817 64.1318 92.1816L66.0731 97.5764H64.1651L62.4988 92.5274H61.4115V97.5764H59.6118V85.7578ZM61.4115 91.036H62.4529C63.7027 91.036 63.9027 90.3736 63.9027 89.1947C63.9027 88.0157 63.6944 87.3492 62.3696 87.3492H61.4115V91.036Z" fill="#808285"/>
<path d="M70.7223 97.5764H69.1184L66.5564 85.7578H68.4644L69.8933 94.0062H69.9516L71.3971 85.7578H73.2843L70.7223 97.5764Z" fill="#808285"/>
<path d="M74.6089 85.7578H76.4086V97.5764H74.6089V85.7578Z" fill="#808285"/>
<path d="M84.0487 94.9347C84.028 95.6736 83.7176 96.3747 83.1845 96.8868C82.6514 97.3988 81.9384 97.6808 81.1993 97.6717C79.8204 97.6717 78.2332 97.0427 78.2332 94.8889V88.3777C78.2332 86.8321 79.4163 85.6573 81.1493 85.6573C81.5278 85.6396 81.906 85.6998 82.2604 85.8342C82.6147 85.9687 82.9376 86.1745 83.2091 86.439C83.4806 86.7034 83.6949 87.0209 83.8386 87.3715C83.9823 87.7222 84.0524 88.0987 84.0445 88.4776V89.14H82.2449V88.5776C82.2574 88.4228 82.2381 88.2671 82.1882 88.12C82.1383 87.973 82.0587 87.8377 81.9545 87.7226C81.8503 87.6075 81.7236 87.5149 81.5823 87.4506C81.4409 87.3863 81.2879 87.3516 81.1326 87.3487C80.2369 87.3487 80.0245 87.9277 80.0245 88.7234V94.7681C80.0245 95.4513 80.3036 95.9804 81.1159 95.9804C81.2723 95.9893 81.4288 95.9639 81.5743 95.906C81.7199 95.8481 81.851 95.7591 81.9586 95.6452C82.0661 95.5313 82.1475 95.3953 82.1969 95.2467C82.2464 95.098 82.2628 94.9404 82.2449 94.7848V94.2057H84.0445L84.0487 94.9347Z" fill="#808285"/>
<path d="M85.6941 85.7578H91.0556V87.3492H87.4937V90.8194H90.5973V92.4107H87.4937V95.8809H91.0556V97.5764H85.6941V85.7578Z" fill="#808285"/>
<path d="M101.504 94.8558C101.456 95.5881 101.131 96.2746 100.595 96.7762C100.059 97.2778 99.3529 97.5569 98.619 97.5569C97.8851 97.5569 97.1787 97.2778 96.643 96.7762C96.1073 96.2746 95.7824 95.5881 95.7341 94.8558V85.7783H97.5171V94.6891C97.5171 95.5223 97.992 95.9056 98.6211 95.9056C99.2501 95.9056 99.725 95.514 99.725 94.6891V85.7783H101.504V94.8558Z" fill="#808285"/>
<path d="M103.357 85.7783H105.14V91.1231H105.174L107.782 85.7783H109.565L107.132 90.4649L110.014 97.4844H108.127L106.103 92.2896L105.14 93.9851V97.4844H103.357V85.7783Z" fill="#808285"/>
<path d="M110.981 85.7783H113.843C115.959 85.7783 116.992 86.9489 116.992 89.2193C116.992 90.5649 116.576 91.5481 115.455 92.1355L117.376 97.4803H115.488L113.822 92.4812H112.76V97.4803H110.977L110.981 85.7783ZM112.764 91.0065H113.776C115.026 91.0065 115.209 90.3483 115.209 89.186C115.209 88.0237 115.001 87.3572 113.685 87.3572H112.764V91.0065Z" fill="#808285"/>
<path d="M120.575 85.7783H122.062L124.841 97.4844H123.058L122.533 94.9849H120.1L119.58 97.4844H117.797L120.575 85.7783ZM121.325 89.1527H121.292L120.417 93.3935H122.2L121.325 89.1527Z" fill="#808285"/>
<path d="M125.941 85.7783H127.724V97.4844H125.941V85.7783Z" fill="#808285"/>
<path d="M129.561 85.7783H131.273L133.964 92.8312H133.997V85.7783H135.772V97.4844H134.106L131.381 90.4524H131.348V97.4844H129.565L129.561 85.7783Z" fill="#808285"/>
<path d="M137.568 85.7783H142.879V87.3572H139.351V90.794H142.438V92.3729H139.363V95.8098H142.892V97.4761H137.568V85.7783Z" fill="#808285"/>
<path d="M51.5009 89.1607H49.6971V88.7775C49.6971 87.9984 49.3472 87.3486 48.4473 87.3486C47.46 87.3486 47.2309 88.0943 47.2309 88.8774C47.2309 89.7898 47.3225 90.1022 48.2557 90.4521L49.6304 90.9687C51.2176 91.5353 51.5217 92.4768 51.5217 94.2056C51.5217 96.1969 50.7469 97.6716 48.414 97.6716C46.6685 97.6716 45.3438 96.4635 45.3438 94.868V94.2389H47.1434V94.768C47.1334 94.9349 47.1598 95.1019 47.221 95.2576C47.2821 95.4132 47.3765 95.5536 47.4974 95.669C47.6184 95.7844 47.7631 95.872 47.9214 95.9258C48.0797 95.9795 48.2478 95.9981 48.414 95.9803C49.6304 95.9803 49.7179 95.3012 49.7179 94.2223C49.7179 92.9725 49.5596 92.7601 48.6806 92.4268L47.3892 91.931C45.8353 91.3312 45.4312 90.373 45.4312 88.8941C45.4312 87.1028 46.456 85.6572 48.5223 85.6572C50.322 85.6572 51.5217 87.0195 51.5217 88.3317L51.5009 89.1607Z" fill="#A7A9AC"/>
<path d="M52.9048 85.7578H58.2871V87.3492H54.7044V90.8194H57.8122V92.4107H54.7044V95.8809H58.2871V97.5764H52.9048V85.7578Z" fill="#A7A9AC"/>
<path d="M59.6118 85.7578H62.5071C64.64 85.7578 65.6815 86.9368 65.6815 89.2238C65.6815 90.5861 65.2649 91.5817 64.1318 92.1816L66.0731 97.5764H64.1651L62.4988 92.5274H61.4115V97.5764H59.6118V85.7578ZM61.4115 91.036H62.4529C63.7027 91.036 63.9027 90.3736 63.9027 89.1947C63.9027 88.0157 63.6944 87.3492 62.3696 87.3492H61.4115V91.036Z" fill="#A7A9AC"/>
<path d="M70.7223 97.5764H69.1184L66.5564 85.7578H68.4644L69.8933 94.0062H69.9516L71.3971 85.7578H73.2843L70.7223 97.5764Z" fill="#A7A9AC"/>
<path d="M74.6089 85.7578H76.4086V97.5764H74.6089V85.7578Z" fill="#A7A9AC"/>
<path d="M84.0487 94.9347C84.028 95.6736 83.7176 96.3747 83.1845 96.8868C82.6514 97.3988 81.9384 97.6808 81.1993 97.6717C79.8204 97.6717 78.2332 97.0427 78.2332 94.8889V88.3777C78.2332 86.8321 79.4163 85.6573 81.1493 85.6573C81.5278 85.6396 81.906 85.6998 82.2604 85.8342C82.6147 85.9687 82.9376 86.1745 83.2091 86.439C83.4806 86.7034 83.6949 87.0209 83.8386 87.3715C83.9823 87.7222 84.0524 88.0987 84.0445 88.4776V89.14H82.2449V88.5776C82.2574 88.4228 82.2381 88.2671 82.1882 88.12C82.1383 87.973 82.0587 87.8377 81.9545 87.7226C81.8503 87.6075 81.7236 87.5149 81.5823 87.4506C81.4409 87.3863 81.2879 87.3516 81.1326 87.3487C80.2369 87.3487 80.0245 87.9277 80.0245 88.7234V94.7681C80.0245 95.4513 80.3036 95.9804 81.1159 95.9804C81.2723 95.9893 81.4288 95.9639 81.5743 95.906C81.7199 95.8481 81.851 95.7591 81.9586 95.6452C82.0661 95.5313 82.1475 95.3953 82.1969 95.2467C82.2464 95.098 82.2628 94.9404 82.2449 94.7848V94.2057H84.0445L84.0487 94.9347Z" fill="#A7A9AC"/>
<path d="M85.6941 85.7578H91.0556V87.3492H87.4937V90.8194H90.5973V92.4107H87.4937V95.8809H91.0556V97.5764H85.6941V85.7578Z" fill="#A7A9AC"/>
<path d="M101.504 94.8558C101.456 95.5881 101.131 96.2746 100.595 96.7762C100.059 97.2778 99.3529 97.5569 98.619 97.5569C97.8851 97.5569 97.1787 97.2778 96.643 96.7762C96.1073 96.2746 95.7824 95.5881 95.7341 94.8558V85.7783H97.5171V94.6891C97.5171 95.5223 97.992 95.9056 98.6211 95.9056C99.2501 95.9056 99.725 95.514 99.725 94.6891V85.7783H101.504V94.8558Z" fill="#A7A9AC"/>
<path d="M103.357 85.7783H105.14V91.1231H105.174L107.782 85.7783H109.565L107.132 90.4649L110.014 97.4844H108.127L106.103 92.2896L105.14 93.9851V97.4844H103.357V85.7783Z" fill="#A7A9AC"/>
<path d="M110.981 85.7783H113.843C115.959 85.7783 116.993 86.9489 116.993 89.2193C116.993 90.5649 116.576 91.5481 115.455 92.1355L117.376 97.4803H115.489L113.822 92.4812H112.76V97.4803H110.977L110.981 85.7783ZM112.764 91.0065H113.777C115.026 91.0065 115.21 90.3483 115.21 89.186C115.21 88.0237 115.001 87.3572 113.685 87.3572H112.764V91.0065Z" fill="#A7A9AC"/>
<path d="M120.575 85.7783H122.062L124.841 97.4844H123.058L122.533 94.9849H120.1L119.58 97.4844H117.797L120.575 85.7783ZM121.325 89.1527H121.292L120.417 93.3935H122.2L121.325 89.1527Z" fill="#A7A9AC"/>
<path d="M125.941 85.7783H127.724V97.4844H125.941V85.7783Z" fill="#A7A9AC"/>
<path d="M129.561 85.7783H131.273L133.964 92.8312H133.998V85.7783H135.772V97.4844H134.106L131.382 90.4524H131.348V97.4844H129.565L129.561 85.7783Z" fill="#A7A9AC"/>
<path d="M137.568 85.7783H142.879V87.3572H139.351V90.794H142.438V92.3729H139.363V95.8098H142.892V97.4761H137.568V85.7783Z" fill="#A7A9AC"/>
</g>
<defs>
<clipPath id="clip0_308_4064">
<rect width="109.879" height="88" fill="white" transform="translate(33 16)"/>
</clipPath>
</defs>
</svg>
