<svg width="176" height="120" viewBox="0 0 176 120" fill="none" xmlns="http://www.w3.org/2000/svg">
<rect width="176" height="120" fill="white"/>
<g clip-path="url(#clip0_308_4113)">
<path d="M46.8941 69.7798H40.5116C40.4506 69.7798 40.3902 69.7677 40.3339 69.7444C40.2776 69.721 40.2264 69.6867 40.1833 69.6435C40.1403 69.6003 40.1062 69.549 40.083 69.4926C40.0597 69.4362 40.0479 69.3758 40.0481 69.3148V50.7449C40.0445 50.6818 40.0539 50.6186 40.0757 50.5592C40.0974 50.4998 40.131 50.4454 40.1745 50.3994C40.2179 50.3535 40.2703 50.3169 40.3284 50.2918C40.3865 50.2668 40.4491 50.2539 40.5123 50.2539C40.5756 50.2539 40.6382 50.2668 40.6963 50.2918C40.7544 50.3169 40.8068 50.3535 40.8502 50.3994C40.8937 50.4454 40.9273 50.4998 40.949 50.5592C40.9708 50.6186 40.9801 50.6818 40.9766 50.7449V68.8469H46.8941C46.9572 68.8433 47.0205 68.8527 47.0799 68.8745C47.1393 68.8962 47.1936 68.9298 47.2396 68.9733C47.2855 69.0167 47.3222 69.0691 47.3472 69.1272C47.3722 69.1853 47.3851 69.2479 47.3851 69.3111C47.3851 69.3744 47.3722 69.437 47.3472 69.4951C47.3222 69.5532 47.2855 69.6056 47.2396 69.649C47.1936 69.6925 47.1393 69.7261 47.0799 69.7478C47.0205 69.7696 46.9572 69.7789 46.8941 69.7754" fill="#EF7063"/>
<path d="M131.416 57.6008C131.355 57.6008 131.295 57.5887 131.238 57.5653C131.182 57.5419 131.131 57.5077 131.088 57.4645C131.045 57.4213 131.011 57.37 130.987 57.3136C130.964 57.2572 130.952 57.1968 130.953 57.1358V50.7548C130.952 50.6938 130.964 50.6333 130.987 50.5769C131.011 50.5205 131.045 50.4693 131.088 50.4261C131.131 50.3829 131.182 50.3486 131.238 50.3252C131.295 50.3018 131.355 50.2898 131.416 50.2898H139.539C139.602 50.2862 139.665 50.2956 139.724 50.3174C139.784 50.3391 139.838 50.3727 139.884 50.4162C139.93 50.4596 139.967 50.512 139.992 50.5701C140.017 50.6282 140.03 50.6908 140.03 50.754C140.03 50.8173 140.017 50.8799 139.992 50.938C139.967 50.9961 139.93 51.0485 139.884 51.0919C139.838 51.1354 139.784 51.169 139.724 51.1907C139.665 51.2125 139.602 51.2218 139.539 51.2183H131.881V57.1358C131.881 57.2591 131.832 57.3774 131.745 57.4646C131.658 57.5518 131.539 57.6008 131.416 57.6008Z" fill="#EF7063"/>
<path d="M139.539 69.7787H131.416C131.355 69.7787 131.295 69.7667 131.238 69.7433C131.182 69.7199 131.131 69.6856 131.088 69.6424C131.045 69.5992 131.011 69.548 130.987 69.4916C130.964 69.4352 130.952 69.3747 130.953 69.3137V58.8766C130.953 58.7537 131.001 58.6358 131.088 58.5488C131.175 58.4619 131.293 58.4131 131.416 58.4131H137.218C137.341 58.4131 137.459 58.4619 137.546 58.5488C137.633 58.6358 137.682 58.7537 137.682 58.8766C137.682 58.9995 137.633 59.1174 137.546 59.2044C137.459 59.2913 137.341 59.3401 137.218 59.3401H131.881V68.8561H139.539C139.602 68.8525 139.665 68.8619 139.724 68.8836C139.784 68.9054 139.838 68.939 139.884 68.9824C139.93 69.0259 139.967 69.0783 139.992 69.1364C140.017 69.1945 140.03 69.2571 140.03 69.3203C140.03 69.3836 140.017 69.4462 139.992 69.5043C139.967 69.5624 139.93 69.6147 139.884 69.6582C139.838 69.7016 139.784 69.7353 139.724 69.757C139.665 69.7787 139.602 69.7881 139.539 69.7846" fill="#EF7063"/>
<path d="M72.5936 70.072C70.8319 70.0714 69.1013 69.6072 67.5759 68.726C66.0504 67.8448 64.7837 66.5777 63.903 65.0519C63.0223 63.5261 62.5588 61.7954 62.5588 60.0336C62.5589 58.2719 63.0226 56.5413 63.9034 55.0155C64.7842 53.4898 66.051 52.2227 67.5766 51.3416C69.1021 50.4606 70.8327 49.9965 72.5944 49.9961C74.3561 49.9957 76.0869 50.4589 77.6129 51.3393C79.1389 52.2196 80.4063 53.4861 81.2878 55.0114C81.3428 55.1176 81.3547 55.2409 81.3212 55.3557C81.2876 55.4705 81.2112 55.5679 81.1076 55.6278C81.0041 55.6876 80.8815 55.7053 80.7653 55.6771C80.6491 55.6489 80.5482 55.577 80.4836 55.4764C79.3789 53.5619 77.6159 52.1142 75.523 51.4032C73.4301 50.6921 71.1501 50.7662 69.1078 51.6115C67.0655 52.4568 65.4001 54.0158 64.4219 55.998C63.4437 57.9801 63.2195 60.2503 63.791 62.3855C64.3625 64.5207 65.6907 66.3753 67.5282 67.6039C69.3657 68.8324 71.5872 69.351 73.7787 69.0632C75.9703 68.7753 77.9824 67.7005 79.4403 66.0391C80.8982 64.3777 81.7024 62.2429 81.7031 60.0326C81.6995 59.9694 81.7089 59.9062 81.7306 59.8468C81.7524 59.7874 81.786 59.733 81.8294 59.6871C81.8729 59.6411 81.9253 59.6045 81.9834 59.5795C82.0415 59.5544 82.1041 59.5415 82.1673 59.5415C82.2306 59.5415 82.2932 59.5544 82.3513 59.5795C82.4094 59.6045 82.4617 59.6411 82.5052 59.6871C82.5486 59.733 82.5823 59.7874 82.604 59.8468C82.6257 59.9062 82.6351 59.9694 82.6316 60.0326C82.6292 62.6942 81.571 65.2462 79.689 67.1284C77.8071 69.0107 75.2553 70.0693 72.5936 70.072Z" fill="#EF7063"/>
<path d="M113.07 64.6612C112.979 64.6615 112.891 64.6353 112.815 64.5856C112.739 64.536 112.679 64.4652 112.643 64.382L106.835 50.9298C106.811 50.8738 106.798 50.8136 106.797 50.7527C106.797 50.6918 106.808 50.6313 106.83 50.5746C106.876 50.4603 106.965 50.3687 107.078 50.3201C107.191 50.2714 107.319 50.2696 107.433 50.3151C107.547 50.3607 107.639 50.4497 107.688 50.5628L113.495 64.0149C113.544 64.128 113.546 64.2557 113.5 64.3699C113.455 64.4842 113.366 64.5758 113.253 64.6247C113.195 64.65 113.133 64.6629 113.07 64.6627" fill="#EF7063"/>
<path d="M115.281 69.7794C115.217 69.7789 115.155 69.766 115.096 69.7414C115.04 69.7172 114.99 69.6822 114.948 69.6385C114.905 69.5948 114.872 69.5431 114.849 69.4865C114.827 69.4299 114.816 69.3694 114.817 69.3085C114.818 69.2476 114.831 69.1875 114.855 69.1316L122.874 50.5618C122.923 50.4488 123.014 50.3597 123.128 50.3142C123.243 50.2686 123.371 50.2704 123.484 50.3191C123.597 50.3677 123.686 50.4593 123.731 50.5737C123.777 50.688 123.775 50.8158 123.726 50.9288L115.708 69.4987C115.672 69.582 115.612 69.653 115.536 69.7029C115.46 69.7528 115.371 69.7794 115.281 69.7794Z" fill="#EF7063"/>
<path d="M150.315 70.0716C146.221 70.0716 142.889 67.1311 142.889 63.5151C142.895 63.3965 142.947 63.2849 143.033 63.2033C143.12 63.1217 143.234 63.0762 143.353 63.0762C143.472 63.0762 143.586 63.1217 143.672 63.2033C143.759 63.2849 143.811 63.3965 143.817 63.5151C143.817 66.6193 146.731 69.1431 150.315 69.1431C150.434 69.1497 150.545 69.2015 150.627 69.2879C150.709 69.3742 150.754 69.4885 150.754 69.6073C150.754 69.7261 150.709 69.8404 150.627 69.9268C150.545 70.0131 150.434 70.0649 150.315 70.0716Z" fill="#0062AC"/>
<path d="M155.537 57.02C155.414 57.02 155.296 56.9712 155.209 56.8842C155.122 56.7973 155.073 56.6794 155.073 56.5565C155.073 53.4522 152.158 50.9285 148.574 50.9285C148.455 50.9218 148.343 50.87 148.262 50.7837C148.18 50.6974 148.135 50.5831 148.135 50.4642C148.135 50.3454 148.18 50.2311 148.262 50.1448C148.343 50.0585 148.455 50.0067 148.574 50C152.668 50 156.002 52.9405 156.002 56.5565C156.001 56.6795 155.952 56.7974 155.865 56.8843C155.778 56.9712 155.66 57.02 155.537 57.02Z" fill="#0062AC"/>
<path d="M152.957 65.1106C152.834 65.1106 152.717 65.0618 152.63 64.9748C152.543 64.8879 152.494 64.77 152.494 64.6471C152.492 64.2279 152.371 63.818 152.143 63.4659C151.916 63.1137 151.593 62.834 151.212 62.66L146.126 60.2751C144.488 59.544 143.469 58.1096 143.469 56.5568C143.469 54.2173 145.759 52.3164 148.574 52.3164C151.388 52.3164 153.68 54.2173 153.68 56.5568C153.673 56.6754 153.621 56.787 153.535 56.8686C153.449 56.9502 153.334 56.9957 153.215 56.9957C153.097 56.9957 152.982 56.9502 152.896 56.8686C152.81 56.787 152.758 56.6754 152.751 56.5568C152.751 54.7334 150.875 53.2566 148.574 53.2566C146.272 53.2566 144.396 54.7334 144.396 56.5568C144.396 57.7397 145.208 58.8422 146.514 59.4314L151.606 61.8177C152.149 62.065 152.61 62.4632 152.933 62.9649C153.256 63.4665 153.428 64.0504 153.428 64.6471C153.428 64.7081 153.416 64.7685 153.393 64.8248C153.369 64.8811 153.335 64.9323 153.292 64.9753C153.249 65.0184 153.197 65.0525 153.141 65.0757C153.085 65.0989 153.024 65.1108 152.963 65.1106" fill="#0062AC"/>
<path d="M150.315 67.7545C147.499 67.7545 145.209 65.8536 145.209 63.5141C145.216 63.3955 145.267 63.2839 145.354 63.2023C145.44 63.1207 145.554 63.0752 145.673 63.0752C145.792 63.0752 145.906 63.1207 145.993 63.2023C146.079 63.2839 146.131 63.3955 146.137 63.5141C146.137 65.3374 148.011 66.8216 150.315 66.8216C152.619 66.8216 154.492 65.3374 154.492 63.5141C154.492 62.3297 153.681 61.2287 152.375 60.6394L147.29 58.2575C146.746 58.0108 146.285 57.6128 145.961 57.1111C145.638 56.6094 145.465 56.0252 145.465 55.4282C145.472 55.3095 145.523 55.198 145.61 55.1164C145.696 55.0347 145.81 54.9893 145.929 54.9893C146.048 54.9893 146.162 55.0347 146.249 55.1164C146.335 55.198 146.387 55.3095 146.393 55.4282C146.395 55.8473 146.516 56.2572 146.744 56.6094C146.971 56.9615 147.294 57.2412 147.676 57.4153L152.761 59.8001C154.399 60.5312 155.419 61.9642 155.419 63.5185C155.419 65.858 153.128 67.7588 150.313 67.7588" fill="#0062AC"/>
<path d="M48.6809 69.4716C48.5721 69.471 48.4671 69.4322 48.3839 69.362C48.3008 69.2919 48.2449 69.1948 48.2259 69.0877C48.207 68.9806 48.2262 68.8702 48.2802 68.7758C48.3342 68.6814 48.4196 68.6089 48.5215 68.5709C49.5723 68.1877 50.4545 67.4468 51.0134 66.478C51.5723 65.5093 51.7722 64.3746 51.5781 63.2732C51.3839 62.1718 50.808 61.1739 49.9515 60.4547C49.095 59.7355 48.0125 59.3409 46.8941 59.3401H44.5736C44.4507 59.3401 44.3328 59.2913 44.2459 59.2044C44.1589 59.1174 44.1101 58.9995 44.1101 58.8766C44.1101 58.7537 44.1589 58.6358 44.2459 58.5488C44.3328 58.4619 44.4507 58.4131 44.5736 58.4131H46.8941C48.2307 58.4136 49.5244 58.8848 50.5481 59.7441C51.5718 60.6034 52.2601 61.7959 52.4922 63.1121C52.7242 64.4284 52.4853 65.7843 51.8172 66.9419C51.1491 68.0995 50.0946 68.9848 48.8388 69.4424C48.7883 69.4613 48.7349 69.4712 48.6809 69.4716Z" fill="#0062AC"/>
<path d="M48.8359 57.8752C48.7546 57.8751 48.6748 57.8537 48.6044 57.8131C48.534 57.7725 48.4755 57.7141 48.4347 57.6439C48.3938 57.5736 48.3721 57.4938 48.3717 57.4126C48.3713 57.3313 48.3922 57.2514 48.4323 57.1807C48.6432 56.8099 48.753 56.3904 48.7509 55.9639C48.7488 55.5374 48.6349 55.1189 48.4204 54.7502C48.206 54.3816 47.8985 54.0756 47.5288 53.863C47.1591 53.6503 46.7401 53.5384 46.3136 53.5384H44.5736C44.4507 53.5384 44.3328 53.4895 44.2459 53.4026C44.1589 53.3157 44.1101 53.1978 44.1101 53.0748C44.1101 52.9519 44.1589 52.834 44.2459 52.7471C44.3328 52.6602 44.4507 52.6113 44.5736 52.6113H46.3136C46.9026 52.6109 47.4814 52.7651 47.9921 53.0586C48.5027 53.3521 48.9274 53.7745 49.2235 54.2837C49.5196 54.7928 49.6768 55.3708 49.6793 55.9598C49.6819 56.5488 49.5297 57.1281 49.238 57.6398C49.1975 57.7112 49.1388 57.7705 49.0679 57.8119C48.9971 57.8532 48.9165 57.8751 48.8344 57.8752" fill="#0062AC"/>
<path d="M46.8941 67.4625H42.8336C42.7726 67.4627 42.7122 67.4509 42.6558 67.4277C42.5994 67.4044 42.5481 67.3703 42.5049 67.3273C42.4617 67.2842 42.4275 67.233 42.4041 67.1767C42.3807 67.1204 42.3687 67.06 42.3687 66.999V50.754C42.3687 50.6307 42.4176 50.5125 42.5048 50.4253C42.592 50.3381 42.7103 50.2891 42.8336 50.2891H46.3136C47.2945 50.2893 48.2587 50.5432 49.1125 51.0261C49.9663 51.509 50.6807 52.2045 51.1863 53.0451C51.692 53.8856 51.9716 54.8426 51.9981 55.8232C52.0247 56.8037 51.7972 57.7745 51.3377 58.6411C51.2796 58.7497 51.1806 58.8307 51.0627 58.8664C50.9448 58.902 50.8176 58.8894 50.709 58.8312C50.6004 58.773 50.5194 58.6741 50.4837 58.5562C50.4481 58.4383 50.4607 58.311 50.5189 58.2024C50.9021 57.4772 51.0913 56.6653 51.0684 55.8455C51.0455 55.0256 50.8112 54.2255 50.3881 53.5228C49.9651 52.8202 49.3677 52.2387 48.6538 51.8348C47.9399 51.4309 47.1338 51.2183 46.3136 51.2176H43.2971V66.5355H46.8941C47.5406 66.5355 48.1606 66.2787 48.6177 65.8216C49.0748 65.3645 49.3316 64.7445 49.3316 64.098C49.3316 63.4516 49.0748 62.8316 48.6177 62.3745C48.1606 61.9173 47.5406 61.6605 46.8941 61.6605H44.5736C44.4507 61.6605 44.3328 61.6117 44.2459 61.5248C44.159 61.4378 44.1101 61.32 44.1101 61.197C44.1101 61.0741 44.159 60.9562 44.2459 60.8693C44.3328 60.7823 44.4507 60.7335 44.5736 60.7335H46.8941C47.7861 60.7335 48.6415 61.0878 49.2722 61.7185C49.9029 62.3492 50.2572 63.2046 50.2572 64.0965C50.2572 64.9885 49.9029 65.8439 49.2722 66.4746C48.6415 67.1053 47.7861 67.4596 46.8941 67.4596" fill="#0062AC"/>
<path d="M129.096 69.7796C129.035 69.7796 128.974 69.7676 128.918 69.7442C128.862 69.7208 128.811 69.6865 128.768 69.6433C128.725 69.6001 128.69 69.5488 128.667 69.4924C128.644 69.436 128.632 69.3756 128.632 69.3146V50.7448C128.632 50.6218 128.681 50.5039 128.768 50.417C128.855 50.3301 128.973 50.2812 129.096 50.2812C129.219 50.2812 129.337 50.3301 129.424 50.417C129.51 50.5039 129.559 50.6218 129.559 50.7448V69.3146C129.56 69.3756 129.548 69.436 129.524 69.4924C129.501 69.5488 129.467 69.6001 129.424 69.6433C129.381 69.6865 129.33 69.7208 129.274 69.7442C129.217 69.7676 129.157 69.7796 129.096 69.7796Z" fill="#0062AC"/>
<path d="M139.539 53.5384H133.158C133.035 53.5384 132.917 53.4895 132.83 53.4026C132.743 53.3157 132.694 53.1978 132.694 53.0748C132.694 52.9519 132.743 52.834 132.83 52.7471C132.917 52.6602 133.035 52.6113 133.158 52.6113H139.539C139.662 52.6113 139.78 52.6602 139.867 52.7471C139.954 52.834 140.002 52.9519 140.002 53.0748C140.002 53.1978 139.954 53.3157 139.867 53.4026C139.78 53.4895 139.662 53.5384 139.539 53.5384Z" fill="#0062AC"/>
<path d="M139.539 67.4632H133.158C133.035 67.4632 132.917 67.4143 132.83 67.3274C132.743 67.2405 132.694 67.1226 132.694 66.9996C132.694 66.8767 132.743 66.7588 132.83 66.6719C132.917 66.585 133.035 66.5361 133.158 66.5361H139.539C139.662 66.5361 139.78 66.585 139.867 66.6719C139.954 66.7588 140.002 66.8767 140.002 66.9996C140.002 67.1226 139.954 67.2405 139.867 67.3274C139.78 67.4143 139.662 67.4632 139.539 67.4632Z" fill="#0062AC"/>
<path d="M137.218 61.6604H133.158C133.035 61.6604 132.917 61.6116 132.83 61.5247C132.743 61.4377 132.694 61.3198 132.694 61.1969C132.694 61.074 132.743 60.9561 132.83 60.8692C132.917 60.7822 133.035 60.7334 133.158 60.7334H137.218C137.341 60.7334 137.459 60.7822 137.546 60.8692C137.633 60.9561 137.682 61.074 137.682 61.1969C137.682 61.3198 137.633 61.4377 137.546 61.5247C137.459 61.6116 137.341 61.6604 137.218 61.6604Z" fill="#0062AC"/>
<path d="M33.9813 69.7789C33.8856 69.7793 33.7922 69.7502 33.7137 69.6955C33.6352 69.6408 33.5755 69.5632 33.5427 69.4733L28.947 56.8487C28.9049 56.7324 28.9108 56.6041 28.9633 56.4921C29.0158 56.3801 29.1107 56.2935 29.227 56.2514C29.3433 56.2094 29.4716 56.2152 29.5837 56.2677C29.6957 56.3203 29.7822 56.4151 29.8243 56.5315L34.4214 69.1619C34.4472 69.2322 34.4555 69.3077 34.4457 69.3819C34.4359 69.4562 34.4083 69.5269 34.3652 69.5881C34.3221 69.6494 34.2647 69.6992 34.1982 69.7335C34.1316 69.7677 34.0577 69.7853 33.9828 69.7848" fill="#0062AC"/>
<path d="M36.4511 69.7799C36.3554 69.7803 36.2619 69.7511 36.1834 69.6964C36.1049 69.6417 36.0452 69.5642 36.0124 69.4743L29.6928 52.1122L26.1163 61.9367C26.0955 61.9943 26.0635 62.0472 26.0222 62.0925C25.9809 62.1377 25.9311 62.1744 25.8756 62.2004C25.8202 62.2264 25.7601 62.2412 25.6989 62.244C25.6377 62.2468 25.5766 62.2375 25.519 62.2167C25.4614 62.1959 25.4085 62.1639 25.3632 62.1226C25.318 62.0813 25.2813 62.0315 25.2553 61.976C25.2293 61.9206 25.2145 61.8605 25.2117 61.7993C25.2089 61.7381 25.2182 61.677 25.239 61.6194L29.2556 50.5959C29.2876 50.5051 29.3469 50.4264 29.4255 50.3707C29.5041 50.3151 29.598 50.2852 29.6943 50.2852C29.7906 50.2852 29.8845 50.3151 29.9631 50.3707C30.0417 50.4264 30.101 50.5051 30.1329 50.5959L36.8912 69.1658C36.917 69.2361 36.9253 69.3116 36.9155 69.3858C36.9057 69.4601 36.878 69.5308 36.8349 69.592C36.7918 69.6533 36.7345 69.7031 36.6679 69.7374C36.6013 69.7716 36.5274 69.7892 36.4525 69.7887" fill="#0062AC"/>
<path d="M20.4649 69.7789C20.4106 69.7789 20.3566 69.7695 20.3055 69.7511C20.1901 69.7086 20.0963 69.6221 20.0445 69.5106C19.9927 69.3991 19.9872 69.2716 20.0292 69.156L26.786 50.5861C26.828 50.4698 26.9146 50.3749 27.0266 50.3224C27.1386 50.2699 27.2669 50.2641 27.3833 50.3061C27.4996 50.3482 27.5945 50.4348 27.647 50.5468C27.6995 50.6588 27.7054 50.7871 27.6633 50.9034L20.9006 69.4864C20.868 69.5764 20.8084 69.6541 20.7298 69.7089C20.6513 69.7636 20.5577 69.7926 20.462 69.792" fill="#0062AC"/>
<path d="M22.9332 69.7793C22.8793 69.7795 22.8258 69.7701 22.7752 69.7515C22.7179 69.7308 22.6651 69.6989 22.6201 69.6578C22.575 69.6166 22.5386 69.567 22.5127 69.5117C22.4869 69.4564 22.4723 69.3965 22.4697 69.3356C22.467 69.2746 22.4765 69.2137 22.4974 69.1564L24.6088 63.3544C24.6414 63.2644 24.7011 63.1867 24.7797 63.132C24.8582 63.0773 24.9518 63.0482 25.0475 63.0488H30.0189C30.1376 63.0555 30.2491 63.1073 30.3308 63.1936C30.4124 63.28 30.4579 63.3943 30.4579 63.5131C30.4579 63.6319 30.4124 63.7462 30.3308 63.8325C30.2491 63.9189 30.1376 63.9707 30.0189 63.9773H25.3721L23.3718 69.4869C23.3372 69.5745 23.2767 69.6495 23.1983 69.7018C23.1199 69.7541 23.0274 69.7811 22.9332 69.7793Z" fill="#0062AC"/>
<path d="M30.8611 66.3042H26.0534C25.9348 66.2976 25.8232 66.2458 25.7416 66.1594C25.66 66.0731 25.6145 65.9588 25.6145 65.84C25.6145 65.7212 25.66 65.6069 25.7416 65.5205C25.8232 65.4342 25.9348 65.3824 26.0534 65.3757H30.8611C30.9243 65.3722 30.9875 65.3816 31.0469 65.4033C31.1063 65.425 31.1606 65.4586 31.2066 65.5021C31.2526 65.5456 31.2892 65.5979 31.3142 65.656C31.3392 65.7141 31.3521 65.7767 31.3521 65.84C31.3521 65.9032 31.3392 65.9658 31.3142 66.0239C31.2892 66.082 31.2526 66.1344 31.2066 66.1779C31.1606 66.2213 31.1063 66.2549 31.0469 66.2767C30.9875 66.2984 30.9243 66.3078 30.8611 66.3042Z" fill="#0062AC"/>
<path d="M77.5943 62.8218H72.5936C72.5304 62.8253 72.4672 62.816 72.4078 62.7942C72.3484 62.7725 72.294 62.7389 72.2481 62.6954C72.2021 62.652 72.1655 62.5996 72.1405 62.5415C72.1154 62.4834 72.1025 62.4208 72.1025 62.3576C72.1025 62.2943 72.1154 62.2317 72.1405 62.1736C72.1655 62.1155 72.2021 62.0631 72.2481 62.0197C72.294 61.9762 72.3484 61.9426 72.4078 61.9209C72.4672 61.8991 72.5304 61.8898 72.5936 61.8933H77.5943C77.6574 61.8898 77.7206 61.8991 77.7801 61.9209C77.8395 61.9426 77.8938 61.9762 77.9398 62.0197C77.9857 62.0631 78.0224 62.1155 78.0474 62.1736C78.0724 62.2317 78.0853 62.2943 78.0853 62.3576C78.0853 62.4208 78.0724 62.4834 78.0474 62.5415C78.0224 62.5996 77.9857 62.652 77.9398 62.6954C77.8938 62.7389 77.8395 62.7725 77.7801 62.7942C77.7206 62.816 77.6574 62.8253 77.5943 62.8218Z" fill="#0062AC"/>
<path d="M72.5935 67.7533C71.2386 67.7535 69.9075 67.3971 68.734 66.7198C67.5606 66.0425 66.5861 65.0681 65.9086 63.8948C65.2311 62.7214 64.8745 61.3904 64.8745 60.0355C64.8746 58.6806 65.2313 57.3496 65.9089 56.1763C66.5865 55.003 67.5611 54.0287 68.7346 53.3515C69.9081 52.6743 71.2392 52.318 72.5941 52.3184C73.949 52.3187 75.2799 52.6758 76.4531 53.3537C77.6262 54.0316 78.6002 55.0063 79.2772 56.18C79.3321 56.2862 79.3441 56.4095 79.3106 56.5243C79.277 56.6391 79.2005 56.7365 79.097 56.7963C78.9935 56.8562 78.8709 56.8739 78.7547 56.8457C78.6384 56.8175 78.5376 56.7456 78.473 56.645C77.6568 55.2373 76.3623 54.1696 74.8251 53.6362C73.2879 53.1029 71.6102 53.1393 70.0976 53.739C68.5851 54.3387 67.3381 55.4616 66.584 56.9034C65.8298 58.3452 65.6186 60.0099 65.9887 61.5944C66.3588 63.1789 67.2857 64.5777 68.6006 65.5362C69.9154 66.4946 71.5308 66.949 73.1525 66.8165C74.7742 66.684 76.2944 65.9734 77.4363 64.8143C78.5781 63.6551 79.2656 62.1243 79.3737 60.5008H72.5935C72.5303 60.5043 72.4671 60.495 72.4077 60.4732C72.3483 60.4515 72.2939 60.4179 72.248 60.3744C72.202 60.331 72.1654 60.2786 72.1404 60.2205C72.1153 60.1624 72.1024 60.0998 72.1024 60.0365C72.1024 59.9733 72.1153 59.9107 72.1404 59.8526C72.1654 59.7945 72.202 59.7421 72.248 59.6987C72.2939 59.6552 72.3483 59.6216 72.4077 59.5999C72.4671 59.5781 72.5303 59.5688 72.5935 59.5723H79.846C79.9689 59.5723 80.0868 59.6211 80.1737 59.7081C80.2606 59.795 80.3095 59.9129 80.3095 60.0358C80.3071 62.0816 79.4935 64.043 78.047 65.4898C76.6005 66.9366 74.6393 67.7506 72.5935 67.7533Z" fill="#0062AC"/>
<path d="M107.054 69.7791C106.993 69.7791 106.933 69.767 106.877 69.7436C106.82 69.7202 106.769 69.686 106.726 69.6428C106.683 69.5996 106.649 69.5483 106.626 69.4919C106.602 69.4355 106.591 69.3751 106.591 69.3141V60.5161C106.597 60.3974 106.649 60.2859 106.736 60.2042C106.822 60.1226 106.936 60.0771 107.055 60.0771C107.174 60.0771 107.288 60.1226 107.374 60.2042C107.461 60.2859 107.513 60.3974 107.519 60.5161V69.3199C107.519 69.4432 107.47 69.5615 107.383 69.6487C107.296 69.7359 107.178 69.7849 107.054 69.7849" fill="#0062AC"/>
<path d="M123.301 69.7789C123.178 69.7789 123.06 69.7299 122.972 69.6427C122.885 69.5555 122.836 69.4373 122.836 69.314V55.1307C122.833 55.0675 122.842 55.0043 122.864 54.9449C122.885 54.8855 122.919 54.8312 122.963 54.7852C123.006 54.7392 123.058 54.7026 123.116 54.6776C123.175 54.6526 123.237 54.6396 123.3 54.6396C123.364 54.6396 123.426 54.6526 123.484 54.6776C123.542 54.7026 123.595 54.7392 123.638 54.7852C123.682 54.8312 123.715 54.8855 123.737 54.9449C123.759 55.0043 123.768 55.0675 123.765 55.1307V69.314C123.765 69.375 123.753 69.4354 123.73 69.4918C123.707 69.5482 123.672 69.5995 123.629 69.6427C123.586 69.6859 123.535 69.7201 123.479 69.7435C123.423 69.7669 123.362 69.7789 123.301 69.7789Z" fill="#0062AC"/>
<path d="M120.98 69.7799C120.857 69.7799 120.739 69.7309 120.652 69.6437C120.564 69.5565 120.515 69.4383 120.515 69.3149V60.5125C120.512 60.4494 120.521 60.3862 120.543 60.3267C120.565 60.2673 120.598 60.213 120.642 60.167C120.685 60.1211 120.738 60.0844 120.796 60.0594C120.854 60.0344 120.916 60.0215 120.98 60.0215C121.043 60.0215 121.105 60.0344 121.164 60.0594C121.222 60.0844 121.274 60.1211 121.318 60.167C121.361 60.213 121.395 60.2673 121.416 60.3267C121.438 60.3862 121.447 60.4494 121.444 60.5125V69.3149C121.444 69.3759 121.432 69.4364 121.409 69.4928C121.386 69.5492 121.352 69.6004 121.309 69.6436C121.266 69.6868 121.214 69.7211 121.158 69.7445C121.102 69.7679 121.041 69.7799 120.98 69.7799Z" fill="#0062AC"/>
<path d="M98.2025 69.7789C98.1068 69.7793 98.0133 69.7502 97.9348 69.6955C97.8563 69.6408 97.7966 69.5632 97.7638 69.4733L93.1697 56.8487C93.1276 56.7324 93.1334 56.6041 93.186 56.4921C93.2385 56.3801 93.3333 56.2935 93.4497 56.2514C93.566 56.2094 93.6943 56.2152 93.8063 56.2677C93.9183 56.3203 94.0049 56.4151 94.047 56.5315L98.6441 69.1619C98.665 69.2192 98.6745 69.2801 98.6718 69.341C98.6692 69.402 98.6546 69.4618 98.6287 69.5171C98.6029 69.5724 98.5665 69.6221 98.5214 69.6632C98.4764 69.7044 98.4236 69.7363 98.3663 69.757C98.3151 69.7754 98.2612 69.7848 98.2069 69.7848" fill="#0062AC"/>
<path d="M100.672 69.7799C100.576 69.7803 100.483 69.7511 100.404 69.6964C100.326 69.6417 100.266 69.5642 100.233 69.4743L93.9153 52.1122L90.3402 61.9367C90.3194 61.9943 90.2874 62.0472 90.2461 62.0925C90.2048 62.1377 90.155 62.1744 90.0995 62.2004C89.9875 62.2529 89.8592 62.2588 89.7429 62.2167C89.6265 62.1746 89.5317 62.088 89.4792 61.976C89.4267 61.864 89.4208 61.7357 89.4629 61.6194L93.4781 50.5959C93.51 50.5051 93.5694 50.4264 93.6479 50.3707C93.7265 50.3151 93.8204 50.2852 93.9167 50.2852C94.013 50.2852 94.1069 50.3151 94.1855 50.3707C94.2641 50.4264 94.3234 50.5051 94.3554 50.5959L101.114 69.1658C101.135 69.2231 101.144 69.284 101.141 69.3449C101.139 69.4059 101.124 69.4657 101.098 69.521C101.073 69.5763 101.036 69.626 100.991 69.6671C100.946 69.7083 100.893 69.7401 100.836 69.7609C100.785 69.7793 100.731 69.7887 100.676 69.7887" fill="#0062AC"/>
<path d="M84.6873 69.7789C84.633 69.7789 84.579 69.7695 84.5279 69.7511C84.4705 69.7304 84.4178 69.6985 84.3728 69.6573C84.3277 69.6162 84.2912 69.5665 84.2654 69.5112C84.2396 69.4559 84.225 69.3961 84.2224 69.3351C84.2197 69.2742 84.2292 69.2133 84.2501 69.156L91.0084 50.5861C91.0504 50.4698 91.137 50.3749 91.249 50.3224C91.361 50.2699 91.4893 50.2641 91.6057 50.3061C91.722 50.3482 91.8169 50.4348 91.8694 50.5468C91.9219 50.6588 91.9277 50.7871 91.8857 50.9034L85.123 69.4864C85.0902 69.5763 85.0305 69.6539 84.952 69.7086C84.8735 69.7633 84.7801 69.7924 84.6844 69.792" fill="#0062AC"/>
<path d="M87.157 69.7791C87.1027 69.7791 87.0488 69.7697 86.9977 69.7513C86.9403 69.7305 86.8875 69.6987 86.8425 69.6575C86.7974 69.6164 86.761 69.5667 86.7352 69.5114C86.7093 69.4561 86.6947 69.3963 86.6921 69.3353C86.6895 69.2744 86.6989 69.2135 86.7198 69.1562L88.8327 63.3542C88.8651 63.2641 88.9248 63.1862 89.0034 63.1315C89.0819 63.0768 89.1756 63.0478 89.2714 63.0486H94.2428C94.306 63.045 94.3692 63.0544 94.4286 63.0761C94.488 63.0979 94.5424 63.1315 94.5883 63.175C94.6343 63.2184 94.6709 63.2708 94.6959 63.3289C94.721 63.387 94.7339 63.4496 94.7339 63.5128C94.7339 63.5761 94.721 63.6387 94.6959 63.6968C94.6709 63.7549 94.6343 63.8072 94.5883 63.8507C94.5424 63.8942 94.488 63.9278 94.4286 63.9495C94.3692 63.9712 94.306 63.9806 94.2428 63.9771H89.5931L87.5928 69.4866C87.56 69.5765 87.5003 69.6541 87.4218 69.7088C87.3432 69.7635 87.2498 69.7926 87.1541 69.7922" fill="#0062AC"/>
<path d="M95.0835 66.3042H90.2758C90.1572 66.2976 90.0456 66.2458 89.964 66.1594C89.8824 66.0731 89.8369 65.9588 89.8369 65.84C89.8369 65.7212 89.8824 65.6069 89.964 65.5205C90.0456 65.4342 90.1572 65.3824 90.2758 65.3757H95.0835C95.1467 65.3722 95.2099 65.3816 95.2693 65.4033C95.3287 65.425 95.3831 65.4586 95.429 65.5021C95.475 65.5456 95.5116 65.5979 95.5366 65.656C95.5617 65.7141 95.5746 65.7767 95.5746 65.84C95.5746 65.9032 95.5617 65.9658 95.5366 66.0239C95.5116 66.082 95.475 66.1344 95.429 66.1779C95.3831 66.2213 95.3287 66.2549 95.2693 66.2767C95.2099 66.2984 95.1467 66.3078 95.0835 66.3042Z" fill="#0062AC"/>
<path d="M120.957 50.3324C120.844 50.2839 120.716 50.2822 120.602 50.3277C120.487 50.3732 120.395 50.4621 120.346 50.5751L112.753 68.1506L105.163 50.5736C105.12 50.4757 105.046 50.3954 104.951 50.3462C104.856 50.297 104.748 50.2819 104.643 50.3036C104.539 50.3252 104.445 50.3822 104.378 50.465C104.31 50.5478 104.274 50.6512 104.274 50.7579V69.3277C104.27 69.3909 104.28 69.4541 104.301 69.5135C104.323 69.5729 104.357 69.6272 104.4 69.6732C104.444 69.7192 104.496 69.7558 104.554 69.7808C104.612 69.8058 104.675 69.8187 104.738 69.8187C104.801 69.8187 104.864 69.8058 104.922 69.7808C104.98 69.7558 105.032 69.7192 105.076 69.6732C105.119 69.6272 105.153 69.5729 105.175 69.5135C105.196 69.4541 105.206 69.3909 105.202 69.3277V52.9994L112.33 69.5046C112.377 69.6135 112.463 69.7004 112.572 69.7474C112.629 69.7719 112.692 69.7849 112.754 69.7854C112.845 69.7854 112.934 69.7588 113.01 69.7089C113.086 69.659 113.145 69.588 113.181 69.5046L121.193 50.9377C121.241 50.8261 121.243 50.7001 121.199 50.5869C121.155 50.4737 121.068 50.3823 120.957 50.3324Z" fill="#0062AC"/>
</g>
<defs>
<clipPath id="clip0_308_4113">
<rect width="136" height="20.0744" fill="white" transform="translate(20 50)"/>
</clipPath>
</defs>
</svg>
