<svg width="176" height="120" viewBox="0 0 176 120" fill="none" xmlns="http://www.w3.org/2000/svg">
<rect width="176" height="120" fill="white"/>
<g clip-path="url(#clip0_308_4307)">
<path d="M128.959 59.604L131.664 56.432L128.485 53.7384L130.712 50.2135L127.175 47.9982L128.877 44.195L125.066 42.509L126.21 38.5019L122.195 37.3687L122.756 33.2401L118.624 32.6911L118.592 28.5272L114.424 28.5781L113.805 24.4573L109.68 25.0964L108.476 21.105L104.489 22.3244L102.728 18.5486L98.9564 20.3247L96.6745 16.8351L93.1967 19.1289L90.4403 16L87.3232 18.7642L84.1512 16.0627L81.4576 19.2426L77.9367 17.0194L75.7214 20.5482L71.9181 18.8466L70.2321 22.6576L66.2211 21.5167L65.0919 25.5316L60.9632 24.9709L60.4143 29.1035L56.2464 29.131L56.2974 33.2989L52.1765 33.9262L52.8117 38.047L48.8242 39.2547L50.0475 43.2383L46.2678 44.9988L48.0439 48.7667L44.5504 51.0526L46.8442 54.5343L43.7231 57.2868L46.4834 60.4078L43.782 63.5719L46.9579 66.2695L44.7347 69.7943L48.2714 72.0096L46.5658 75.8129L50.3808 77.4988L49.2359 81.506L53.2469 82.6313L52.6941 86.7599L56.8228 87.3089L56.8541 91.4767L61.022 91.4297L61.6494 95.5505L65.7663 94.9075L66.9739 98.8989L70.9614 97.6756L72.7219 101.451L76.4899 99.6792L78.7718 103.165L82.2535 100.871L85.0099 104L88.127 101.232L91.299 103.941L93.9926 100.757L97.5136 102.984L99.7249 99.4518L103.532 101.153L105.218 97.3424L109.229 98.4873L110.358 94.4723L114.487 95.033L115.028 90.9004L119.2 90.869L119.149 86.7011L123.274 86.0738L122.631 81.9569L126.622 80.7532L125.399 76.7656L129.179 75.0091L127.402 71.2372L130.892 68.9553L128.598 65.4735L131.727 62.7172L128.959 59.604Z" fill="url(#paint0_linear_308_4307)"/>
<path d="M61.8377 60.2865C61.7868 55.1266 63.2671 50.0676 66.0914 45.7491C68.9157 41.4306 72.9572 38.0466 77.7048 36.025C82.4524 34.0034 87.6928 33.4351 92.7634 34.3919C97.834 35.3486 102.507 37.7876 106.191 41.4002C109.876 45.0128 112.406 49.6369 113.463 54.6877C114.519 59.7384 114.054 64.989 112.126 69.7755C110.199 74.562 106.895 78.6693 102.633 81.5781C98.3708 84.4869 93.3418 86.0665 88.182 86.1171C84.7559 86.1518 81.3565 85.5111 78.1781 84.2316C74.9997 82.952 72.1046 81.0588 69.6581 78.66C67.2116 76.2612 65.2617 73.4039 63.9199 70.2513C62.578 67.0987 61.8705 63.7126 61.8377 60.2865ZM70.4636 42.9248C66.5114 46.9628 64.0813 52.246 63.5872 57.8746C63.0931 63.5032 64.5655 69.129 67.7536 73.7938C70.9417 78.4586 75.6484 81.874 81.072 83.4581C86.4956 85.0423 92.3007 84.6973 97.4984 82.4818C102.696 80.2664 106.965 76.3176 109.578 71.3079C112.191 66.2983 112.987 60.5377 111.83 55.0073C110.672 49.4769 107.634 44.5187 103.231 40.9773C98.8282 37.4359 93.334 35.5303 87.6841 35.585C84.4746 35.6119 81.3021 36.2729 78.3488 37.5298C75.3956 38.7867 72.7199 40.6149 70.4754 42.9092" fill="#C42923"/>
<path d="M55.3997 64.9047L59.4735 64.6067C59.6734 64.6067 59.7675 64.4459 59.7989 64.2538H59.9596L60.1126 66.3005H59.9518C59.8891 66.1123 59.7754 65.979 59.5597 65.9947L53.9646 66.4103C53.7686 66.4103 53.6823 66.5711 53.6392 66.7632H53.4863L53.2902 64.0774H53.4432C53.4581 64.1357 53.4905 64.1879 53.5361 64.2272C53.5817 64.2665 53.6382 64.2908 53.698 64.2969C53.786 64.2879 53.8706 64.2584 53.945 64.2107L57.1523 62.066L53.7255 60.3957C53.6349 60.3399 53.5354 60.3001 53.4314 60.2781C53.3621 60.2831 53.2974 60.315 53.2513 60.367C53.2051 60.419 53.1811 60.487 53.1844 60.5564H53.0354L52.8433 57.9295H52.9923C53.0628 58.1098 53.1687 58.2392 53.3843 58.2235L59.0029 57.8118C59.09 57.8042 59.1713 57.7648 59.2313 57.7012C59.2913 57.6376 59.3258 57.5542 59.3284 57.4668H59.4891L59.6499 59.635H59.4852C59.4264 59.4429 59.3088 59.3175 59.0931 59.3331L55.0193 59.6311L59.7244 62.0189L55.3997 64.9047Z" fill="#C42923"/>
<path d="M54.9485 54.2289C54.9602 54.3384 54.9602 54.4488 54.9485 54.5583C54.9424 54.6685 54.9131 54.7761 54.8626 54.8742C54.812 54.9723 54.7413 55.0586 54.6551 55.1275C54.569 55.1964 54.4692 55.2463 54.3624 55.274C54.2556 55.3017 54.1441 55.3065 54.0353 55.2882C53.9265 55.2699 53.8228 55.2288 53.731 55.1677C53.6391 55.1065 53.5612 55.0267 53.5023 54.9334C53.4434 54.8401 53.4049 54.7354 53.3893 54.6261C53.3736 54.5169 53.3812 54.4056 53.4115 54.2995C53.5174 53.6487 54.1957 53.4644 54.7329 53.5467C55.517 53.6683 55.9993 54.3623 56.3012 55.068L55.9601 55.2641C55.8787 55.0274 55.7457 54.8117 55.5707 54.6327C55.3958 54.4537 55.1832 54.3158 54.9485 54.2289Z" fill="#C42923"/>
<path d="M62.1983 48.1318L62.0493 48.0769C62.0768 47.8691 62.0493 47.7044 61.8415 47.6338L59.787 46.8497L59.144 48.5082L60.4026 50.6921C60.5006 50.8685 60.5633 51.0411 60.7045 51.0842C60.8456 51.1273 60.9123 50.994 60.9593 50.9038L61.1083 50.9627L60.183 53.3661L60.0301 53.3073C60.1673 52.876 59.9281 52.4957 59.6811 52.0683L58.5049 49.9942C57.9599 50.9587 57.1953 51.6253 56.0582 51.1705C54.4899 50.5588 54.6624 49.1669 55.2035 47.7632L56.7718 43.6934L56.913 43.7483C56.913 43.9365 56.9404 44.1011 57.1286 44.1717L62.3826 46.1988C62.4644 46.2289 62.5543 46.2285 62.6357 46.1975C62.7172 46.1665 62.7846 46.1071 62.8257 46.0302L62.9786 46.0851L62.1983 48.1318ZM57.1326 45.8145L56.2817 48.0338C56.0347 48.6729 55.7485 49.4414 56.564 49.755C57.3796 50.0687 57.6697 49.2845 57.9128 48.6611L58.7676 46.4458L57.1326 45.8145Z" fill="#C42923"/>
<path d="M67.919 38.3025V38.4554C67.8255 38.4621 67.7364 38.4977 67.6641 38.5574C67.6176 38.6318 67.5906 38.7168 67.5857 38.8044C67.4331 39.9105 67.0028 40.96 66.3349 41.8548C64.9391 43.5604 62.8062 44.3211 61.0418 42.8743C59.2774 41.4275 59.6107 39.1965 61.0065 37.487C61.6136 36.7529 62.4014 36.1894 63.2924 35.852C63.5155 35.7777 63.7309 35.6819 63.9354 35.5658C63.9956 35.4779 64.0283 35.3742 64.0295 35.2678L64.1745 35.2168L64.6294 36.844L64.4765 36.8988C64.4285 36.8434 64.3677 36.8005 64.2993 36.7738C64.231 36.7472 64.1572 36.7376 64.0844 36.7459C63.2578 36.9452 62.5219 37.416 61.9945 38.083C61.0653 39.2161 60.8536 40.706 62.0259 41.6666C63.1983 42.6272 64.6372 42.1293 65.5547 41.004C66.2487 40.161 66.6761 38.7064 66.3389 38.4162L66.2369 38.3339L66.2644 38.1771L67.919 38.3025Z" fill="#C42923"/>
<path d="M73.0239 35.9769C72.4204 36.3781 71.7342 36.6381 71.0164 36.7376C70.3862 36.8046 69.7498 36.6932 69.1799 36.4158C68.61 36.1385 68.1296 35.7065 67.7935 35.1692C66.6172 33.299 67.5308 31.2719 69.3618 30.1191C69.9647 29.7068 70.6542 29.4386 71.3771 29.335C72.0054 29.2707 72.6392 29.3835 73.2067 29.6606C73.7742 29.9378 74.2528 30.3683 74.5883 30.9033C75.7528 32.7814 74.851 34.8399 73.0239 35.9769ZM69.9695 31.1151C68.7933 31.8639 68.4012 33.2245 69.1148 34.3694C69.8284 35.5143 71.236 35.7652 72.4201 35.0202C73.6042 34.2753 73.9884 32.903 73.2748 31.7581C72.5612 30.6132 71.1733 30.3622 69.9695 31.1151Z" fill="#C42923"/>
<path d="M78.7952 30.6322L79.2148 32.3574C79.2377 32.4407 79.2901 32.5128 79.3622 32.5604C79.4343 32.608 79.5212 32.6278 79.6069 32.6162L79.6461 32.7769L77.5366 33.2945L77.4974 33.1376C77.5809 33.1082 77.6508 33.0494 77.694 32.9722C77.7373 32.895 77.7511 32.8047 77.7327 32.7181L76.3878 27.2289C76.3408 27.0407 76.1839 26.978 75.9957 26.9662L75.9604 26.8211L78.0738 26.3036L78.1091 26.4486C77.9287 26.5545 77.8268 26.676 77.8738 26.8721L78.4267 29.1305L80.6929 26.2761C80.7478 26.2055 80.838 26.1036 80.8223 26.0095C80.8066 25.9154 80.6263 25.8605 80.489 25.8644L80.4538 25.7154L83.2337 25.0332L83.2729 25.1822C82.9082 25.339 82.6102 25.8448 82.3671 26.1467L80.5008 28.4993L83.8492 30.8518C84.1472 31.1394 84.5447 31.3009 84.9588 31.3027L84.9941 31.4595L82.3397 32.1143L82.3044 31.9535C82.3868 31.9183 82.5514 31.8359 82.524 31.7261C82.4965 31.6163 82.3044 31.5026 82.2064 31.4321L79.6265 29.5814L78.7952 30.6322Z" fill="#C42923"/>
<path d="M88.8366 31.7228C88.1118 31.721 87.3965 31.5576 86.7429 31.2444C86.1814 30.9468 85.7147 30.4977 85.3959 29.948C85.077 29.3984 84.9188 28.7703 84.9393 28.1352C85.0098 25.9316 86.8997 24.7554 89.0562 24.822C89.7846 24.8179 90.504 24.983 91.1578 25.3043C91.7161 25.5984 92.181 26.0429 92.4998 26.5876C92.8185 27.1322 92.9784 27.7552 92.9614 28.3861C92.8869 30.5818 90.9892 31.7894 88.8366 31.7228ZM89.013 25.9787C87.6094 25.9316 86.5311 26.8491 86.4919 28.2018C86.4527 29.5545 87.4761 30.5543 88.8719 30.5857C90.2677 30.6171 91.3577 29.6996 91.3969 28.3508C91.4361 27.002 90.4285 26.0179 89.013 25.9787Z" fill="#C42923"/>
<path d="M97.4117 28.2605L95.9178 32.0559C95.8878 32.1397 95.8892 32.2315 95.9216 32.3144C95.954 32.3972 96.0154 32.4656 96.0943 32.5068L96.0355 32.6519L94.1221 31.903L94.1809 31.754C94.2663 31.7774 94.3573 31.7693 94.4372 31.7311C94.5171 31.693 94.5806 31.6273 94.6161 31.5462L96.6785 26.3C96.753 26.1158 96.655 25.9746 96.502 25.8531L96.5569 25.7119L99.0663 26.6961L99.0075 26.8372C98.948 26.8265 98.8868 26.8338 98.8315 26.8583C98.7763 26.8827 98.7297 26.9232 98.6977 26.9744C98.667 27.0584 98.6576 27.1486 98.6703 27.2371L99.2192 31.06L102.207 28.7075C102.297 28.6495 102.377 28.5766 102.442 28.4918C102.466 28.4272 102.464 28.3559 102.437 28.2925C102.41 28.2291 102.36 28.1784 102.297 28.1507L102.352 28.0095L104.803 28.9741L104.748 29.1113C104.552 29.1113 104.395 29.1388 104.324 29.323L102.258 34.5692C102.226 34.6512 102.226 34.7421 102.258 34.8241C102.29 34.9061 102.352 34.9731 102.43 35.0122L102.368 35.1651L100.344 34.381L100.403 34.232C100.489 34.2573 100.582 34.2502 100.663 34.2118C100.744 34.1735 100.808 34.1067 100.842 34.0242L102.336 30.2209L98.1488 33.4243L97.4117 28.2605Z" fill="#C42923"/>
<path d="M107.045 39.0197L103.415 35.9261L103.52 35.8006C103.594 35.8523 103.683 35.8752 103.772 35.8651C103.861 35.855 103.943 35.8125 104.003 35.7457L107.653 31.4602C107.704 31.3892 107.73 31.3031 107.726 31.2157C107.723 31.1283 107.69 31.0446 107.633 30.978L107.731 30.8643L112.468 34.9028C112.533 34.9609 112.618 34.993 112.705 34.993C112.793 34.993 112.877 34.9609 112.942 34.9028L113.076 35.0165L111.958 36.3221L111.829 36.2123C111.876 36.1381 111.895 36.0491 111.882 35.9619C111.869 35.8746 111.825 35.7951 111.758 35.7379L108.425 32.8992L107.422 34.0755L109.539 35.879C110.852 37.0004 111.15 38.2512 110.354 39.1843C109.343 40.3684 108.073 39.8744 107.045 39.0197ZM107.504 37.9728C108.022 38.4159 108.641 38.8079 109.166 38.1924C109.692 37.5768 109.198 37.0161 108.688 36.5848L106.728 34.9028L105.551 36.2907L107.504 37.9728Z" fill="#C42923"/>
<path d="M111.009 43.5244L109.688 41.7953L109.817 41.6973C109.877 41.7623 109.958 41.803 110.046 41.8117C110.133 41.8204 110.221 41.7964 110.292 41.7443L114.766 38.3293C114.829 38.2701 114.872 38.1914 114.886 38.1055C114.9 38.0196 114.885 37.9314 114.844 37.8548L114.965 37.7607L116.291 39.4859L116.169 39.58C116.001 39.4585 115.848 39.4114 115.687 39.533L111.209 42.9481C111.139 43.0026 111.091 43.0818 111.077 43.1698C111.062 43.2579 111.082 43.3481 111.131 43.4225L111.009 43.5244Z" fill="#C42923"/>
<path d="M115.326 44.8734L113.17 45.8811C113.088 45.9188 113.024 45.9858 112.99 46.0686C112.956 46.1514 112.954 46.244 112.985 46.328L112.84 46.3947L111.923 44.4343L112.068 44.3676C112.113 44.4441 112.184 44.5017 112.269 44.5298C112.353 44.5579 112.445 44.5546 112.527 44.5205L117.624 42.1484C117.804 42.0621 117.828 41.8974 117.804 41.7014L117.941 41.6387L118.855 43.5991L118.718 43.6618C118.58 43.505 118.439 43.4266 118.263 43.5128L116.302 44.4146L118.004 48.0807L119.965 47.1789C120.145 47.0926 120.172 46.9279 120.141 46.724L120.278 46.6574L121.196 48.6413L121.062 48.708C120.929 48.5551 120.78 48.4688 120.6 48.5512L115.503 50.9233C115.424 50.9637 115.362 51.0311 115.329 51.1132C115.296 51.1953 115.294 51.2865 115.322 51.3703L115.177 51.4369L114.26 49.4569L114.405 49.3863C114.447 49.4662 114.517 49.5274 114.602 49.5578C114.687 49.5883 114.78 49.5859 114.864 49.551L117.04 48.5394L115.326 44.8734Z" fill="#C42923"/>
<path d="M117.482 54.7969L116.502 54.4322C116.404 54.3874 116.297 54.3646 116.189 54.3656C116.008 54.3891 115.957 54.5812 115.934 54.7576H115.773L115.522 52.4443H115.683C115.777 52.7658 115.965 52.8364 116.243 52.9423L121.619 54.9027C121.741 54.9598 121.876 54.9854 122.011 54.9772C122.091 54.966 122.164 54.9282 122.22 54.8698C122.276 54.8114 122.31 54.736 122.317 54.6557H122.47L122.744 57.1141H122.591C122.529 56.969 122.427 56.82 122.266 56.8396C122.155 56.864 122.05 56.9093 121.956 56.9729L117.157 60.1998C116.894 60.3802 116.651 60.537 116.635 60.8938H116.475L116.189 58.3335H116.349C116.385 58.4903 116.483 58.6511 116.651 58.6432C116.768 58.6292 116.879 58.5846 116.973 58.5138L117.843 57.9257L117.482 54.7969ZM120.925 56.0241L118.435 55.138L118.69 57.4082L120.925 56.0241Z" fill="#C42923"/>
<path d="M116.346 64.1677C116.126 64.1402 116.024 64.2657 115.954 64.45L115.793 64.4265L116.064 62.27L116.224 62.2935C116.221 62.3817 116.251 62.4679 116.307 62.5359C116.364 62.6038 116.443 62.6487 116.53 62.6621L121.537 63.2894L121.804 61.1408C121.816 61.0545 121.796 60.9667 121.747 60.8943C121.699 60.822 121.625 60.7701 121.541 60.7487L121.561 60.5801L123.27 60.7957L123.247 60.9604C123.062 60.9918 122.917 61.0623 122.89 61.2898L122.16 67.0926C122.15 67.1792 122.171 67.2666 122.22 67.3387C122.269 67.4107 122.343 67.4626 122.427 67.4847L122.407 67.6533L120.702 67.4377V67.2691C120.886 67.2416 121.031 67.1711 121.059 66.9437L121.329 64.795L116.346 64.1677Z" fill="#C42923"/>
<path d="M83.6807 84.1208C83.5799 84.1155 83.4823 84.0833 83.3982 84.0274C83.314 83.9715 83.2464 83.8941 83.2024 83.8033C83.1161 83.6604 83.0414 83.511 82.9789 83.3563C82.8024 82.9266 82.648 82.4882 82.5162 82.0428C82.2536 81.1965 82.0492 80.3332 81.9046 79.4589C78.862 79.4315 76.4781 78.6199 74.847 77.1574C73.1336 75.6361 72.2553 73.4326 72.2318 70.8252C72.2318 68.4923 73.4355 65.336 74.6784 63.152C69.1382 62.5639 64.3587 58.9842 64.2881 54.0556C64.2567 51.064 65.6996 48.4684 68.1306 46.6491C70.5615 44.8298 73.9805 43.7516 77.968 43.7085C82.0496 43.6771 87.629 45.2768 91.3303 49.033C95.0434 47.198 100.242 44.9318 104.712 44.8808C105.816 44.8184 106.913 45.0816 107.869 45.6375C108.304 45.9229 108.658 46.3148 108.899 46.776C109.14 47.2371 109.259 47.7523 109.245 48.2724C109.206 51.4483 105.034 54.9065 99.2544 57.8393C93.475 60.7721 86.1156 62.956 79.3129 63.2579C77.6896 66.2887 76.5251 69.5627 76.5683 72.8836C76.5683 74.7813 76.9094 76.0595 77.6975 76.8594C78.4856 77.6593 79.6579 78.0357 81.6928 78.118C81.6252 77.7595 81.5846 77.3965 81.5713 77.0319C81.5125 69.4372 86.2959 63.6774 92.5497 63.6108C93.1873 63.5789 93.8248 63.6749 94.4248 63.893C95.0248 64.1112 95.575 64.4472 96.0432 64.8811C96.8687 65.7275 97.3243 66.867 97.3097 68.0492C97.3097 70.9703 95.2512 73.6639 92.4556 75.7067C89.7709 77.6669 86.6384 78.9245 83.3435 79.3648C83.509 80.5669 83.7954 81.7491 84.1983 82.8936C84.2703 83.0665 84.3178 83.2486 84.3394 83.4347C84.3438 83.5247 84.3298 83.6146 84.2981 83.6988C84.2664 83.7831 84.2177 83.8601 84.1551 83.9248C84.0307 84.0444 83.8651 84.1118 83.6925 84.113L83.6807 84.1208ZM86.3351 69.2215C84.4688 71.6133 83.1984 74.7108 83.2181 77.4554V78.1023C85.8176 77.8867 88.9425 76.6359 91.4205 74.8323C94.0318 72.9385 95.8981 70.4449 95.8629 68.0257C95.8001 66.2221 94.9454 65.1635 92.7693 65.1438H92.7458C90.6167 65.1595 88.1897 66.8141 86.3351 69.2059V69.2215ZM80.5675 60.874C87.1626 60.689 93.6383 59.07 99.5446 56.1298C104.7 53.5302 107.872 50.2485 107.778 48.2096C107.727 47.1431 107.229 46.2492 105.14 46.2492C100.799 46.2845 95.3375 48.6017 92.3733 50.3347C93.5586 51.6987 94.5871 53.1915 95.4394 54.7849C95.4733 54.8447 95.4909 54.9123 95.4904 54.981C95.4961 55.0701 95.4838 55.1594 95.4542 55.2436C95.4245 55.3278 95.3781 55.4052 95.3179 55.4711C95.245 55.5358 95.1599 55.5854 95.0677 55.617C94.9755 55.6486 94.878 55.6617 94.7807 55.6553C94.3533 55.6005 94.3102 55.3652 94.1612 55.177C94.0122 54.9888 93.8711 54.6594 93.6319 54.2674C92.9226 53.0994 92.1104 51.9972 91.2049 50.9738C86.9679 53.4362 83.3338 56.8132 80.5675 60.8583V60.874ZM69.4362 58.5842C71.4827 59.8374 73.8047 60.571 76.1997 60.7211C79.4501 56.0396 85.7549 51.9776 90.0364 49.6995C86.8645 46.6256 82.1241 44.9945 77.3956 45.0612C73.9962 45.0925 71.0947 46.1159 69.0676 47.6372C67.0405 49.1585 65.8839 51.1659 65.9035 53.1891C65.9388 55.4436 67.3738 57.2629 69.4362 58.5685V58.5842Z" fill="#C42923"/>
<path d="M31 78.7376V78.7964C33.5211 82.184 34.7484 83.8935 37.1479 87.336C36.3912 91.4686 36.0462 93.531 35.411 97.6597C35.4384 97.7616 35.4502 97.8165 35.4737 97.9185C42.5313 96.2678 46.0993 95.5659 53.2431 94.4681C52.0315 86.6812 51.4277 82.7917 50.2162 75.001C42.496 76.2047 38.6457 76.9536 31 78.7376Z" fill="#CD2E21"/>
<path d="M41.8804 93.8762C46.3894 93.9939 53.294 94.4487 53.294 94.4487L52.9019 92.2373C52.9019 92.2373 45.5033 92.8607 41.8804 93.8762Z" fill="url(#paint1_linear_308_4307)"/>
<path d="M138.424 86.3517C140.753 82.8621 141.953 81.1291 144.403 77.6905V77.6356C136.73 75.9967 132.864 75.3262 125.112 74.2715C124.054 82.0858 123.521 85.9831 122.466 93.7935C129.355 94.7267 133.025 95.3618 139.604 96.7537L140.027 96.84L140.365 96.9027V96.64C139.647 92.5231 139.259 90.4764 138.424 86.3517Z" fill="#CD2E21"/>
<path d="M133.727 93.1511C129.331 93.3354 126.955 93.1825 122.474 93.751L122.866 90.8613C127.241 91.4534 129.367 92.3591 133.727 93.1511Z" fill="url(#paint2_linear_308_4307)"/>
<path d="M136.718 76.934C136.769 76.6478 136.824 76.3812 136.879 76.0871C107.054 71.3637 76.6458 71.6951 46.9304 77.0673L46.7304 77.0987C46.7304 77.0987 46.5265 76.9615 46.4991 76.8399C46.4991 76.7811 46.4991 76.7262 46.4677 76.6713C46.2246 75.4676 46.0168 74.3737 45.8129 73.3307C43.199 73.7307 40.5851 74.1659 37.9712 74.6364C39.5003 82.2272 40.0963 86.0618 41.5941 93.5154L41.6294 93.6801C41.6529 93.8095 41.8529 93.9467 41.8529 93.9467L42.0528 93.9114C72.3428 88.4252 103.35 88.1799 133.723 93.186C134.899 86.744 135.597 82.9918 136.616 77.4555C132.966 76.7733 129.716 76.2792 124.94 75.6284C124.971 75.4167 124.991 75.3108 125.014 75.0991C129.798 75.7499 133.068 76.2518 136.71 76.934" fill="#A52C20"/>
<path d="M140.153 95.4565C136.507 94.6724 134.036 94.2215 131.284 93.751L128.32 93.7784C132.429 94.4058 135.158 94.9115 140.247 95.9898C140.224 95.7741 140.188 95.6683 140.153 95.4565Z" fill="url(#paint3_linear_308_4307)"/>
<path d="M45.2761 94.3975C42.3158 94.9503 39.5085 95.5737 35.6072 96.4638C35.5759 96.6755 35.5602 96.7814 35.5249 96.997C40.1123 95.9266 43.2098 95.2679 46.7896 94.6445L47.5973 94.5033L45.2761 94.3975Z" fill="url(#paint4_linear_308_4307)"/>
<path d="M143.913 78.3765C141.13 77.7884 138.859 77.3296 136.719 76.9297C136.687 77.1061 136.652 77.2826 136.625 77.4551C138.695 77.8472 140.894 78.2824 143.58 78.8509C143.71 78.6627 143.776 78.5686 143.913 78.3765Z" fill="url(#paint5_linear_308_4307)"/>
<path d="M125.022 75.1035C124.995 75.3113 124.979 75.4172 124.952 75.6289C129.723 76.2759 132.974 76.7738 136.624 77.456C136.652 77.2835 136.687 77.1071 136.718 76.9306C133.076 76.2523 129.802 75.7505 125.022 75.1035Z" fill="#AA2A21"/>
<path d="M63.3356 88.0654C62.7769 88.2397 62.2391 88.4751 61.7319 88.7673C62.6945 89.6486 63.7008 90.4809 64.7471 91.2609C65.5705 91.1433 66.386 91.0296 67.0682 90.9473C65.7658 90.0673 64.5192 89.1075 63.3356 88.0733" fill="#C42923"/>
<path d="M63.3356 88.0654C62.7769 88.2397 62.2391 88.4751 61.7319 88.7673C62.6797 89.6262 63.6718 90.435 64.704 91.1904C65.5195 91.0727 66.2723 90.9747 66.9702 90.8885C65.7009 90.0243 64.487 89.0814 63.3356 88.0654Z" fill="#AE2722"/>
<path d="M126.775 59.6235C126.714 53.166 125.045 46.8255 121.92 41.1743C118.795 35.5231 114.312 30.739 108.875 27.2541C103.439 23.7691 97.2197 21.693 90.7798 21.213C84.34 20.7331 77.8819 21.8644 71.9887 24.505C66.0956 27.1455 60.9527 31.2121 57.0245 36.3377C53.0963 41.4633 50.5064 47.4864 49.4885 53.8634C48.4707 60.2404 49.057 66.7705 51.1945 72.8642C53.332 78.9579 56.9534 84.4234 61.7318 88.7673C62.2389 88.4751 62.7767 88.2397 63.3354 88.0654C62.8061 87.5989 62.2807 87.1244 61.767 86.6226C56.5002 81.4572 52.8834 74.846 51.3739 67.625C49.8644 60.4041 50.5301 52.8977 53.2867 46.055C56.0434 39.2124 60.7672 33.3408 66.8608 29.1829C72.9544 25.0249 80.1441 22.7673 87.5208 22.6954C94.8975 22.6236 102.13 24.7408 108.303 28.7793C114.477 32.8178 119.314 38.5963 122.203 45.3839C125.093 52.1716 125.904 59.6636 124.536 66.9126C123.167 74.1616 119.68 80.8419 114.515 86.1089C113.844 86.7951 113.142 87.4459 112.421 88.0694C112.951 88.2743 113.458 88.5373 113.93 88.8535C118.026 85.1708 121.289 80.6577 123.503 75.6148C125.717 70.5719 126.831 65.115 126.771 59.6078" fill="#C42923"/>
<path d="M109.284 90.5479C103.112 94.873 95.7736 97.2257 88.2371 97.2957C80.7006 97.3657 73.3198 95.1497 67.0682 90.9399C66.386 91.0223 65.5705 91.136 64.7471 91.2536C71.5623 96.3011 79.8411 98.9817 88.3214 98.8868C96.8017 98.792 105.018 95.9269 111.719 90.7282C110.982 90.6694 110.245 90.6106 109.512 90.5596H109.284" fill="#C42923"/>
<path d="M64.2174 90.8691C63.151 90.9763 62.0819 91.0874 61.0102 91.2024C61.0047 91.3434 61.0246 91.4841 61.069 91.618C61.2415 91.5906 63.3548 91.3632 64.6566 91.2024L64.2174 90.8691Z" fill="#905E2A"/>
<path d="M61.7316 88.7676C60.8494 89.3009 60.7592 89.7635 60.9042 89.9439C60.9681 90.3526 61.0035 90.7653 61.0101 91.179C62.0792 91.0613 63.1483 90.9502 64.2174 90.8457C63.3509 90.1791 62.5589 89.5047 61.7316 88.7559" fill="#942A1C"/>
<path d="M115.028 90.9316V91.014C115.026 90.9892 115.026 90.9643 115.028 90.9395" fill="#DAA08D"/>
<path d="M111.993 90.5205L111.73 90.7283C112.103 90.7597 112.472 90.7832 112.848 90.8185C113.479 90.8695 114.648 91.0263 114.961 91.0224C114.983 91.0259 115.006 91.0259 115.028 91.0224V90.94C115.024 90.8944 115.024 90.8485 115.028 90.8028C114.008 90.7061 112.988 90.6146 111.966 90.5284" fill="#905E2A"/>
<path d="M113.954 88.8691C113.322 89.4416 112.671 89.9944 111.993 90.5198C113.018 90.6061 114.039 90.6976 115.055 90.7943C115.117 90.5643 115.117 90.3224 115.055 90.0925C114.806 89.5922 114.425 89.1693 113.954 88.8691Z" fill="#942A1C"/>
<path d="M87.3821 89.6181C80.4735 89.6887 73.5558 90.0272 66.6289 90.6336L67.021 90.9003C67.4131 90.8532 68.0365 90.7748 68.3149 90.7473C74.8392 90.1984 81.1204 89.9632 87.6056 89.8965H88.5583C95.463 89.8416 102.36 90.0651 109.288 90.5591L109.586 90.3474C102.162 89.7933 94.7625 89.5541 87.386 89.6299" fill="#905E2A"/>
<path d="M89.6445 85.7715C82.6379 85.8421 75.3607 86.2851 69.4794 86.9085C67.3985 87.0848 65.3418 87.479 63.3433 88.0848C64.2921 88.916 65.2815 89.7002 66.3114 90.4373L66.6368 90.6608C73.5689 90.0518 80.4866 89.7133 87.39 89.6453C94.7769 89.5747 102.177 89.8139 109.59 90.3628C110.575 89.6545 111.523 88.9003 112.433 88.1005C108.061 86.2969 99.1016 85.697 89.6445 85.7911" fill="#942A1C"/>
<path d="M63.3354 88.0654C64.2845 88.8992 65.2751 89.6844 66.3035 90.418C65.2763 89.6834 64.2869 88.8993 63.3354 88.0654Z" fill="#B02623"/>
<path d="M109.284 90.5473H109.512C110.245 90.5983 110.982 90.6571 111.719 90.7159C112.484 90.1278 113.217 89.5083 113.934 88.8574C113.462 88.5412 112.955 88.2782 112.425 88.0732C111.424 88.953 110.377 89.7789 109.288 90.5473" fill="#C42923"/>
<path d="M112.425 88.0732C111.515 88.8574 110.568 89.6115 109.582 90.3356L109.284 90.5473H109.512C110.245 90.5983 110.982 90.6571 111.719 90.7159C112.484 90.1278 113.217 89.5083 113.934 88.8574C113.462 88.5412 112.955 88.2782 112.425 88.0732Z" fill="#AE2722"/>
<path d="M31.5176 79.4745L31.8587 79.9411C39.2417 78.2316 42.9587 77.5141 50.4358 76.3613C50.4005 76.1535 50.3848 76.0476 50.3534 75.8398C42.7744 77.0083 39.0025 77.7336 31.5176 79.4745Z" fill="url(#paint6_linear_308_4307)"/>
<path d="M133.46 92.8845C103.019 87.8802 71.9449 88.1455 41.5941 93.6687C40.0257 85.9446 39.2651 82.0864 37.7085 74.3584C70.5164 68.3371 104.121 68.0571 137.024 73.5311C135.628 81.0945 134.926 84.8899 133.46 92.8845Z" fill="url(#paint7_linear_308_4307)"/>
<path d="M136.785 74.8564C104.05 69.4148 70.6185 69.696 37.9794 75.6876C37.9441 75.4994 37.9245 75.4053 37.8853 75.2132C70.5849 69.2144 104.078 68.9398 136.872 74.4016C136.836 74.5702 136.821 74.6682 136.785 74.8564Z" fill="url(#paint8_linear_308_4307)"/>
<path d="M133.637 91.9705C103.078 86.9427 71.8825 87.2079 41.4139 92.7547C41.3786 92.5783 41.359 92.4881 41.3237 92.3077C71.8496 86.7532 103.103 86.4879 133.719 91.5236C133.688 91.7 133.668 91.7902 133.637 91.9705Z" fill="url(#paint9_linear_308_4307)"/>
<path d="M104.477 82.9101V82.8591V82.7768L104.371 82.9297L104.477 82.9101ZM100.164 80.3851C100.756 80.4047 101.203 80.4282 101.924 80.4596L102.128 80.4792C102.122 80.387 102.1 80.2966 102.062 80.2125L101.932 80.0636C101.753 79.9701 101.554 79.9242 101.352 79.9302L99.5876 79.8518C99.5876 80.3419 99.5876 80.7419 99.5601 81.2281L100.144 81.2516L100.164 80.3851ZM91.8949 80.9105C91.5258 80.444 91.3254 79.8664 91.3263 79.2715C91.3263 77.8169 92.3222 76.919 93.3181 76.919H93.3534C93.5495 76.9307 93.7439 76.9623 93.9337 77.0131C94.245 77.0901 94.5482 77.1964 94.8394 77.3307V77.2405L94.7963 77.1856C94.7012 77.0859 94.5915 77.0013 94.4709 76.9347C94.1093 76.7414 93.7246 76.5952 93.326 76.4995C93.1375 76.449 92.9444 76.4175 92.7496 76.4054H92.7143C91.7145 76.4054 90.7108 77.3072 90.7186 78.7579V78.7775C90.7137 79.2057 90.8207 79.6278 91.0291 80.0019C91.2375 80.376 91.54 80.6892 91.9066 80.9105H91.8949ZM95.6942 78.456L95.7373 78.4952L96.2705 78.9971L96.6313 78.3619L96.741 78.1619C96.741 77.6601 96.741 77.1425 96.7646 76.5701C96.5293 76.9621 96.3333 77.3189 96.0431 77.8404L95.6942 78.456ZM100.262 75.8329V75.7898L100.321 75.7624L100.67 75.6212V75.2291V75.0292V74.4646L100.105 74.441H100.074V74.6998V75.0919L99.7248 75.237L99.6699 75.2683V75.3075C99.6699 76.0368 99.6699 76.4838 99.6386 77.0915L100.235 77.1151C100.254 76.723 100.262 76.3623 100.274 75.8329H100.262ZM85.1078 79.9146C84.2609 79.9146 83.7473 79.9459 83.0415 79.9655C83.0415 80.3811 83.0768 80.7223 83.0964 81.1418H83.6806C83.6806 80.9222 83.6806 80.7066 83.6493 80.4713C84.3589 80.4517 84.8687 80.44 85.7116 80.4282H85.8214C85.8184 80.3381 85.7998 80.2493 85.7665 80.1655L85.6607 80.0361C85.4965 79.9509 85.3119 79.9129 85.1274 79.9263L85.1078 79.9146ZM83.5003 77.1503V77.1072C84.1707 77.0876 84.6765 77.0759 85.4372 77.0641C85.4921 77.0641 85.496 77.0366 85.496 77.0327C85.5193 76.9798 85.5287 76.9217 85.5234 76.8641V76.8406C85.5281 76.7746 85.5159 76.7085 85.4881 76.6485L85.4568 76.621C85.3106 76.5715 85.1557 76.5528 85.002 76.5661H84.9392L82.8925 76.6132C82.8925 76.8014 82.9121 76.9778 82.92 77.17L83.5003 77.1503ZM88.3543 76.1192C88.4366 75.9506 88.5347 75.7976 88.6288 75.6447C88.4125 75.2645 88.0984 74.949 87.7191 74.7312C87.8559 74.8775 87.9732 75.0409 88.0681 75.2174C88.2186 75.4986 88.3194 75.8036 88.3661 76.1192H88.3543ZM116.585 76.9974V76.9661H116.616L117.008 76.8563L117.047 76.4642C117.047 76.3819 117.047 76.3426 117.047 76.2682L117.098 75.6996L116.538 75.6408H116.502V75.6957C116.502 75.778 116.502 75.8133 116.502 75.8918L116.471 76.2838L116.079 76.3897H116.047V76.425C115.938 77.7738 115.863 78.652 115.773 79.7146C116 79.5029 116.212 79.299 116.42 79.099C116.463 78.4795 116.518 77.8287 116.588 76.9974H116.585ZM125.171 78.0404V78.009H125.199L125.591 77.9149L125.638 77.5228C125.638 77.4523 125.638 77.413 125.665 77.3268L125.701 77.017C126.082 77.1533 126.476 77.2492 126.877 77.3033C126.971 77.3033 127.069 77.3268 127.167 77.3346V77.2484C127.167 77.1582 127.167 77.1229 127.194 77.0523L127.23 76.7779H127.202C126.91 76.7796 126.617 76.7586 126.328 76.7151C125.927 76.6645 125.532 76.5698 125.152 76.4328L125.116 76.7387C125.116 76.8092 125.116 76.8484 125.093 76.9347L125.046 77.3268L124.654 77.4209H124.618V77.4523C124.458 78.7932 124.356 79.6715 124.226 80.734L124.893 80.142C124.995 79.5186 125.073 78.8677 125.175 78.0404H125.171ZM129.712 76.5191C129.817 76.3479 129.895 76.1614 129.943 75.9662L130.206 76.0055L130.284 75.4252C130.284 75.3389 130.284 75.2919 130.315 75.1978L130.394 74.6371L129.837 74.5469H129.79V74.6057C129.79 74.6998 129.77 74.7469 129.759 74.8292L129.68 75.4173L129.422 75.3781C129.372 75.5765 129.291 75.7657 129.182 75.9388C129.031 76.1565 128.833 76.3374 128.602 76.4681C128.489 76.5276 128.373 76.58 128.253 76.625C128.712 76.6877 129.073 76.7465 129.469 76.8092C129.562 76.717 129.645 76.6144 129.716 76.5034L129.712 76.5191ZM126.767 74.5587L126.826 74.0999L126.265 74.0176H126.222V74.0725C126.222 74.1744 126.222 74.2254 126.195 74.2999V74.4646C126.312 74.4959 126.477 74.5194 126.649 74.5469L126.767 74.5587ZM104.665 78.6364C104.587 78.5658 104.508 78.4991 104.426 78.4364L104.359 78.3933C104.474 78.5321 104.572 78.6834 104.653 78.8442L104.665 78.6364ZM108.135 74.9076V74.9664C108.135 75.0488 108.135 75.088 108.135 75.1664V75.5585L107.743 75.6761H107.716V75.7114C107.68 76.3348 107.661 76.7975 107.637 77.2797L108.261 76.7387C108.261 76.5936 108.261 76.4367 108.288 76.2682V76.2407H108.315L108.708 76.1231L108.731 75.731C108.731 75.6565 108.731 75.6173 108.731 75.535L108.759 74.9703L108.194 74.9311L108.135 74.9076ZM87.8485 78.1776C87.7701 78.2835 87.6995 78.3815 87.6289 78.4678C87.6917 78.5305 87.7583 78.605 87.8328 78.6873C87.8328 78.4991 87.8407 78.3227 87.8524 78.1659L87.8485 78.1776ZM96.2627 79.6832L96.0627 79.8871L96.7175 81.1183C96.7175 80.9222 96.7175 80.7262 96.7175 80.5576L96.6195 80.3811L96.2627 79.6832ZM112.534 83.1532L112.609 83.2434C112.609 83.1532 112.609 83.063 112.609 82.9768V82.9572C111.758 81.4947 111.28 80.6909 110.476 79.3617C111.26 78.6756 111.778 78.2443 112.691 77.4797C112.822 77.3716 112.946 77.2564 113.064 77.1347C113.087 76.8328 113.111 76.5191 113.138 76.1858V76.1388H113.099C112.961 76.1765 112.837 76.251 112.738 76.3544C112.562 76.5034 112.37 76.723 112.134 76.919C111.225 77.6836 110.715 78.0953 109.923 78.801C110.731 80.1302 111.213 80.934 112.068 82.3926C112.212 82.6499 112.369 82.8999 112.538 83.1414L112.534 83.1532ZM52.4274 81.232L52.6744 80.5419C52.9998 79.6323 53.1645 79.1814 53.4938 78.2796L53.6468 77.8522L53.2782 77.6013L53.0939 77.4797L52.6234 77.1464L52.5999 77.1739L52.992 77.4287L52.8391 77.8522C52.5058 78.7579 52.345 79.2088 52.0235 80.1145L51.7843 80.7811L51.8353 80.8124L52.4274 81.232ZM87.7152 83.1375C87.0985 83.6156 86.339 83.8725 85.5587 83.8668C83.5708 83.9021 82.5867 83.9295 80.5988 84.004H80.2342C79.2932 84.0393 78.7991 84.0628 77.8424 84.106L77.8777 84.6118L78.4423 84.5882C79.4265 84.5412 79.9127 84.5216 80.8929 84.4863L81.4771 84.4628C83.2729 84.404 84.2688 84.3765 86.1547 84.3491C86.9363 84.3553 87.6972 84.0985 88.3151 83.6198C88.6927 83.3014 88.975 82.8848 89.1306 82.4161C88.9388 82.1928 88.7657 81.9541 88.6131 81.7025C88.467 82.2607 88.1487 82.7587 87.7034 83.1258L87.7152 83.1375ZM96.0706 82.7925C95.8863 82.9101 95.6314 83.0865 95.3256 83.2708C94.5807 83.7469 93.7231 84.0175 92.8398 84.055H92.7535C91.7315 84.0539 90.7348 83.7376 89.8991 83.1493L89.9697 83.2316C90.8765 84.0948 92.0819 84.5738 93.3338 84.5686H93.4279C94.309 84.5323 95.1644 84.2616 95.9059 83.7845C96.0549 83.6982 96.196 83.608 96.3215 83.5296V83.3414C96.3215 83.2512 96.3215 83.2081 96.3215 83.1297V83.0277L96.1137 82.7572L96.0706 82.7925ZM77.0779 77.3582L76.4545 77.3934L76.3251 76.9621L76.3015 76.8955L74.8547 76.9778C75.0273 79.1931 75.1292 80.4831 75.3174 82.8591V82.9101H75.3488L75.7173 83.0238L75.7526 83.4159C75.7526 83.51 75.7526 83.5492 75.7526 83.6276L75.7958 84.2158L75.2115 84.251C74.2313 84.3099 73.7412 84.3412 72.7688 84.4079L72.8081 84.9097L73.3766 84.8745C74.3568 84.8078 74.843 84.7804 75.8232 84.7255L76.4113 84.6902L76.3682 84.102C76.3682 84.0236 76.3682 83.9805 76.3682 83.8903L76.3368 83.4982L75.9447 83.3845H75.9173V83.3336C75.733 80.9457 75.635 79.6597 75.4664 77.4523L76.9093 77.3699L76.9328 77.4366L77.0622 77.8639H77.223C77.223 77.6954 77.1994 77.5307 77.1877 77.3542L77.0779 77.3582ZM101.728 84.0824C101.603 84.0824 101.477 84.0824 101.356 84.0824C99.5719 84.0001 98.6858 83.9687 96.9057 83.9178V84.4236L97.4742 84.4432C99.2582 84.4941 100.14 84.5294 101.924 84.6157C102.054 84.6157 102.183 84.6157 102.317 84.6157C102.935 84.6301 103.548 84.4957 104.104 84.2236H104.081L104.101 83.659C104.101 83.557 104.101 83.5178 104.101 83.4473V83.2747C104.043 83.3302 103.983 83.3825 103.92 83.4316C103.275 83.8894 102.495 84.1173 101.705 84.0785L101.728 84.0824ZM107.904 83.6237V83.5727C107.951 82.7886 107.974 82.3259 108.01 81.5849L108.214 81.4006C108.088 81.181 107.963 80.9536 107.821 80.7066C107.704 80.8085 107.586 80.9183 107.453 81.0398C107.414 81.777 107.394 82.2161 107.355 83.0277V83.0748L107.394 83.0983L107.739 83.2669L107.716 83.659C107.716 83.7452 107.716 83.7884 107.716 83.8707L107.684 84.4549L107.096 84.4118C106.12 84.3451 105.63 84.3177 104.653 84.2589L104.634 84.7608L105.198 84.796C106.179 84.8588 106.669 84.8862 107.649 84.9607L108.233 85.0038L108.264 84.4157C108.264 84.3334 108.264 84.2902 108.264 84.204V83.8119L107.919 83.6472L107.904 83.6237ZM130.931 77.5385H130.896V77.5973C130.896 77.6797 130.896 77.7189 130.868 77.7934L130.813 78.1855L130.421 78.2678H130.394V78.3031C130.002 81.2045 129.786 82.6513 129.378 85.5528V85.5998H129.406L129.743 85.7959L129.692 86.1879C129.679 86.2566 129.669 86.326 129.665 86.3958L129.578 86.976L129.002 86.8859C128.026 86.729 127.536 86.6585 126.563 86.4938L126.497 86.9956L127.061 87.078C128.037 87.227 128.524 87.3015 129.5 87.4701L130.076 87.5642L130.163 86.9878C130.163 86.8937 130.186 86.8506 130.194 86.7761L130.253 86.384L129.912 86.1879H129.884V86.1409C130.3 83.2434 130.508 81.7927 130.915 78.8991V78.8638L131.307 78.7853L131.37 78.3933C131.37 78.3227 131.37 78.2835 131.402 78.1972L131.484 77.6365L130.931 77.5385ZM124.305 85.3802V85.3332C125.297 84.4353 126.018 83.7884 126.814 83.0905C126.865 82.6984 126.916 82.3063 126.971 81.9142C125.877 82.8709 125.046 83.608 123.787 84.7568V84.8039L123.823 84.8274L124.16 85.0195L124.113 85.4116C124.113 85.494 124.113 85.5371 124.085 85.6233L124.019 86.2036L123.438 86.1252C122.552 86.0037 122.07 85.9409 121.262 85.839L120.984 85.8037L120.451 85.7371C119.619 85.6351 119.133 85.5763 118.235 85.4744L118.188 85.9762L118.749 86.0429C119.643 86.1448 120.133 86.2076 120.948 86.3095L121.513 86.3801L123.948 86.7055L124.528 86.7878L124.603 86.2036C124.603 86.1252 124.603 86.0821 124.626 85.9919L124.673 85.5998L124.34 85.4116L124.305 85.3802ZM71.0672 78.2286L71.1456 77.7895V77.7189L71.9886 77.6601C71.9886 77.4915 71.9611 77.3307 71.9494 77.1543L70.4987 77.2601V77.3307L70.432 77.7738L69.9811 77.8051H69.8086C69.9889 79.6048 70.1262 80.9732 70.3457 83.1806V83.2316H70.3771L70.7496 83.3414L70.7888 83.7335L70.8084 83.9452L70.8633 84.5294L70.283 84.5765C69.295 84.6549 68.8048 84.6941 67.8285 84.7843L67.8795 85.2861L68.448 85.2391C69.4283 85.1528 69.9184 85.1097 70.9064 85.0352L71.4867 84.9882L71.4318 84.4079C71.4318 84.3255 71.4318 84.2824 71.4318 84.1922L71.3926 83.8001L71.0201 83.6904H70.9888V83.6394C70.777 81.4359 70.6477 80.0636 70.4712 78.2639H70.6437L71.0672 78.2286ZM115.969 84.3373V84.2902C116.93 83.361 117.631 82.6866 118.4 81.9652C118.439 81.5731 118.474 81.181 118.518 80.7889C117.459 81.777 116.655 82.5415 115.436 83.7296V83.7766L115.471 83.8001L115.812 83.9766L115.781 84.3687C115.781 84.451 115.781 84.4941 115.781 84.5765L115.73 85.1646L115.146 85.1058L113.244 84.9176L112.66 84.8666C111.44 84.7529 110.833 84.7019 109.613 84.6039L109.578 85.1097L110.143 85.1568C111.178 85.2391 111.774 85.2901 112.664 85.3724L113.228 85.4273C114.212 85.5175 114.699 85.5645 115.679 85.6626L116.259 85.7214L116.306 85.145C116.306 85.0431 116.306 85.0038 116.326 84.9333L116.361 84.5412L116.016 84.3608L115.969 84.3373ZM57.1207 84.251L59.2262 83.9844L59.1752 83.8903C59.1085 83.7766 59.0184 83.6472 58.9282 83.4982C57.9989 83.6119 57.3912 83.6904 56.4659 83.8158C56.4384 83.9178 56.411 84.0197 56.3874 84.1177C56.3331 84.3133 56.3028 84.5147 56.2973 84.7176V84.7451L56.6894 84.7882L56.7599 85.2273C56.7599 85.3058 56.7599 85.3489 56.7952 85.4391L56.8815 86.0194L56.3012 86.0978C55.2818 86.2389 54.772 86.3095 53.7565 86.4585L53.8389 86.9564L54.3996 86.8741C55.419 86.729 55.9248 86.6585 56.9521 86.5212L57.5323 86.4428L57.4461 85.8664C57.4461 85.7763 57.4265 85.737 57.4108 85.6547L57.3481 85.2077L56.9324 85.1685V85.145C56.9391 84.9422 56.9694 84.7409 57.0226 84.5451C57.0658 84.4549 57.101 84.353 57.1207 84.251ZM61.5708 82.4592L61.9629 82.42C61.069 80.8752 60.3946 79.7146 59.2693 77.8522C59.1875 77.7234 59.1328 77.5793 59.1085 77.4287L59.1321 77.4013L59.4222 77.1974L59.3712 76.8524C59.3712 76.7818 59.3712 76.7387 59.3438 76.6563L59.2693 76.0956L58.7047 76.1662H58.6694V76.2289C58.6694 76.3034 58.6694 76.3426 58.7008 76.4211L58.7478 76.7739L58.4616 76.9739L58.4341 77.0014C58.4571 77.1511 58.5119 77.2942 58.5949 77.4209C59.8221 79.4676 60.5279 80.6752 61.5708 82.4592ZM53.0508 82.7219L52.5764 82.1142L52.4117 82.3455C52.9449 83.0199 53.2468 83.4081 53.7369 84.0432L53.8154 83.6982L53.0508 82.7219ZM57.203 80.5693C57.1481 80.8164 57.0893 81.0634 57.0305 81.33L57.6068 81.2555L57.203 80.5693ZM66.8797 77.566L64.8095 77.762C64.9193 78.7148 64.9977 79.3578 65.1271 80.4596C65.1857 80.9266 65.2184 81.3965 65.2251 81.8671C65.2487 82.5271 65.1531 83.1859 64.9428 83.8119C64.7852 84.2965 64.4653 84.7119 64.0371 84.9882C63.7707 85.1485 63.4721 85.2476 63.1627 85.2783L62.5746 85.345C61.4454 85.4704 60.8808 85.5371 59.7516 85.6743L59.8457 86.1644L60.4063 86.0978C61.3709 85.9801 61.9276 85.9135 62.7589 85.8233L62.9667 85.7998L63.8214 85.7057C64.1321 85.6782 64.4325 85.5803 64.6997 85.4195C65.1262 85.1413 65.4455 84.7266 65.6054 84.2432C65.8091 83.6105 65.8993 82.9468 65.872 82.2828C65.8633 81.8187 65.8306 81.3554 65.774 80.8948L65.4643 78.1933L66.9346 78.0561C66.9032 77.9032 66.9032 77.7424 66.8797 77.566ZM53.0743 85.7723L52.9998 85.3293L52.9567 85.3685C52.7763 85.5332 52.5293 85.7802 52.2274 86.035C51.5049 86.6986 50.6137 87.1503 49.6514 87.3407C49.3519 87.39 49.0491 87.4162 48.7457 87.4191C47.9319 87.4318 47.1264 87.2546 46.3931 86.9015C47.2786 87.5195 48.3366 87.842 49.4161 87.8229C49.7144 87.8202 50.012 87.794 50.3062 87.7445C51.2634 87.5626 52.152 87.1203 52.8743 86.4663L53.137 86.2389L53.0978 86.0037C53.0978 85.9135 53.09 85.8704 53.0743 85.7723ZM48.1066 84.2432C47.5935 83.8044 47.2507 83.1994 47.1381 82.5337C47.103 82.3502 47.0846 82.1638 47.0832 81.9769C47.0494 81.4203 47.2163 80.8701 47.5538 80.4261C47.8912 79.9822 48.3767 79.6741 48.9221 79.5578C49.0207 79.5431 49.1204 79.5366 49.2201 79.5382C49.7252 79.5387 50.2279 79.6086 50.7139 79.746V79.6754L50.612 79.5891C50.436 79.4787 50.2443 79.3954 50.0435 79.3421C49.553 79.2064 49.0467 79.1365 48.5379 79.1343C48.4341 79.1336 48.3305 79.1414 48.2281 79.1578C47.6827 79.2726 47.1968 79.5797 46.8591 80.0232C46.5215 80.4666 46.3547 81.0168 46.3892 81.5731C46.3902 81.7641 46.4099 81.9545 46.448 82.1416C46.5221 82.6044 46.7134 83.0405 47.0037 83.4083C47.294 83.7762 47.6737 84.0636 48.1066 84.2432Z" fill="#B3975A"/>
<path d="M51.7883 82.8111L51.8471 83.015V83.0268C51.9138 83.4189 51.4276 83.811 51.2237 83.9756C50.6751 84.4718 49.9939 84.7974 49.2633 84.9127C47.8204 85.148 46.2207 84.1286 45.8482 82.2191C45.4757 80.3096 46.6324 78.8001 48.1027 78.557C48.8594 78.4315 51.0943 78.6982 51.2394 79.549C51.2394 79.6352 51.2394 79.7137 51.2394 79.7803L51.408 79.8901C51.7295 78.9844 51.8942 78.5296 52.2235 77.6199L52.0392 77.4984C52.0109 77.5482 51.972 77.5913 51.9253 77.6245C51.8786 77.6577 51.8251 77.6802 51.7687 77.6905C51.2041 77.7493 49.8789 76.4162 47.6832 76.7808C45.1777 77.1729 43.2722 79.2314 43.9466 82.5602C44.621 85.889 47.0833 87.128 49.5024 86.732C51.4629 86.4105 52.5333 84.6775 52.9567 84.6147C53.0102 84.6144 53.0632 84.625 53.1124 84.6459C53.1616 84.6668 53.2061 84.6976 53.243 84.7363L53.3723 84.552C52.7764 83.7678 52.4745 83.3993 51.8746 82.6347L51.7883 82.8111ZM69.7381 83.2268C69.4518 80.3175 69.3068 78.8589 69.0166 75.9457C68.994 75.8175 69.0164 75.6854 69.08 75.5718C69.1435 75.4582 69.2444 75.37 69.3656 75.3223L69.346 75.1262C66.3308 75.3693 64.8252 75.5183 61.814 75.8438C61.814 75.9222 61.814 75.9614 61.8375 76.0398C61.9665 76.0631 62.0835 76.1299 62.1692 76.2291C62.2548 76.3283 62.3038 76.4538 62.308 76.5848C62.5197 78.2629 62.6217 79.0981 62.8334 80.7723C63.0451 82.4465 62.8334 83.1483 62.4413 83.1954C62.3825 83.1954 62.2766 83.1327 62.2374 82.9405L62.01 82.9641C62.0884 83.5639 62.1355 83.9168 62.1982 84.4344C61.9492 84.256 61.755 84.0115 61.6375 83.7286C60.2417 81.3094 59.5281 80.0979 58.0774 77.6983C57.9478 77.4923 57.8636 77.2611 57.8304 77.02C57.8226 76.9134 57.8441 76.8067 57.8924 76.7114C57.9408 76.616 58.0142 76.5357 58.1048 76.4789C58.1048 76.4005 58.1048 76.3613 58.0774 76.2829C56.9482 76.424 56.3836 76.4985 55.2544 76.6475C55.2544 76.7299 55.2544 76.7691 55.2857 76.8436C55.4008 76.8701 55.5057 76.9294 55.5878 77.0143C55.6699 77.0992 55.7257 77.206 55.7484 77.3219C55.7693 77.5415 55.7521 77.763 55.6974 77.9767C55.0426 80.7213 54.729 82.1015 54.1291 84.8539C54.0467 85.246 53.9722 85.5401 53.6272 85.6695C53.6272 85.7518 53.6272 85.7949 53.6625 85.8812C54.6858 85.7243 55.1995 85.6538 56.2267 85.5126C56.2267 85.4303 56.2267 85.3911 56.1954 85.3009C56.0809 85.2948 55.9717 85.2512 55.8845 85.1768C55.7973 85.1024 55.7371 85.0013 55.7131 84.8892C55.6425 84.4109 55.8895 83.7129 55.9797 83.2856C57.2697 83.1091 57.9127 83.0268 59.2066 82.866C59.4693 83.3444 59.881 83.7678 59.9594 84.3403C59.977 84.4514 59.9532 84.5651 59.8925 84.6598C59.8318 84.7545 59.7384 84.8236 59.6301 84.8539C59.6301 84.9402 59.6301 84.9833 59.6614 85.0656L62.5041 84.7324L63.1 84.6696C64.2214 84.5442 64.8879 83.4699 64.539 80.5057L64.1469 77.2239C65.4369 77.0906 66.0838 77.0318 67.3738 76.9142C67.6522 79.498 67.7659 80.788 68.056 83.3718C68.0847 83.498 68.0672 83.6302 68.0068 83.7445C67.9464 83.8589 67.847 83.9479 67.7267 83.9952V84.207C68.7186 84.1168 69.2087 84.0776 70.2007 83.9992C70.2007 83.9129 70.2007 83.8737 70.1772 83.7874C70.0524 83.7555 69.9417 83.6831 69.8623 83.5817C69.7829 83.4803 69.7392 83.3555 69.7381 83.2268ZM56.262 81.9838C56.5286 80.8076 56.6541 80.1998 56.9403 79.0079C57.5794 80.0783 57.8892 80.6155 58.5087 81.6937C57.6147 81.8035 57.1638 81.8505 56.262 81.9838ZM76.6506 74.1068C76.5996 74.4283 76.478 74.6518 76.2036 74.6636C73.7962 74.7969 72.5964 74.8753 70.1929 75.0557C69.9106 75.0792 69.7655 74.8753 69.6479 74.5656H69.4871C69.5851 75.6203 69.64 76.1339 69.742 77.2043H69.9027C69.9537 76.8789 70.0635 76.6867 70.3458 76.6632C71.1888 76.5966 71.6162 76.5691 72.4591 76.5103L73.0081 82.9758C73.0341 83.1013 73.0154 83.2319 72.9553 83.3451C72.8951 83.4582 72.7973 83.5467 72.6787 83.5953C72.6787 83.6777 72.6787 83.7247 72.6983 83.811C73.6825 83.7404 74.1726 83.709 75.1567 83.6502C75.1567 83.5639 75.1567 83.5208 75.1567 83.4346C75.0303 83.4043 74.9179 83.3319 74.8381 83.2293C74.7583 83.1267 74.7158 82.9999 74.7176 82.87C74.5176 80.2783 74.4117 78.9844 74.2078 76.3966C75.0587 76.3417 75.4821 76.3182 76.333 76.2751C76.6035 76.2751 76.7525 76.4358 76.8466 76.7495H77.0191C76.9485 75.6908 76.9132 75.1811 76.8387 74.1029L76.6506 74.1068ZM79.7872 82.6112C79.6147 79.6901 79.5324 78.2277 79.3599 75.3105C79.3473 75.1794 79.3791 75.0478 79.4502 74.9369C79.5213 74.826 79.6275 74.7422 79.752 74.6989C79.752 74.6204 79.752 74.5812 79.752 74.4989C78.7365 74.542 78.2228 74.5656 77.2034 74.6165C77.2034 74.6949 77.2034 74.7342 77.2034 74.8126C77.3308 74.8432 77.4437 74.9169 77.523 75.0212C77.6023 75.1256 77.6432 75.2541 77.6386 75.385C77.8307 78.31 77.9288 79.7686 78.117 82.6857C78.1408 82.8119 78.1192 82.9426 78.0561 83.0545C77.993 83.1664 77.8923 83.2524 77.7719 83.2973C77.7719 83.3836 77.7719 83.4267 77.7719 83.513C78.76 83.462 79.2501 83.4385 80.2342 83.4032C80.2342 83.3169 80.2342 83.2738 80.2342 83.1875C80.1065 83.155 79.9933 83.0805 79.913 82.976C79.8326 82.8715 79.7897 82.743 79.7912 82.6112H79.7872ZM87.8054 76.577C87.7623 74.7342 86.3233 74.3225 85.1236 74.3421C83.0925 74.3813 82.077 74.4087 80.0264 74.4911C80.0264 74.5695 80.0264 74.6087 80.0264 74.6871C80.1541 74.7194 80.2667 74.7948 80.3453 74.9005C80.4238 75.0062 80.4636 75.1358 80.4577 75.2674C80.6146 78.1884 80.6969 79.647 80.8498 82.572C80.8738 82.6988 80.8513 82.83 80.7865 82.9415C80.7217 83.0531 80.6189 83.1377 80.4969 83.1797C80.4969 83.262 80.4969 83.3052 80.4969 83.3914C82.4848 83.3169 83.4768 83.2856 85.4686 83.2503C86.7742 83.2268 88.1309 82.5328 88.0838 80.5959C88.0603 79.4196 86.7938 78.5688 86.7899 78.4315C86.837 78.4119 87.8329 77.5062 87.8093 76.577H87.8054ZM82.2613 76.028C83.316 75.9967 83.8297 75.9849 84.9001 75.9653C85.4137 75.9653 86.0528 75.9653 86.0763 76.7965C86.0998 77.6278 85.4568 77.6591 84.9549 77.667C83.9081 77.6905 83.3866 77.7023 82.3358 77.7336C82.3162 77.0514 82.3005 76.7103 82.2652 76.028H82.2613ZM85.1667 81.6427C84.112 81.6623 83.5983 81.6741 82.5319 81.7055C82.4887 80.7723 82.4652 80.3096 82.4221 79.3804C83.4885 79.3451 84.0179 79.3294 85.0843 79.3137C85.7156 79.3137 86.3665 79.5019 86.3939 80.4351C86.4214 81.3683 85.7823 81.627 85.1706 81.6427H85.1667ZM95.5256 77.5376C95.9608 76.7534 96.1804 76.3809 96.6235 75.6085L96.4745 75.4713C96.4405 75.5111 96.3985 75.5432 96.3512 75.5655C96.3038 75.5878 96.2523 75.5998 96.2 75.6007C95.6785 75.5654 94.6983 74.146 92.6712 74.1186C90.3579 74.095 88.323 75.636 88.3936 78.7609C88.4641 81.8858 90.4951 83.4189 92.73 83.4189C94.5336 83.4189 95.7844 82.0348 96.1804 82.0427C96.2299 82.0508 96.2772 82.0694 96.3191 82.0971C96.361 82.1248 96.3966 82.161 96.4235 82.2034L96.5686 82.0583C96.153 81.2742 95.9412 80.8821 95.5178 80.0979L95.3845 80.2273L95.408 80.4312C95.408 80.7997 94.9061 81.0585 94.6944 81.1918C94.1234 81.5558 93.458 81.744 92.781 81.7329C91.444 81.7329 90.1658 80.5292 90.1344 78.7491C90.1031 76.969 91.3734 75.7732 92.7418 75.7889C93.4476 75.7889 95.4119 76.3966 95.408 77.1925C95.408 77.267 95.3845 77.3415 95.3845 77.4003L95.5256 77.5376ZM101.493 77.7219C100.517 77.6748 100.019 77.6552 99.0348 77.6199C99.0348 76.6828 99.0662 76.2123 99.0818 75.2674C99.0779 75.1361 99.1167 75.007 99.1924 74.8995C99.268 74.7921 99.3764 74.7121 99.5014 74.6714C99.5014 74.5891 99.5014 74.5499 99.5014 74.4754C98.482 74.4322 97.9722 74.4205 96.9528 74.393C96.9528 74.4715 96.9528 74.5107 96.9528 74.5852C97.0786 74.6301 97.1856 74.716 97.2567 74.8291C97.3278 74.9421 97.3588 75.0758 97.3449 75.2086C97.3135 78.1375 97.2939 79.6 97.2547 82.521C97.2717 82.6475 97.241 82.7759 97.1685 82.881C97.096 82.9861 96.987 83.0604 96.8626 83.0895C96.8626 83.1758 96.8626 83.215 96.8626 83.3052C98.6506 83.3522 99.5484 83.3875 101.332 83.4699C102.756 83.5326 104.351 83.1719 104.469 80.7252C104.544 78.3884 102.944 77.7807 101.497 77.714L101.493 77.7219ZM101.297 81.8623C100.36 81.8152 99.8935 81.7996 98.9446 81.7643C98.9446 80.7527 98.9721 80.2469 98.9917 79.2353C99.9327 79.2667 100.407 79.2863 101.344 79.3294C101.924 79.3569 102.713 79.5333 102.677 80.6625C102.642 81.7917 101.877 81.878 101.301 81.8505L101.297 81.8623ZM111.554 82.6465C110.613 81.0428 110.131 80.2469 109.158 78.6472C110.186 77.7611 110.699 77.318 111.746 76.4397C112.138 76.1221 112.53 75.5771 113.028 75.5301C113.028 75.4478 113.028 75.4085 113.028 75.3301C111.731 75.2125 111.068 75.1615 109.778 75.0596C109.778 75.138 109.778 75.1772 109.778 75.2556C109.911 75.2988 110.143 75.3772 110.127 75.6242C110.087 75.8198 109.971 75.9917 109.805 76.1025C108.629 77.0867 108.076 77.5846 106.943 78.5844C107.006 77.4082 107.033 76.8279 107.088 75.6634C107.089 75.5329 107.132 75.4062 107.212 75.3033C107.293 75.2004 107.405 75.1271 107.531 75.0949C107.531 75.0125 107.531 74.9772 107.531 74.8949C106.516 74.8243 106.002 74.793 104.979 74.7342C104.979 74.8126 104.979 74.8518 104.979 74.9302C105.102 74.9755 105.207 75.0616 105.274 75.1743C105.342 75.287 105.369 75.4194 105.351 75.5497L105.038 82.8582C105.047 82.9868 105.011 83.1146 104.936 83.2193C104.861 83.3239 104.751 83.3988 104.626 83.4306C104.626 83.513 104.626 83.56 104.626 83.6424C105.61 83.6973 106.104 83.7325 107.088 83.7992C107.088 83.7129 107.088 83.6698 107.088 83.5875C106.969 83.5362 106.869 83.448 106.803 83.3358C106.738 83.2236 106.71 83.0933 106.724 82.9641C106.767 82.0779 106.79 81.631 106.833 80.7448C107.261 80.3528 107.476 80.1528 107.904 79.7646C108.617 80.9997 108.974 81.6192 109.664 82.8582C109.809 83.0336 109.919 83.2343 109.99 83.4502C109.99 83.6816 109.754 83.7247 109.598 83.7561C109.598 83.8423 109.598 83.8855 109.598 83.9678C110.829 84.0658 111.44 84.1168 112.668 84.2266C112.668 84.1442 112.668 84.105 112.668 84.0188C112.197 83.811 111.86 83.164 111.558 82.6347L111.554 82.6465ZM120.427 84.2658L121.211 76.9926C121.214 76.8616 121.263 76.7358 121.349 76.637C121.435 76.5382 121.552 76.4725 121.682 76.4515C121.685 76.3857 121.693 76.3202 121.705 76.2554C120.682 76.1261 120.172 76.0672 119.149 75.9496V76.1496C119.272 76.1991 119.374 76.2899 119.438 76.4065C119.502 76.5231 119.523 76.6582 119.498 76.7887C119.498 76.8828 119.498 76.9298 119.478 77.0279C117.69 78.6707 116.808 79.4941 115.075 81.1644C115.24 79.2432 115.318 78.2786 115.467 76.3535C115.471 76.2239 115.518 76.0993 115.6 75.9992C115.682 75.8991 115.796 75.8293 115.922 75.8006C115.922 75.7222 115.922 75.683 115.922 75.6085C114.906 75.5026 114.397 75.4556 113.377 75.3615C113.377 75.4399 113.377 75.4791 113.377 75.5575C113.5 75.6062 113.601 75.6956 113.665 75.8107C113.728 75.9258 113.75 76.0594 113.726 76.1888C113.507 79.1059 113.393 80.5645 113.17 83.4816C113.177 83.6097 113.139 83.7362 113.061 83.8384C112.983 83.9405 112.872 84.0114 112.746 84.0384C112.746 84.1207 112.746 84.1638 112.746 84.2501C113.726 84.3364 114.22 84.3873 115.204 84.4893C115.204 84.403 115.204 84.3599 115.204 84.2736C115.086 84.2208 114.988 84.1302 114.926 84.016C114.865 83.9019 114.843 83.7705 114.863 83.6424C114.863 83.5561 114.863 83.513 114.883 83.4306C116.6 81.7604 117.471 80.933 119.243 79.2902C119.059 81.1997 118.961 82.1564 118.769 84.0658C118.772 84.1953 118.729 84.3217 118.647 84.4219C118.565 84.522 118.449 84.5891 118.322 84.6108C118.322 84.6971 118.322 84.7363 118.298 84.8226C119.282 84.9363 119.78 84.9951 120.764 85.1166L120.784 84.9088C120.661 84.8575 120.559 84.7659 120.495 84.649C120.431 84.5322 120.408 84.3971 120.431 84.2658H120.427ZM124.277 74.4009C124.14 75.5771 125.426 75.9692 126.399 76.0908C127.371 76.2123 128.728 76.1849 128.888 74.9929C128.912 74.8126 128.943 74.6597 129.167 74.6989C129.167 74.6048 129.186 74.5616 129.198 74.4675C128.586 74.3774 128.281 74.3264 127.669 74.2401C127.669 74.3303 127.669 74.3774 127.641 74.4675C127.751 74.4675 127.834 74.542 127.822 74.6322C127.739 75.236 127.038 75.1341 126.528 75.0635C126.018 74.9929 125.352 74.8949 125.414 74.2597C125.414 74.1539 125.505 74.1617 125.599 74.1774C125.599 74.0872 125.618 74.0402 125.63 73.9539L124.121 73.7461C124.121 73.8402 124.121 73.8833 124.097 73.9774C124.36 74.0088 124.297 74.1931 124.277 74.4009ZM127.755 77.071C127.755 77.1494 127.755 77.1886 127.732 77.271C127.856 77.3237 127.958 77.4186 128.02 77.539C128.082 77.6595 128.099 77.7977 128.069 77.9297C128.069 78.0277 128.049 78.0747 128.034 78.1728C126.195 79.7411 125.289 80.5253 123.497 82.1603C123.721 80.2391 123.838 79.2784 124.062 77.3611C124.068 77.2315 124.117 77.1078 124.203 77.0102C124.288 76.9126 124.405 76.8469 124.532 76.824C124.532 76.7456 124.532 76.7063 124.556 76.6279L122.019 76.2986C122.019 76.377 122.019 76.4162 121.995 76.4946C122.116 76.5469 122.214 76.639 122.274 76.7555C122.334 76.872 122.352 77.0056 122.325 77.1337C122.007 80.043 121.846 81.4977 121.541 84.4069C121.543 84.5357 121.5 84.6612 121.418 84.7606C121.336 84.8599 121.221 84.9264 121.094 84.948C121.094 85.0343 121.094 85.0774 121.07 85.1597C122.05 85.2813 122.54 85.3479 123.517 85.4813C123.517 85.395 123.536 85.3519 123.544 85.2656C123.428 85.2093 123.333 85.1161 123.275 85.0006C123.217 84.885 123.199 84.7536 123.223 84.6265C123.223 84.5402 123.223 84.4971 123.246 84.4148C125.018 82.7994 125.92 82.0034 127.747 80.4194C127.5 82.325 127.355 83.2738 127.116 85.1794C127.114 85.3094 127.066 85.4345 126.979 85.5317C126.893 85.6289 126.775 85.6917 126.646 85.7087C126.646 85.7949 126.646 85.8341 126.618 85.9204C127.602 86.0655 128.092 86.1439 129.076 86.3125C129.083 86.2427 129.094 86.1733 129.108 86.1047C128.99 86.0476 128.894 85.9522 128.837 85.834C128.78 85.7158 128.765 85.5818 128.794 85.4538C129.186 82.5563 129.406 81.1056 129.806 78.208C129.814 78.0778 129.866 77.9542 129.955 77.8584C130.044 77.7627 130.163 77.7005 130.292 77.6826C130.292 77.6081 130.312 77.5689 130.323 77.4866C129.284 77.3062 128.771 77.2317 127.755 77.0788V77.071Z" fill="white"/>
</g>
<defs>
<linearGradient id="paint0_linear_308_4307" x1="56.2292" y1="29.1562" x2="119.178" y2="90.9044" gradientUnits="userSpaceOnUse">
<stop stop-color="#B7812F"/>
<stop offset="0.01" stop-color="#B7812F"/>
<stop offset="0.05" stop-color="#E5D18D"/>
<stop offset="0.07" stop-color="#F5EEAF"/>
<stop offset="0.17" stop-color="#BA882E"/>
<stop offset="0.42" stop-color="#F5EEAF"/>
<stop offset="0.64" stop-color="#F5EEAF"/>
<stop offset="0.85" stop-color="#BA882E"/>
<stop offset="0.93" stop-color="#F5EEAF"/>
<stop offset="1" stop-color="#BA882E"/>
</linearGradient>
<linearGradient id="paint1_linear_308_4307" x1="1858.95" y1="1675.37" x2="2191.07" y2="1672.18" gradientUnits="userSpaceOnUse">
<stop stop-color="#B7812F"/>
<stop offset="0.01" stop-color="#B7812F"/>
<stop offset="0.05" stop-color="#E5D18D"/>
<stop offset="0.07" stop-color="#F5EEAF"/>
<stop offset="0.17" stop-color="#BA882E"/>
<stop offset="0.42" stop-color="#F5EEAF"/>
<stop offset="0.64" stop-color="#F5EEAF"/>
<stop offset="0.85" stop-color="#BA882E"/>
<stop offset="0.93" stop-color="#F5EEAF"/>
<stop offset="1" stop-color="#BA882E"/>
</linearGradient>
<linearGradient id="paint2_linear_308_4307" x1="4232" y1="2209.41" x2="4555.05" y2="2206.31" gradientUnits="userSpaceOnUse">
<stop stop-color="#B7812F"/>
<stop offset="0.01" stop-color="#B7812F"/>
<stop offset="0.05" stop-color="#E5D18D"/>
<stop offset="0.07" stop-color="#F5EEAF"/>
<stop offset="0.17" stop-color="#BA882E"/>
<stop offset="0.42" stop-color="#F5EEAF"/>
<stop offset="0.64" stop-color="#F5EEAF"/>
<stop offset="0.85" stop-color="#BA882E"/>
<stop offset="0.93" stop-color="#F5EEAF"/>
<stop offset="1" stop-color="#BA882E"/>
</linearGradient>
<linearGradient id="paint3_linear_308_4307" x1="4658.06" y1="1685.99" x2="5020.27" y2="1682.52" gradientUnits="userSpaceOnUse">
<stop stop-color="#B7812F"/>
<stop offset="0.01" stop-color="#B7812F"/>
<stop offset="0.05" stop-color="#E5D18D"/>
<stop offset="0.07" stop-color="#F5EEAF"/>
<stop offset="0.17" stop-color="#BA882E"/>
<stop offset="0.42" stop-color="#F5EEAF"/>
<stop offset="0.64" stop-color="#F5EEAF"/>
<stop offset="0.85" stop-color="#BA882E"/>
<stop offset="0.93" stop-color="#F5EEAF"/>
<stop offset="1" stop-color="#BA882E"/>
</linearGradient>
<linearGradient id="paint4_linear_308_4307" x1="1765.53" y1="2014.27" x2="2137.95" y2="2010.7" gradientUnits="userSpaceOnUse">
<stop stop-color="#B7812F"/>
<stop offset="0.01" stop-color="#B7812F"/>
<stop offset="0.05" stop-color="#E5D18D"/>
<stop offset="0.07" stop-color="#F5EEAF"/>
<stop offset="0.17" stop-color="#BA882E"/>
<stop offset="0.42" stop-color="#F5EEAF"/>
<stop offset="0.64" stop-color="#F5EEAF"/>
<stop offset="0.85" stop-color="#BA882E"/>
<stop offset="0.93" stop-color="#F5EEAF"/>
<stop offset="1" stop-color="#BA882E"/>
</linearGradient>
<linearGradient id="paint5_linear_308_4307" x1="3049.58" y1="1337.16" x2="3184.93" y2="1335.86" gradientUnits="userSpaceOnUse">
<stop stop-color="#B7812F"/>
<stop offset="0.01" stop-color="#B7812F"/>
<stop offset="0.05" stop-color="#E5D18D"/>
<stop offset="0.07" stop-color="#F5EEAF"/>
<stop offset="0.17" stop-color="#BA882E"/>
<stop offset="0.42" stop-color="#F5EEAF"/>
<stop offset="0.64" stop-color="#F5EEAF"/>
<stop offset="0.85" stop-color="#BA882E"/>
<stop offset="0.93" stop-color="#F5EEAF"/>
<stop offset="1" stop-color="#BA882E"/>
</linearGradient>
<linearGradient id="paint6_linear_308_4307" x1="2578.89" y1="3051.8" x2="3492.41" y2="3043.03" gradientUnits="userSpaceOnUse">
<stop stop-color="#B7812F"/>
<stop offset="0.01" stop-color="#B7812F"/>
<stop offset="0.05" stop-color="#E5D18D"/>
<stop offset="0.07" stop-color="#F5EEAF"/>
<stop offset="0.17" stop-color="#BA882E"/>
<stop offset="0.42" stop-color="#F5EEAF"/>
<stop offset="0.64" stop-color="#F5EEAF"/>
<stop offset="0.85" stop-color="#BA882E"/>
<stop offset="0.93" stop-color="#F5EEAF"/>
<stop offset="1" stop-color="#BA882E"/>
</linearGradient>
<linearGradient id="paint7_linear_308_4307" x1="37.9288" y1="81.3171" x2="137.415" y2="80.3486" gradientUnits="userSpaceOnUse">
<stop stop-color="#DF2922"/>
<stop offset="0.12" stop-color="#E22929"/>
<stop offset="0.35" stop-color="#DA2728"/>
<stop offset="0.68" stop-color="#C62324"/>
<stop offset="0.8" stop-color="#BD2123"/>
<stop offset="0.88" stop-color="#BF2323"/>
<stop offset="0.92" stop-color="#C42C23"/>
<stop offset="0.96" stop-color="#CD3A22"/>
<stop offset="0.99" stop-color="#DB5021"/>
<stop offset="1" stop-color="#DB5021"/>
</linearGradient>
<linearGradient id="paint8_linear_308_4307" x1="15035.9" y1="3722.2" x2="40026.8" y2="3482.29" gradientUnits="userSpaceOnUse">
<stop stop-color="#B7812F"/>
<stop offset="0.01" stop-color="#B7812F"/>
<stop offset="0.05" stop-color="#E5D18D"/>
<stop offset="0.07" stop-color="#F5EEAF"/>
<stop offset="0.17" stop-color="#BA882E"/>
<stop offset="0.42" stop-color="#F5EEAF"/>
<stop offset="0.64" stop-color="#F5EEAF"/>
<stop offset="0.85" stop-color="#BA882E"/>
<stop offset="0.93" stop-color="#F5EEAF"/>
<stop offset="1" stop-color="#BA882E"/>
</linearGradient>
<linearGradient id="paint9_linear_308_4307" x1="14810.5" y1="3668.96" x2="36585.3" y2="3459.93" gradientUnits="userSpaceOnUse">
<stop stop-color="#B7812F"/>
<stop offset="0.01" stop-color="#B7812F"/>
<stop offset="0.05" stop-color="#E5D18D"/>
<stop offset="0.07" stop-color="#F5EEAF"/>
<stop offset="0.17" stop-color="#BA882E"/>
<stop offset="0.42" stop-color="#F5EEAF"/>
<stop offset="0.64" stop-color="#F5EEAF"/>
<stop offset="0.85" stop-color="#BA882E"/>
<stop offset="0.93" stop-color="#F5EEAF"/>
<stop offset="1" stop-color="#BA882E"/>
</linearGradient>
<clipPath id="clip0_308_4307">
<rect width="113.411" height="88" fill="white" transform="translate(31 16)"/>
</clipPath>
</defs>
</svg>
