<svg width="64" height="64" viewBox="0 0 64 64" fill="none" xmlns="http://www.w3.org/2000/svg">
    <path d="M31.9977 64C24.5926 64.0012 17.4162 61.4347 11.6913 56.7378C5.96641 52.0409 2.04726 45.5042 0.60168 38.2415C-0.843904 30.9789 0.273524 23.4397 3.76356 16.9086C7.25359 10.3775 12.9003 5.25863 19.7415 2.4242C26.5826 -0.41023 34.195 -0.784819 41.2814 1.36426C48.3678 3.51334 54.4897 8.05311 58.6041 14.21C62.7185 20.3669 64.5707 27.76 63.8452 35.1294C63.1196 42.4989 59.8612 49.3888 54.625 54.6251C51.6615 57.6073 48.1354 59.9716 44.2512 61.5809C40.367 63.1902 36.2021 64.0124 31.9977 64ZM31.9977 1.86349C26.0377 1.86349 20.2116 3.63083 15.256 6.94203C10.3005 10.2532 6.43807 14.9596 4.15727 20.4659C1.87648 25.9722 1.27972 32.0312 2.44246 37.8767C3.6052 43.7222 6.47521 49.0916 10.6896 53.306C14.9039 57.5203 20.2733 60.3904 26.1188 61.5531C31.9643 62.7158 38.0233 62.1191 43.5297 59.8383C49.036 57.5575 53.7423 53.6951 57.0535 48.7395C60.3647 43.784 62.1321 37.9578 62.1321 31.9978C62.1239 24.0082 58.9464 16.3482 53.2969 10.6987C47.6474 5.04918 39.9873 1.87169 31.9977 1.86349ZM31.9977 57.936C25.9974 57.9322 20.184 55.8482 15.5478 52.039C10.9117 48.2298 7.73956 42.9311 6.57187 37.0455C5.40419 31.1599 6.31317 25.0515 9.14396 19.7609C11.9748 14.4703 16.5523 10.3247 22.0967 8.0305C27.6411 5.73626 33.8094 5.43524 39.5508 7.17871C45.2923 8.92218 50.2517 12.6023 53.5842 17.5921C56.9167 22.5819 58.4161 28.5728 57.827 34.5442C57.238 40.5155 54.5969 46.0979 50.3537 50.3404C47.9493 52.7588 45.0886 54.6755 41.9376 55.9794C38.7865 57.2833 35.4079 57.9483 31.9977 57.936ZM31.9977 7.91868C27.236 7.91868 22.5813 9.33075 18.6221 11.9763C14.6629 14.6219 11.5772 18.3821 9.75521 22.7814C7.93318 27.1807 7.45668 32.0216 8.38597 36.6917C9.31525 41.3619 11.6086 45.6516 14.9759 49.0183C18.3433 52.3851 22.6334 54.6776 27.3037 55.606C31.974 56.5345 36.8148 56.0571 41.2138 54.2342C45.6128 52.4114 49.3724 49.325 52.0173 45.3653C54.6621 41.4057 56.0733 36.7507 56.0724 31.9889C56.0631 25.608 53.5232 19.4914 49.01 14.9806C44.4967 10.4699 38.3787 7.93339 31.9977 7.92753V7.91868ZM31.9977 52.1818C28.0084 52.1818 24.1086 50.9988 20.7915 48.7824C17.4745 46.566 14.8891 43.4158 13.3625 39.7301C11.8358 36.0444 11.4363 31.9887 12.2146 28.076C12.9929 24.1632 14.914 20.5692 17.7349 17.7482C20.5558 14.9273 24.1499 13.0063 28.0626 12.228C31.9754 11.4497 36.031 11.8491 39.7167 13.3758C43.4025 14.9025 46.5527 17.4878 48.7691 20.8048C50.9854 24.1219 52.1684 28.0217 52.1684 32.0111C52.1591 37.3566 50.0305 42.4803 46.2494 46.2589C42.4683 50.0375 37.3433 52.1626 31.9977 52.1685V52.1818ZM31.9977 13.7083C28.3767 13.7083 24.837 14.7821 21.8263 16.7939C18.8156 18.8057 16.4692 21.6652 15.0837 25.0107C13.6982 28.3561 13.3359 32.0373 14.0426 35.5887C14.7494 39.1401 16.4934 42.4021 19.0542 44.9622C21.6149 47.5224 24.8774 49.2656 28.4289 49.9715C31.9804 50.6774 35.6616 50.3142 39.0067 48.9279C42.3518 47.5416 45.2107 45.1944 47.2218 42.1832C49.2329 39.172 50.3058 35.6321 50.305 32.0111C50.3026 27.1556 48.3734 22.4995 44.9409 19.0654C41.5083 15.6312 36.8532 13.6997 31.9977 13.695V13.7083Z" fill="#1D3C34"/>
</svg>
