<svg width="18" height="18" viewBox="0 0 18 18" fill="none" xmlns="http://www.w3.org/2000/svg">
<path d="M8.99984 6.49935C8.3368 6.49935 7.70091 6.76274 7.23207 7.23158C6.76323 7.70042 6.49984 8.33631 6.49984 8.99935C6.49984 9.66239 6.76323 10.2983 7.23207 10.7671C7.70091 11.236 8.3368 11.4993 8.99984 11.4993C9.66288 11.4993 10.2988 11.236 10.7676 10.7671C11.2364 10.2983 11.4998 9.66239 11.4998 8.99935C11.4998 8.33631 11.2364 7.70042 10.7676 7.23158C10.2988 6.76274 9.66288 6.49935 8.99984 6.49935ZM8.99984 4.83268C10.1049 4.83268 11.1647 5.27167 11.9461 6.05307C12.7275 6.83447 13.1665 7.89428 13.1665 8.99935C13.1665 10.1044 12.7275 11.1642 11.9461 11.9456C11.1647 12.727 10.1049 13.166 8.99984 13.166C7.89477 13.166 6.83496 12.727 6.05356 11.9456C5.27216 11.1642 4.83317 10.1044 4.83317 8.99935C4.83317 7.89428 5.27216 6.83447 6.05356 6.05307C6.83496 5.27167 7.89477 4.83268 8.99984 4.83268ZM14.4165 4.62435C14.4165 4.90062 14.3068 5.16557 14.1114 5.36092C13.9161 5.55627 13.6511 5.66602 13.3748 5.66602C13.0986 5.66602 12.8336 5.55627 12.6383 5.36092C12.4429 5.16557 12.3332 4.90062 12.3332 4.62435C12.3332 4.34808 12.4429 4.08313 12.6383 3.88778C12.8336 3.69243 13.0986 3.58268 13.3748 3.58268C13.6511 3.58268 13.9161 3.69243 14.1114 3.88778C14.3068 4.08313 14.4165 4.34808 14.4165 4.62435ZM8.99984 2.33268C6.93817 2.33268 6.6015 2.33852 5.64234 2.38102C4.989 2.41185 4.55067 2.49935 4.144 2.65768C3.78234 2.79768 3.5215 2.96518 3.244 3.24352C2.98318 3.49551 2.78263 3.80317 2.65734 4.14352C2.499 4.55185 2.4115 4.98935 2.3815 5.64185C2.33817 6.56185 2.33317 6.88352 2.33317 8.99935C2.33317 11.061 2.339 11.3977 2.3815 12.3568C2.41234 13.0093 2.49984 13.4485 2.65734 13.8544C2.799 14.2168 2.96567 14.4777 3.24234 14.7543C3.52317 15.0343 3.784 15.2018 4.14234 15.3402C4.554 15.4993 4.99234 15.5877 5.64234 15.6177C6.56234 15.661 6.884 15.666 8.99984 15.666C11.0615 15.666 11.3982 15.6602 12.3573 15.6177C13.009 15.5868 13.4482 15.4993 13.8548 15.3418C14.2157 15.201 14.4782 15.0335 14.7548 14.7569C15.0357 14.476 15.2032 14.2152 15.3415 13.8568C15.4998 13.446 15.5882 13.0068 15.6182 12.3568C15.6615 11.4368 15.6665 11.1152 15.6665 8.99935C15.6665 6.93768 15.6607 6.60102 15.6182 5.64185C15.5873 4.99018 15.4998 4.55018 15.3415 4.14352C15.2159 3.80352 15.0157 3.49598 14.7557 3.24352C14.5038 2.98255 14.1961 2.78199 13.8557 2.65685C13.4473 2.49852 13.009 2.41102 12.3573 2.38102C11.4373 2.33768 11.1157 2.33268 8.99984 2.33268ZM8.99984 0.666016C11.264 0.666016 11.5465 0.674349 12.4348 0.716016C13.3223 0.757682 13.9265 0.896849 14.4582 1.10352C15.0082 1.31518 15.4715 1.60185 15.9348 2.06435C16.3586 2.48093 16.6865 2.98484 16.8957 3.54102C17.1015 4.07185 17.2415 4.67685 17.2832 5.56435C17.3223 6.45268 17.3332 6.73518 17.3332 8.99935C17.3332 11.2635 17.3248 11.546 17.2832 12.4343C17.2415 13.3218 17.1015 13.926 16.8957 14.4577C16.6871 15.0142 16.3591 15.5182 15.9348 15.9344C15.5181 16.3579 15.0143 16.6858 14.4582 16.8952C13.9273 17.101 13.3223 17.241 12.4348 17.2827C11.5465 17.3218 11.264 17.3327 8.99984 17.3327C6.73567 17.3327 6.45317 17.3244 5.56484 17.2827C4.67734 17.241 4.07317 17.101 3.5415 16.8952C2.98511 16.6864 2.48111 16.3585 2.06484 15.9344C1.64101 15.5178 1.31311 15.0139 1.104 14.4577C0.897337 13.9268 0.758171 13.3218 0.716504 12.4343C0.677337 11.546 0.666504 11.2635 0.666504 8.99935C0.666504 6.73518 0.674837 6.45268 0.716504 5.56435C0.758171 4.67602 0.897337 4.07268 1.104 3.54102C1.31253 2.9845 1.64051 2.48045 2.06484 2.06435C2.48123 1.64037 2.98519 1.31246 3.5415 1.10352C4.07317 0.896849 4.6765 0.757682 5.56484 0.716016C6.45317 0.676849 6.73567 0.666016 8.99984 0.666016Z" fill="white"/>
</svg>
