<svg width="102" height="128" viewBox="0 0 102 128" fill="none" xmlns="http://www.w3.org/2000/svg">
<path d="M0 112.784L1.85657 110.772C2.37728 111.406 3.02471 111.926 3.75821 112.3C4.49172 112.675 5.29547 112.895 6.11901 112.947C6.73981 112.972 7.35443 112.817 7.8877 112.501C8.10176 112.373 8.27755 112.19 8.3972 111.972C8.51684 111.755 8.57605 111.509 8.56881 111.262C8.57439 111.07 8.53458 110.88 8.45255 110.706C8.37052 110.532 8.24856 110.38 8.09643 110.261C7.58292 109.897 7.02101 109.604 6.42661 109.392L4.88862 108.75C3.76499 108.344 2.73699 107.715 1.86756 106.902C1.23032 106.212 0.891203 105.303 0.922795 104.369C0.90252 103.761 1.0284 103.157 1.29006 102.607C1.55173 102.057 1.94169 101.576 2.42783 101.205C3.53547 100.388 4.893 99.9739 6.27281 100.031C7.27137 99.9937 8.26514 100.184 9.17748 100.588C10.0898 100.991 10.8964 101.597 11.5349 102.357L9.76624 104.347C9.32164 103.846 8.77426 103.444 8.16054 103.168C7.54682 102.893 6.88083 102.75 6.2069 102.749C4.8227 102.749 4.1306 103.227 4.1306 104.184C4.12713 104.362 4.16491 104.54 4.24106 104.702C4.31721 104.864 4.42972 105.006 4.57003 105.119C5.04482 105.48 5.57528 105.762 6.14098 105.956L7.59109 106.543C8.77206 106.971 9.85236 107.634 10.7659 108.489C11.4236 109.191 11.7749 110.121 11.7437 111.077C11.7721 111.729 11.64 112.379 11.3587 112.97C11.0774 113.561 10.6553 114.075 10.1288 114.469C8.95897 115.297 7.54501 115.717 6.10802 115.665C4.93049 115.709 3.75977 115.469 2.69605 114.968C1.63232 114.466 0.707256 113.717 0 112.784Z" fill="#1D3C34"/>
<path d="M14.6436 109.052V100.354H17.8624V109.269C17.8426 109.725 17.9172 110.18 18.0816 110.606C18.2459 111.033 18.4966 111.421 18.8181 111.748C19.1406 112.068 19.5269 112.319 19.9524 112.484C20.3779 112.648 20.8334 112.724 21.2899 112.705C21.7344 112.72 22.1772 112.642 22.5897 112.477C23.0021 112.313 23.3752 112.064 23.6847 111.748C24.0043 111.42 24.2529 111.031 24.4154 110.605C24.5778 110.179 24.6507 109.724 24.6295 109.269V100.332H27.9252V109.03C27.9621 109.916 27.8144 110.799 27.4912 111.626C27.168 112.453 26.6763 113.205 26.0467 113.836C25.4279 114.442 24.691 114.917 23.8809 115.233C23.0707 115.549 22.2042 115.699 21.3338 115.673C20.4493 115.704 19.5679 115.553 18.7458 115.229C17.9236 114.905 17.1787 114.414 16.5586 113.789C15.9385 113.164 15.4567 112.418 15.144 111.599C14.8313 110.78 14.6945 109.905 14.7424 109.03L14.6436 109.052Z" fill="#1D3C34"/>
<path d="M54.6595 105.96V115.31H51.3638V106.373C51.4461 105.443 51.1672 104.518 50.5838 103.785C50.2928 103.47 49.9353 103.222 49.5366 103.058C49.138 102.895 48.7079 102.82 48.2768 102.839C47.8324 102.823 47.3892 102.897 46.9752 103.058C46.5613 103.219 46.1853 103.463 45.871 103.774C45.5587 104.091 45.3149 104.468 45.1544 104.881C44.9939 105.294 44.92 105.735 44.9372 106.177V115.31H41.6415V106.373C41.6812 105.454 41.3716 104.554 40.7736 103.85C40.4873 103.536 40.1359 103.288 39.7435 103.121C39.351 102.954 38.9267 102.872 38.4996 102.883C38.0507 102.868 37.6037 102.946 37.1874 103.113C36.771 103.279 36.3947 103.531 36.0827 103.85C35.45 104.537 35.1182 105.444 35.16 106.373V115.31H31.9082V100.284H34.9402V101.687C35.5092 101.109 36.1942 100.656 36.9511 100.356C37.708 100.056 38.5199 99.9172 39.3345 99.9472C40.2465 99.8851 41.1582 100.072 41.97 100.488C42.7818 100.905 43.4624 101.533 43.9375 102.306C44.5374 101.531 45.3188 100.911 46.2143 100.5C47.1099 100.089 48.0928 99.8991 49.0788 99.9472C49.837 99.9214 50.592 100.056 51.2931 100.343C51.9941 100.63 52.6251 101.062 53.1434 101.611C54.1939 102.814 54.7367 104.371 54.6595 105.96Z" fill="#1D3C34"/>
<path d="M81.3482 106.006V115.357H78.0525V106.42C78.117 105.485 77.8227 104.561 77.2286 103.832C76.9376 103.517 76.5801 103.268 76.1814 103.105C75.7828 102.942 75.3527 102.867 74.9216 102.886C74.475 102.873 74.0304 102.951 73.615 103.113C73.1995 103.276 72.8218 103.52 72.5047 103.832C72.1945 104.15 71.9527 104.527 71.7941 104.94C71.6355 105.353 71.5633 105.793 71.5819 106.235V115.357H68.2863V106.42C68.3301 105.502 68.0243 104.602 67.4294 103.897C67.1383 103.578 66.7797 103.325 66.3792 103.158C65.9786 102.991 65.5458 102.913 65.1114 102.93C64.6625 102.914 64.2152 102.992 63.7988 103.158C63.3823 103.325 63.0061 103.577 62.6946 103.897C62.0618 104.584 61.73 105.491 61.7718 106.42V115.357H58.4761V100.331H61.5081V101.734C62.0767 101.155 62.7616 100.702 63.5186 100.402C64.2756 100.102 65.0877 99.9634 65.9024 99.994C66.8144 99.932 67.7261 100.119 68.5379 100.535C69.3497 100.951 70.0303 101.58 70.5054 102.353C71.103 101.578 71.8823 100.958 72.7761 100.547C73.6699 100.136 74.6513 99.9459 75.6356 99.994C76.4005 99.9562 77.1645 100.082 77.8756 100.364C78.5866 100.645 79.2278 101.075 79.7553 101.625C80.8375 102.827 81.4083 104.397 81.3482 106.006Z" fill="#1D3C34"/>
<path d="M88.4788 100.332H85.2271V115.358H88.4788V100.332Z" fill="#1D3C34"/>
<path d="M101.518 112.63V115.359C100.634 115.557 99.7329 115.67 98.8269 115.696C97.332 115.786 95.8575 115.317 94.6963 114.38C94.1813 113.869 93.7834 113.253 93.5294 112.576C93.2755 111.899 93.1714 111.176 93.2242 110.456V103.117H90.7524V100.333H93.2242V96.3867H96.5199V100.333H101.068V103.117H96.5529V110.184C96.5147 110.55 96.56 110.919 96.6855 111.266C96.811 111.612 97.0135 111.926 97.2779 112.184C97.9433 112.638 98.7469 112.849 99.5519 112.782C99.8595 112.782 100.53 112.739 101.518 112.63Z" fill="#1D3C34"/>
<path d="M88.413 93.2098C87.9993 92.8095 87.4427 92.5868 86.8641 92.5901C86.5738 92.5856 86.2856 92.638 86.0159 92.7444C85.7463 92.8508 85.5006 93.009 85.2931 93.2098C85.0835 93.4045 84.9175 93.6406 84.8058 93.9028C84.6942 94.165 84.6394 94.4475 84.645 94.732C84.639 95.0133 84.6937 95.2926 84.8055 95.5514C84.9173 95.8101 85.0835 96.0423 85.2931 96.2324C85.5015 96.4313 85.7476 96.5875 86.0172 96.692C86.2868 96.7964 86.5746 96.8472 86.8641 96.8412C87.4411 96.8475 87.9975 96.6288 88.413 96.2324C88.6205 96.0405 88.7852 95.8081 88.8968 95.5497C89.0084 95.2914 89.0644 95.0129 89.0612 94.732C89.0648 94.4478 89.0091 94.1659 88.8975 93.904C88.786 93.6421 88.6211 93.4058 88.413 93.2098ZM87.9516 95.7757C87.6555 96.0549 87.2621 96.2106 86.8531 96.2106C86.4441 96.2106 86.0507 96.0549 85.7545 95.7757C85.6007 95.6399 85.4794 95.4718 85.3996 95.2837C85.3197 95.0956 85.2834 94.8923 85.2931 94.6885C85.2878 94.4852 85.3262 94.2832 85.4058 94.0958C85.4853 93.9084 85.6042 93.7398 85.7545 93.6012C86.0467 93.3144 86.4415 93.1535 86.8531 93.1535C87.2646 93.1535 87.6595 93.3144 87.9516 93.6012C88.102 93.7398 88.2208 93.9084 88.3004 94.0958C88.3799 94.2832 88.4183 94.4852 88.413 94.6885C88.4228 94.8923 88.3864 95.0956 88.3066 95.2837C88.2268 95.4718 88.1055 95.6399 87.9516 95.7757Z" fill="#1D3C34"/>
<path d="M17.325 126.455C17.3273 126.6 17.3003 126.744 17.2456 126.878C17.1909 127.013 17.1096 127.135 17.0064 127.238C16.7656 127.442 16.4551 127.547 16.1386 127.531H14.6226V123.759H15.9189C16.1906 123.748 16.4567 123.837 16.6659 124.009C16.7581 124.095 16.8303 124.2 16.8778 124.316C16.9252 124.432 16.9466 124.558 16.9405 124.683C16.9481 124.838 16.9108 124.992 16.8329 125.127C16.7551 125.262 16.64 125.372 16.5011 125.444C16.7368 125.495 16.9492 125.621 17.1053 125.803C17.2479 125.991 17.325 126.22 17.325 126.455ZM15.8859 124.02H14.9192V125.357H15.8859C15.9852 125.363 16.0849 125.35 16.1791 125.319C16.2734 125.287 16.3604 125.237 16.4352 125.172C16.5018 125.11 16.554 125.033 16.5882 124.949C16.6223 124.864 16.6376 124.774 16.6329 124.683C16.6369 124.593 16.6224 124.503 16.5903 124.419C16.5582 124.335 16.5092 124.258 16.4462 124.194C16.2884 124.068 16.0882 124.005 15.8859 124.02ZM16.7757 127.042C16.9295 126.882 17.0153 126.67 17.0153 126.45C17.0153 126.229 16.9295 126.017 16.7757 125.857C16.5914 125.697 16.3506 125.615 16.1056 125.629H14.9192V127.27H16.1056C16.3506 127.285 16.5914 127.202 16.7757 127.042Z" fill="#1D3C34"/>
<path d="M19.842 126.067V123.762H20.1496V126.088C20.129 126.417 20.2395 126.741 20.4572 126.991C20.5703 127.1 20.7045 127.185 20.8518 127.241C20.9991 127.297 21.1564 127.323 21.3141 127.317C21.4704 127.325 21.6268 127.301 21.7727 127.244C21.9186 127.188 22.0506 127.102 22.16 126.991C22.3817 126.743 22.4961 126.419 22.4786 126.088V123.762H22.7752V126.067C22.7905 126.466 22.6488 126.856 22.3797 127.154C22.2367 127.296 22.0648 127.406 21.8753 127.477C21.6859 127.549 21.4834 127.579 21.2811 127.567C21.079 127.578 20.8769 127.547 20.6877 127.476C20.4985 127.404 20.3264 127.295 20.1826 127.154C19.9333 126.848 19.8115 126.459 19.842 126.067Z" fill="#1D3C34"/>
<path d="M25.2681 126.794L25.4878 126.631C25.5964 126.828 25.7545 126.995 25.9468 127.115C26.1391 127.235 26.3593 127.304 26.5863 127.316C26.8121 127.328 27.0346 127.258 27.2125 127.12C27.3486 127.002 27.4337 126.837 27.4501 126.659C27.4664 126.481 27.4128 126.303 27.3004 126.163C27.1335 126.024 26.9488 125.907 26.7511 125.815L26.3666 125.576C26.1374 125.487 25.9283 125.354 25.7514 125.185C25.6042 125.024 25.5255 124.814 25.5317 124.598C25.5261 124.468 25.5521 124.339 25.6075 124.222C25.663 124.105 25.7463 124.002 25.8503 123.924C26.0744 123.748 26.3557 123.659 26.6413 123.673C26.8669 123.668 27.0901 123.721 27.2894 123.826C27.4861 123.935 27.6551 124.088 27.7838 124.271L27.5531 124.435C27.4536 124.285 27.3183 124.162 27.1592 124.077C27.0001 123.991 26.8222 123.946 26.6413 123.945C26.4417 123.939 26.2453 123.996 26.081 124.108C26.0025 124.161 25.9389 124.232 25.8966 124.316C25.8543 124.4 25.8345 124.493 25.8393 124.587C25.8388 124.738 25.8934 124.885 25.9931 125C26.1508 125.132 26.3288 125.238 26.5204 125.315L26.9489 125.522C27.1981 125.628 27.4254 125.779 27.619 125.968C27.7585 126.132 27.8327 126.34 27.8277 126.555C27.8299 126.694 27.8005 126.831 27.7415 126.957C27.6826 127.083 27.5956 127.195 27.4872 127.283C27.2479 127.473 26.9482 127.574 26.6413 127.566C26.3625 127.566 26.089 127.491 25.8503 127.348C25.6133 127.213 25.4134 127.023 25.2681 126.794Z" fill="#1D3C34"/>
<path d="M30.5088 127.534V123.762H30.7615V127.534H30.5088Z" fill="#1D3C34"/>
<path d="M36.3199 123.761H36.6165V127.599H36.4957L33.969 124.337V127.479H33.6724V123.652H33.7822L36.3199 126.914V123.761Z" fill="#1D3C34"/>
<path d="M39.4824 127.534V123.762H41.8773V124.034H39.79V125.36H41.4159V125.632H39.79V127.273H41.9872V127.534H39.4824Z" fill="#1D3C34"/>
<path d="M44.1733 126.796L44.404 126.633C44.5127 126.83 44.6707 126.997 44.8631 127.117C45.0554 127.237 45.2756 127.306 45.5026 127.318C45.728 127.327 45.9495 127.257 46.1288 127.122C46.206 127.058 46.2678 126.978 46.3096 126.888C46.3515 126.798 46.3723 126.699 46.3705 126.6C46.3706 126.442 46.3163 126.289 46.2167 126.165C46.0459 126.031 45.8619 125.914 45.6674 125.817L45.228 125.611C44.9942 125.524 44.7811 125.391 44.6018 125.219C44.4592 125.056 44.3812 124.848 44.3821 124.632C44.3791 124.503 44.4062 124.375 44.4615 124.258C44.5168 124.141 44.5986 124.038 44.7007 123.958C44.9266 123.786 45.2065 123.697 45.4916 123.708C45.7209 123.702 45.948 123.754 46.1508 123.86C46.3464 123.967 46.5124 124.12 46.6341 124.306L46.4144 124.469C46.3139 124.318 46.1768 124.194 46.0157 124.109C45.8545 124.023 45.6744 123.979 45.4916 123.98C45.292 123.973 45.0957 124.031 44.9314 124.143C44.8556 124.197 44.7948 124.269 44.7545 124.353C44.7142 124.437 44.6957 124.529 44.7007 124.621C44.6946 124.774 44.7499 124.922 44.8545 125.034C45.0097 125.164 45.1837 125.271 45.3708 125.35L45.7992 125.556C46.0523 125.656 46.2808 125.808 46.4693 126.002C46.6136 126.163 46.6885 126.374 46.6781 126.589C46.6828 126.728 46.6544 126.867 46.5953 126.993C46.5362 127.12 46.4479 127.231 46.3375 127.318C46.0992 127.51 45.7988 127.61 45.4916 127.6C45.2161 127.602 44.9457 127.527 44.7116 127.383C44.4876 127.232 44.303 127.031 44.1733 126.796Z" fill="#1D3C34"/>
<path d="M49.0962 126.796L49.3269 126.633C49.4355 126.83 49.5936 126.997 49.7859 127.117C49.9783 127.237 50.1984 127.306 50.4255 127.318C50.6509 127.327 50.8724 127.257 51.0516 127.122C51.1288 127.058 51.1907 126.978 51.2325 126.888C51.2743 126.798 51.2951 126.699 51.2933 126.6C51.2934 126.442 51.2392 126.289 51.1395 126.165C50.9688 126.031 50.7848 125.914 50.5902 125.817L50.1508 125.611C49.9184 125.522 49.7058 125.389 49.5246 125.219C49.3821 125.056 49.304 124.848 49.3049 124.632C49.3019 124.503 49.3291 124.375 49.3844 124.258C49.4396 124.141 49.5215 124.038 49.6235 123.958C49.8495 123.786 50.1294 123.697 50.4145 123.708C50.6438 123.702 50.8708 123.754 51.0736 123.86C51.2703 123.97 51.4393 124.122 51.568 124.306L51.3373 124.469C51.2367 124.318 51.0997 124.194 50.9385 124.109C50.7774 124.023 50.5973 123.979 50.4145 123.98C50.2149 123.973 50.0185 124.031 49.8542 124.143C49.7784 124.197 49.7176 124.269 49.6773 124.353C49.6371 124.437 49.6185 124.529 49.6235 124.621C49.6175 124.774 49.6728 124.922 49.7773 125.034C49.9325 125.164 50.1065 125.271 50.2936 125.35L50.7221 125.556C50.9767 125.659 51.2082 125.81 51.4032 126.002C51.5396 126.167 51.61 126.376 51.6009 126.589C51.6056 126.728 51.5773 126.867 51.5182 126.993C51.459 127.12 51.3707 127.231 51.2604 127.318C51.0221 127.51 50.7216 127.61 50.4145 127.6C50.139 127.602 49.8686 127.527 49.6345 127.383C49.4104 127.232 49.2259 127.031 49.0962 126.796Z" fill="#1D3C34"/>
<path d="M57.4456 125.653C57.4412 125.397 57.4886 125.143 57.5852 124.906C57.6818 124.669 57.8255 124.453 58.0078 124.271C58.1901 124.09 58.4073 123.946 58.6467 123.85C58.886 123.753 59.1425 123.704 59.401 123.707C59.7054 123.703 60.0064 123.77 60.2799 123.903C60.5454 124.036 60.775 124.23 60.95 124.468L60.7193 124.642C60.5771 124.454 60.3951 124.298 60.1859 124.186C59.9767 124.074 59.7454 124.008 59.5081 123.994C59.2707 123.979 59.0331 124.016 58.8116 124.102C58.5901 124.188 58.3901 124.32 58.2256 124.49C58.0695 124.645 57.947 124.831 57.8658 125.034C57.7846 125.238 57.7463 125.456 57.7532 125.675C57.745 125.894 57.7827 126.113 57.864 126.317C57.9453 126.521 58.0684 126.706 58.2256 126.86C58.3906 127.029 58.5909 127.159 58.8124 127.243C59.034 127.327 59.2713 127.362 59.5079 127.345C59.7444 127.329 59.9745 127.261 60.1818 127.147C60.3892 127.033 60.5689 126.876 60.7083 126.686L60.939 126.86C60.7641 127.099 60.5344 127.292 60.2689 127.426C59.9962 127.561 59.6953 127.632 59.39 127.632C59.1323 127.632 58.8771 127.582 58.6392 127.484C58.4012 127.386 58.1852 127.242 58.0034 127.061C57.8217 126.881 57.6779 126.666 57.5803 126.43C57.4827 126.194 57.4332 125.941 57.4346 125.686L57.4456 125.653Z" fill="#1D3C34"/>
<path d="M63.5654 127.534V123.762H65.9164V124.034H63.8291V125.36H65.455V125.632H63.8291V127.273H66.0262V127.534H63.5654Z" fill="#1D3C34"/>
<path d="M71.1986 123.761H71.4952V127.599H71.4073L68.8806 124.337V127.479H68.584V123.652H68.6938L71.2315 126.914L71.1986 123.761Z" fill="#1D3C34"/>
<path d="M75.3415 127.534V124.034H73.9463V123.762H77.0333V124.034H75.6381V127.534H75.3415Z" fill="#1D3C34"/>
<path d="M79.4717 127.534V123.762H81.8665V124.034H79.7793V125.36H81.4051V125.632H79.7793V127.273H81.9764V127.534H79.4717Z" fill="#1D3C34"/>
<path d="M87.3372 127.536H86.9857L85.6894 125.84H84.7556V127.536H84.459V123.763H85.7553C85.9071 123.755 86.0591 123.777 86.2024 123.828C86.3456 123.878 86.4774 123.956 86.5902 124.057C86.6937 124.15 86.7757 124.265 86.8307 124.392C86.8857 124.52 86.9123 124.658 86.9088 124.796C86.9192 125.043 86.8359 125.285 86.6753 125.474C86.5147 125.663 86.2884 125.786 86.0409 125.818L87.3372 127.536ZM84.7666 124.035V125.579H85.7553C85.9845 125.589 86.2089 125.511 86.3815 125.362C86.458 125.291 86.5183 125.205 86.5581 125.109C86.598 125.014 86.6164 124.91 86.6122 124.807C86.6173 124.702 86.5993 124.597 86.5595 124.499C86.5196 124.402 86.4589 124.314 86.3815 124.242C86.2078 124.095 85.9832 124.021 85.7553 124.035H84.7666Z" fill="#1D3C34"/>
<path d="M55.7157 71.7711C73.1673 69.2445 86.5743 54.2242 86.5743 36.0726C86.5743 16.1502 70.4241 0 50.5018 0C30.5794 0 14.4292 16.1502 14.4292 36.0726C14.4292 54.5963 28.3915 69.859 46.3661 71.9106L51.0171 85.5435L55.7157 71.7711Z" fill="#1D3C34"/>
<g clip-path="url(#clip0_380_3213)">
<path d="M50.4998 59.7759C45.0142 59.7768 39.6981 57.8756 35.4573 54.3962C31.2164 50.9169 28.3132 46.0747 27.2423 40.6947C26.1715 35.3147 26.9992 29.7298 29.5846 24.8918C32.1699 20.0537 36.3528 16.2617 41.4206 14.1621C46.4884 12.0624 52.1274 11.7849 57.3768 13.3769C62.6263 14.9689 67.1613 18.3318 70.2091 22.8927C73.257 27.4536 74.629 32.9302 74.0916 38.3893C73.5541 43.8484 71.1403 48.9523 67.2615 52.8312C65.0662 55.0404 62.4541 56.7918 59.5768 57.9839C56.6995 59.176 53.6142 59.7851 50.4998 59.7759ZM50.4998 13.7467C46.0847 13.7467 41.7689 15.0559 38.0979 17.5088C34.4269 19.9616 31.5658 23.448 29.8762 27.5269C28.1867 31.6059 27.7446 36.0942 28.6059 40.4244C29.4673 44.7546 31.5933 48.7322 34.7152 51.854C37.8371 54.9759 41.8146 57.102 46.1448 57.9633C50.475 58.8246 54.9634 58.3826 59.0423 56.693C63.1213 55.0035 66.6076 52.1423 69.0605 48.4713C71.5133 44.8004 72.8225 40.4845 72.8225 36.0695C72.8165 30.151 70.4626 24.4766 66.2776 20.2916C62.0926 16.1066 56.4183 13.7528 50.4998 13.7467V13.7467ZM50.4998 55.2838C46.0549 55.281 41.7484 53.7372 38.3141 50.9155C34.8797 48.0937 32.5299 44.1686 31.6649 39.8087C30.7999 35.4488 31.4733 30.9238 33.5702 27.0046C35.6672 23.0855 39.0581 20.0146 43.1653 18.3151C47.2724 16.6156 51.8418 16.3926 56.0949 17.6841C60.348 18.9756 64.0218 21.7017 66.4905 25.3981C68.9591 29.0944 70.0698 33.5323 69.6335 37.9557C69.1971 42.3792 67.2407 46.5145 64.0974 49.6572C62.3163 51.4487 60.1972 52.8686 57.863 53.8345C55.5287 54.8003 53.0259 55.293 50.4998 55.2838V55.2838ZM50.4998 18.2322C46.9724 18.2322 43.5243 19.2783 40.5914 21.238C37.6586 23.1978 35.3728 25.9833 34.023 29.2422C32.6733 32.5011 32.3203 36.0871 33.0087 39.5466C33.6971 43.0062 35.396 46.1839 37.8904 48.6779C40.3849 51.1718 43.5629 52.8701 47.0226 53.5579C50.4822 54.2456 54.0681 53.892 57.3268 52.5417C60.5855 51.1914 63.3705 48.905 65.3297 45.9718C67.289 43.0386 68.3344 39.5903 68.3337 36.0629C68.3268 31.3361 66.4453 26.805 63.102 23.4636C59.7587 20.1221 55.2266 18.2431 50.4998 18.2388V18.2322ZM50.4998 51.0213C47.5445 51.0213 44.6557 50.1449 42.1985 48.5031C39.7413 46.8612 37.8261 44.5276 36.6952 41.7973C35.5643 39.0671 35.2684 36.0627 35.8449 33.1643C36.4215 30.2658 37.8445 27.6034 39.9342 25.5137C42.0239 23.4241 44.6863 22.001 47.5847 21.4245C50.4832 20.8479 53.4875 21.1438 56.2178 22.2747C58.9481 23.4057 61.2817 25.3208 62.9235 27.778C64.5654 30.2352 65.4417 33.1241 65.4417 36.0793C65.4348 40.0391 63.858 43.8346 61.0571 46.6337C58.2561 49.4328 54.4596 51.0071 50.4998 51.0114V51.0213ZM50.4998 22.521C47.8174 22.521 45.1953 23.3165 42.965 24.8068C40.7348 26.2971 38.9966 28.4153 37.9702 30.8936C36.9439 33.3718 36.6755 36.0987 37.1991 38.7295C37.7226 41.3603 39.0145 43.7767 40.9115 45.6732C42.8084 47.5697 45.2252 48.861 47.8561 49.3839C50.487 49.9068 53.2138 49.6378 55.6918 48.6109C58.1698 47.5839 60.2876 45.8452 61.7774 43.6146C63.2671 41.384 64.062 38.7617 64.0613 36.0793C64.0596 32.4825 62.6304 29.0334 60.0877 26.4894C57.545 23.9455 54.0966 22.5147 50.4998 22.5112V22.521Z" fill="white"/>
</g>
<defs>
<clipPath id="clip0_380_3213">
<rect width="47.4096" height="47.4096" fill="white" transform="translate(26.7974 12.3691)"/>
</clipPath>
</defs>
</svg>
