<svg width="20" height="20" viewBox="0 0 20 20" fill="none" xmlns="http://www.w3.org/2000/svg">
<path fill-rule="evenodd" clip-rule="evenodd" d="M4.5266 9.89495C7.4418 8.62484 9.38573 7.78751 10.3584 7.38295C13.1355 6.22786 13.7125 6.0272 14.0887 6.02058C14.1714 6.01912 14.3563 6.03962 14.4762 6.13684C14.5773 6.21893 14.6052 6.32982 14.6185 6.40765C14.6318 6.48548 14.6484 6.66278 14.6352 6.80132C14.4847 8.38256 13.8335 12.2198 13.5022 13.9908C13.3621 14.7402 13.0861 14.9914 12.8188 15.016C12.2381 15.0695 11.7972 14.6323 11.2347 14.2636C10.3546 13.6866 9.85735 13.3275 9.00303 12.7645C8.01572 12.1139 8.65575 11.7563 9.21842 11.1719C9.36567 11.0189 11.9243 8.69163 11.9739 8.48051C11.98 8.45411 11.9858 8.35568 11.9273 8.30371C11.8689 8.25174 11.7826 8.26952 11.7203 8.28365C11.632 8.30368 10.226 9.23301 7.50222 11.0716C7.10313 11.3457 6.74164 11.4792 6.41776 11.4722C6.06071 11.4645 5.37388 11.2703 4.8633 11.1044C4.23705 10.9008 3.73932 10.7932 3.78266 10.4474C3.80524 10.2674 4.05321 10.0832 4.5266 9.89495Z" fill="#1D3C34"/>
</svg>
