<svg width="32" height="32" viewBox="0 0 32 32" fill="none" xmlns="http://www.w3.org/2000/svg">
<g clip-path="url(#clip0_647_3101)">
<path d="M15.9994 30C12.7596 30.0005 9.61993 28.8777 7.11529 26.8228C4.61064 24.7679 2.89601 21.9081 2.26357 18.7307C1.63113 15.5533 2.12 12.2549 3.64689 9.39753C5.17378 6.54017 7.64421 4.30066 10.6372 3.0606C13.6302 1.82053 16.9606 1.65665 20.0609 2.59687C23.1612 3.53709 25.8396 5.52324 27.6396 8.21689C29.4397 10.9105 30.25 14.145 29.9326 17.3691C29.6152 20.5933 28.1896 23.6076 25.8988 25.8985C24.6022 27.2032 23.0596 28.2376 21.3602 28.9417C19.6609 29.6457 17.8387 30.0055 15.9994 30ZM15.9994 2.81529C13.3918 2.81529 10.8429 3.5885 8.67485 5.03715C6.50679 6.4858 4.81699 8.54482 3.81914 10.9538C2.82129 13.3629 2.56021 16.0137 3.06891 18.5711C3.57761 21.1285 4.83324 23.4776 6.67702 25.3214C8.52081 27.1652 10.8699 28.4208 13.4273 28.9295C15.9847 29.4382 18.6355 29.1771 21.0446 28.1793C23.4536 27.1814 25.5126 25.4916 26.9612 23.3236C28.4099 21.1555 29.1831 18.6065 29.1831 15.999C29.1795 12.5036 27.7894 9.15234 25.3177 6.68068C22.8461 4.20903 19.4948 2.81887 15.9994 2.81529ZM15.9994 27.347C13.3742 27.3453 10.8308 26.4336 8.80252 24.7671C6.7742 23.1006 5.38639 20.7824 4.87553 18.2074C4.36467 15.6325 4.76235 12.96 6.00082 10.6454C7.23929 8.33075 9.24195 6.51708 11.6676 5.51335C14.0933 4.50962 16.7919 4.37793 19.3038 5.1407C21.8157 5.90346 23.9854 7.51351 25.4434 9.69656C26.9014 11.8796 27.5574 14.5006 27.2997 17.1131C27.042 19.7255 25.8865 22.1678 24.0301 24.0239C22.9782 25.082 21.7266 25.9205 20.348 26.491C18.9694 27.0614 17.4913 27.3524 15.9994 27.347ZM15.9994 5.46443C13.9161 5.46443 11.8796 6.08221 10.1475 7.23964C8.41537 8.39707 7.06538 10.0422 6.26824 11.9669C5.4711 13.8916 5.26263 16.0095 5.6692 18.0526C6.07576 20.0958 7.07909 21.9726 8.55231 23.4455C10.0255 24.9185 11.9024 25.9215 13.9457 26.3276C15.989 26.7338 18.1068 26.525 20.0314 25.7275C21.9559 24.93 23.6008 23.5797 24.7579 21.8473C25.915 20.115 26.5324 18.0784 26.532 15.9952C26.5279 13.2035 25.4167 10.5275 23.4422 8.55403C21.4677 6.58058 18.791 5.47087 15.9994 5.46831V5.46443ZM15.9994 24.8295C14.254 24.8295 12.5478 24.312 11.0966 23.3423C9.64541 22.3726 8.51433 20.9944 7.84641 19.3819C7.17849 17.7694 7.00374 15.9951 7.34424 14.2832C7.68474 12.5714 8.52521 10.999 9.75936 9.76487C10.9935 8.53071 12.5659 7.69025 14.2777 7.34974C15.9896 7.00924 17.7639 7.184 19.3764 7.85192C20.9889 8.51984 22.3671 9.65092 23.3368 11.1021C24.3065 12.5533 24.824 14.2595 24.824 16.0049C24.8199 18.3435 23.8887 20.5851 22.2345 22.2383C20.5802 23.8914 18.338 24.8212 15.9994 24.8237V24.8295ZM15.9994 7.99739C14.4152 7.99739 12.8665 8.46718 11.5494 9.34735C10.2322 10.2275 9.2056 11.4785 8.59944 12.9422C7.99328 14.4058 7.83478 16.0163 8.14398 17.5701C8.45319 19.1238 9.2162 20.5509 10.3365 21.671C11.4569 22.791 12.8842 23.5537 14.438 23.8625C15.9918 24.1714 17.6023 24.0125 19.0658 23.406C20.5293 22.7995 21.78 21.7726 22.6599 20.4552C23.5397 19.1378 24.0091 17.589 24.0088 16.0049C24.0077 13.8806 23.1637 11.8436 21.662 10.3411C20.1602 8.83867 18.1236 7.99363 15.9994 7.99158V7.99739Z" fill="#1D3C34"/>
</g>
<defs>
<clipPath id="clip0_647_3101">
<rect width="28" height="28" fill="white" transform="translate(2 2)"/>
</clipPath>
</defs>
</svg>
