<svg width="176" height="120" viewBox="0 0 176 120" fill="none" xmlns="http://www.w3.org/2000/svg">
<rect width="176" height="120" fill="white"/>
<path d="M132 16H44V104H132V16Z" fill="#004235"/>
<path d="M108.109 46.738L107.014 42.6713L93.6608 46.2635L102.14 35.3272L98.8096 32.7461L90.1041 43.9751V30.2139H85.891V43.6425L77.3008 32.7373L73.9924 35.3449L82.6048 46.2723L68.9722 42.6668L67.8945 46.7424L85.891 51.501V65.546H90.1041V51.5808L108.109 46.738Z" fill="white"/>
<path d="M64.4224 80.6197H65.5311V75.9986H64.4224V75.0762H67.5622V75.9986H66.4535V80.6197H67.5622V81.5421H64.4224V80.6197Z" fill="white"/>
<path d="M68.9014 75.0762H71.2119C72.0693 75.0762 72.8917 75.4168 73.498 76.0231C74.1043 76.6294 74.4449 77.4517 74.4449 78.3091C74.4449 79.1666 74.1043 79.9889 73.498 80.5952C72.8917 81.2015 72.0693 81.5421 71.2119 81.5421H68.9014V75.0762ZM69.8238 80.6197H71.2119C71.8247 80.6197 72.4124 80.3763 72.8457 79.9429C73.279 79.5096 73.5224 78.9219 73.5224 78.3091C73.5224 77.6964 73.279 77.1087 72.8457 76.6754C72.4124 76.242 71.8247 75.9986 71.2119 75.9986H69.8238V80.6197Z" fill="white"/>
<path d="M75.6426 75.0762H80.3657V75.9986H76.5695V77.8479H79.8956V78.7704H76.5695V80.6197H80.3657V81.5421H75.6426V75.0762Z" fill="white"/>
<path d="M84.7424 74.8896C85.2104 74.8903 85.6732 74.9866 86.1026 75.1727C86.532 75.3588 86.9188 75.6307 87.2392 75.9717V75.0848H88.1616V81.5507H87.2392V80.6638C86.8508 81.0756 86.3661 81.3846 85.8288 81.5629C85.2915 81.7413 84.7183 81.7834 84.1607 81.6855C83.6031 81.5877 83.0785 81.3529 82.634 81.0022C82.1896 80.6516 81.8391 80.1961 81.6141 79.6766C81.3891 79.1571 81.2967 78.5898 81.345 78.0258C81.3934 77.4617 81.581 76.9185 81.8911 76.4448C82.2012 75.9712 82.6241 75.5819 83.1217 75.3121C83.6194 75.0422 84.1763 74.9001 84.7424 74.8985V74.8896ZM84.7424 80.8057C85.2364 80.8066 85.7196 80.6609 86.1308 80.3871C86.5419 80.1132 86.8626 79.7236 87.0523 79.2675C87.242 78.8113 87.292 78.3091 87.1962 77.8245C87.1004 77.3399 86.8629 76.8946 86.5139 76.545C86.1649 76.1953 85.72 75.9571 85.2356 75.8604C84.7511 75.7637 84.2489 75.8129 83.7924 76.0017C83.3359 76.1906 82.9457 76.5106 82.6711 76.9213C82.3966 77.332 82.25 77.8149 82.25 78.3089C82.2512 78.97 82.514 79.6037 82.9811 80.0715C83.4481 80.5394 84.0813 80.8034 84.7424 80.8057Z" fill="white"/>
<path d="M89.5454 81.5421V75.0762H90.4679V80.6197H94.2596V81.5421H89.5454Z" fill="white"/>
<path d="M95.3638 80.6197H96.4725V75.9986H95.3638V75.0762H98.508V75.9986H97.3993V80.6197H98.508V81.5421H95.3638V80.6197Z" fill="white"/>
<path d="M100.765 79.6039V79.7857C100.765 80.3533 101.364 80.8057 102.428 80.8057C103.493 80.8057 104.092 80.3622 104.092 79.7857C104.092 78.1892 99.6567 79.5285 99.6567 76.9252C99.6567 75.7589 100.708 74.8896 102.428 74.8896C104.149 74.8896 105.2 75.7766 105.2 76.9252V77.1071H104.273V76.9252C104.273 76.2689 103.582 75.8165 102.428 75.8165C101.275 75.8165 100.579 76.26 100.579 76.9252C100.579 78.4286 105.014 77.1825 105.014 79.7857C105.014 80.8589 104.052 81.7281 102.428 81.7281C100.805 81.7281 99.8386 80.8412 99.8386 79.7857V79.6039H100.765Z" fill="white"/>
<path d="M108.389 75.9986H106.127V75.0762H111.578V75.9986H109.316V81.5421H108.389V75.9986Z" fill="white"/>
<path d="M73.5802 86.793C74.0961 86.7944 74.5903 87.0001 74.955 87.3651L74.5869 87.7331C74.3878 87.5341 74.1341 87.3985 73.858 87.3436C73.5818 87.2887 73.2956 87.3169 73.0355 87.4247C72.7754 87.5324 72.5531 87.7149 72.3967 87.949C72.2403 88.1831 72.1568 88.4583 72.1568 88.7398C72.1568 89.0214 72.2403 89.2966 72.3967 89.5307C72.5531 89.7648 72.7754 89.9473 73.0355 90.055C73.2956 90.1628 73.5818 90.191 73.858 90.1361C74.1341 90.0812 74.3878 89.9456 74.5869 89.7465L74.955 90.1191C74.7748 90.3 74.5605 90.4433 74.3245 90.5407C74.0885 90.6382 73.8355 90.6878 73.5802 90.6867C73.0638 90.6867 72.5686 90.4816 72.2035 90.1165C71.8384 89.7514 71.6333 89.2562 71.6333 88.7398C71.6333 88.2235 71.8384 87.7283 72.2035 87.3632C72.5686 86.9981 73.0638 86.793 73.5802 86.793Z" fill="white"/>
<path d="M77.381 86.793C77.7664 86.793 78.1432 86.9074 78.4635 87.1217C78.7839 87.336 79.0334 87.6406 79.1805 87.9969C79.3276 88.3531 79.3656 88.745 79.2898 89.1229C79.2139 89.5008 79.0276 89.8477 78.7545 90.1196C78.4813 90.3916 78.1336 90.5763 77.7553 90.6504C77.3771 90.7245 76.9854 90.6847 76.6298 90.536C76.2742 90.3873 75.9707 90.1364 75.7579 89.815C75.545 89.4937 75.4323 89.1164 75.4341 88.731C75.4376 88.2165 75.6441 87.7243 76.0087 87.3613C76.3733 86.9984 76.8665 86.7941 77.381 86.793ZM77.381 90.1634C77.6622 90.1634 77.937 90.0802 78.171 89.9241C78.4049 89.7681 78.5873 89.5463 78.6953 89.2867C78.8033 89.0271 78.832 88.7413 78.7778 88.4654C78.7236 88.1895 78.5889 87.9358 78.3907 87.7364C78.1925 87.5369 77.9397 87.4006 77.6641 87.3447C77.3885 87.2888 77.1026 87.3157 76.8423 87.4221C76.5821 87.5285 76.3591 87.7096 76.2016 87.9425C76.0441 88.1755 75.9592 88.4498 75.9574 88.731C75.9562 88.9187 75.9922 89.1047 76.0632 89.2785C76.1342 89.4522 76.2389 89.6102 76.3712 89.7433C76.5035 89.8765 76.6609 89.9821 76.8342 90.0542C77.0074 90.1263 77.1933 90.1634 77.381 90.1634Z" fill="white"/>
<path d="M80.6225 90.5847H80.0947V86.8994H82.6758V87.4227H80.6225V88.4782H82.1392V89.0015H80.6225V90.5847Z" fill="white"/>
<path d="M83.9134 90.5847H83.3901V86.8994H85.9668V87.4227H83.9134V88.4782H85.4435V89.0015H83.9134V90.5847Z" fill="white"/>
<path d="M86.6807 86.8994H89.3682V87.4227H87.2084V88.4782H89.1065V89.0015H87.2084V90.0614H89.3682V90.5892H86.6807V86.8994Z" fill="white"/>
<path d="M90.2153 86.8994H92.8984V87.4227H90.7386V88.4782H92.6367V89.0015H90.7386V90.0614H92.8984V90.5892H90.2153V86.8994Z" fill="white"/>
<path d="M97.1466 86.793C97.4014 86.7933 97.6537 86.844 97.8889 86.9422C98.1241 87.0404 98.3375 87.1841 98.5169 87.3651L98.1489 87.7331C97.9498 87.5341 97.6961 87.3985 97.42 87.3436C97.1438 87.2887 96.8576 87.3169 96.5975 87.4247C96.3374 87.5324 96.1151 87.7149 95.9586 87.949C95.8022 88.1831 95.7187 88.4583 95.7187 88.7398C95.7187 89.0214 95.8022 89.2966 95.9586 89.5307C96.1151 89.7648 96.3374 89.9473 96.5975 90.055C96.8576 90.1628 97.1438 90.191 97.42 90.1361C97.6961 90.0812 97.9498 89.9456 98.1489 89.7465L98.5169 90.1191C98.3379 90.3002 98.1244 90.4438 97.8891 90.5412C97.6537 90.6387 97.4013 90.6882 97.1466 90.6867C96.6302 90.6867 96.135 90.4816 95.7699 90.1165C95.4048 89.7514 95.1997 89.2562 95.1997 88.7398C95.1997 88.2235 95.4048 87.7283 95.7699 87.3632C96.135 86.9981 96.6302 86.793 97.1466 86.793Z" fill="white"/>
<path d="M100.943 86.793C101.328 86.7939 101.705 86.909 102.024 87.1239C102.344 87.3387 102.593 87.6436 102.739 87.9999C102.886 88.3563 102.923 88.748 102.847 89.1256C102.771 89.5033 102.584 89.8497 102.311 90.1212C102.037 90.3927 101.689 90.5769 101.311 90.6507C100.933 90.7245 100.542 90.6844 100.186 90.5355C99.831 90.3867 99.5279 90.1358 99.3152 89.8145C99.1025 89.4933 98.99 89.1162 98.9917 88.731C98.9952 88.2158 99.2024 87.7229 99.5679 87.3598C99.9335 86.9967 100.428 86.793 100.943 86.793ZM100.943 90.1634C101.225 90.1643 101.5 90.0815 101.735 89.9257C101.97 89.7698 102.153 89.5477 102.261 89.2877C102.37 89.0277 102.399 88.7413 102.344 88.4649C102.29 88.1884 102.155 87.9343 101.956 87.7348C101.757 87.5353 101.503 87.3993 101.227 87.344C100.951 87.2887 100.664 87.3166 100.404 87.4242C100.143 87.5318 99.9207 87.7143 99.7641 87.9485C99.6075 88.1827 99.5239 88.4581 99.5239 88.7398C99.5239 89.1166 99.6733 89.4781 99.9393 89.7449C100.205 90.0117 100.566 90.1622 100.943 90.1634Z" fill="white"/>
<path d="M103.657 89.9775C103.747 89.9775 103.834 90.0135 103.898 90.0776C103.962 90.1416 103.998 90.2285 103.998 90.319C103.998 90.4096 103.962 90.4964 103.898 90.5605C103.834 90.6245 103.747 90.6605 103.657 90.6605C103.566 90.6605 103.479 90.6245 103.415 90.5605C103.351 90.4964 103.315 90.4096 103.315 90.319C103.315 90.2285 103.351 90.1416 103.415 90.0776C103.479 90.0135 103.566 89.9775 103.657 89.9775Z" fill="white"/>
</svg>
