<svg width="18" height="18" viewBox="0 0 18 18" fill="none" xmlns="http://www.w3.org/2000/svg">
<path d="M15.5801 1.74829C15.1348 1.3373 13.3347 0.0306179 9.32539 0.0128656C9.32539 0.0128656 4.59734 -0.272248 2.29248 1.8419C1.00947 3.12517 0.558131 5.00289 0.510523 7.33088C0.462914 9.65886 0.401318 14.0216 4.60674 15.2046H4.61078L4.6081 17.0096C4.6081 17.0096 4.58119 17.7405 5.06239 17.8895C5.64446 18.0702 5.98605 17.5148 6.54176 16.9161C6.84677 16.5873 7.26799 16.1046 7.58538 15.7356C10.4615 15.9776 12.6736 15.4243 12.9248 15.3426C13.5056 15.1543 16.7916 14.7333 17.3261 10.3708C17.8777 5.87437 17.0592 3.03023 15.5801 1.74829Z" fill="#1D3C34"/>
<path d="M14.6442 2.65686C14.2676 2.31472 12.6422 1.29341 9.25067 1.27862C9.25067 1.27862 5.2346 1.01476 3.28506 2.78058C2.20002 3.85191 1.83448 5.44505 1.7944 7.3892C1.75433 9.33336 1.54668 13.0474 5.10281 14.0353C5.10281 14.0353 5.08882 16.7926 5.0872 17.035C5.0872 17.2044 5.1141 17.3204 5.21093 17.3442C5.28059 17.3612 5.38496 17.3252 5.47372 17.2366C6.04234 16.6656 7.86277 14.4695 7.86277 14.4695C10.3053 14.6289 12.2487 14.1467 12.4576 14.0783C12.9505 13.9199 15.6157 13.6911 16.0668 10.0475C16.5329 6.29178 15.8954 3.72818 14.6442 2.65686Z" fill="white"/>
<path d="M10.9752 7.22921C10.9311 6.33999 10.4794 5.87295 9.62012 5.82812" stroke="#1D3C34" stroke-width="0.309751" stroke-linecap="round" stroke-linejoin="round"/>
<path d="M12.1388 7.61927C12.1567 6.79084 11.9113 6.09867 11.4026 5.54279C10.8916 4.98493 10.1842 4.67776 9.27637 4.61133" stroke="#1D3C34" stroke-width="0.309751" stroke-linecap="round" stroke-linejoin="round"/>
<path d="M13.3301 8.08559C13.3191 6.64801 12.8897 5.5158 12.0414 4.68897C11.1933 3.86214 10.1385 3.44433 8.87695 3.43555" stroke="#1D3C34" stroke-width="0.309751" stroke-linecap="round" stroke-linejoin="round"/>
<path d="M9.66443 10.2663C9.66443 10.2663 9.98316 10.2932 10.1548 10.0817L10.4894 9.66081C10.6508 9.45208 11.0402 9.31894 11.4216 9.53142C11.7075 9.69443 11.9849 9.87164 12.253 10.0624C12.5062 10.2485 13.0244 10.681 13.0261 10.681C13.273 10.8895 13.3301 11.1956 13.1619 11.5183C13.1619 11.5202 13.1606 11.5235 13.1606 11.5251C12.9754 11.8461 12.7403 12.1355 12.4642 12.3825C12.4609 12.3842 12.4609 12.3858 12.458 12.3874C12.2181 12.5879 11.9824 12.7018 11.7509 12.7293C11.7168 12.7352 11.6821 12.7374 11.6476 12.7357C11.5455 12.7367 11.4439 12.7211 11.3469 12.6895L11.3393 12.6784C10.9827 12.5779 10.3872 12.3261 9.39545 11.779C8.82156 11.4661 8.27521 11.1052 7.76223 10.7001C7.50511 10.4972 7.25985 10.2797 7.02765 10.0487L7.00291 10.0239L6.97817 9.99918L6.95343 9.97442C6.94509 9.96636 6.93701 9.95802 6.92867 9.94968C6.69765 9.71749 6.48014 9.47223 6.27722 9.21511C5.87219 8.70219 5.51129 8.15593 5.19836 7.58216C4.65126 6.59018 4.3995 5.99521 4.29891 5.63801L4.28788 5.63047C4.25634 5.53339 4.2408 5.43183 4.24188 5.32976C4.24 5.29521 4.24207 5.26056 4.24807 5.22648C4.27694 4.99534 4.39107 4.75944 4.59048 4.5188C4.59209 4.51584 4.5937 4.51584 4.59531 4.51262C4.84231 4.23646 5.13178 4.00147 5.4528 3.8165C5.45442 3.8165 5.45765 3.81489 5.45953 3.81489C5.7823 3.64678 6.08839 3.70381 6.29659 3.94939C6.2982 3.951 6.7299 4.46931 6.91523 4.72241C7.106 4.99078 7.2832 5.26853 7.44618 5.55462C7.65868 5.93576 7.52554 6.32605 7.3168 6.4869L6.89586 6.82149C6.68336 6.9931 6.71134 7.31184 6.71134 7.31184C6.71134 7.31184 7.33483 9.67157 9.66443 10.2663Z" fill="#1D3C34"/>
</svg>
