<svg width="176" height="120" viewBox="0 0 176 120" fill="none" xmlns="http://www.w3.org/2000/svg">
<rect width="176" height="120" fill="white"/>
<g clip-path="url(#clip0_308_4388)">
<path d="M38.657 29.4891C39.6216 29.4891 40.4034 28.708 40.4034 27.7445C40.4034 26.7811 39.6216 26 38.657 26C37.6925 26 36.9106 26.7811 36.9106 27.7445C36.9106 28.708 37.6925 29.4891 38.657 29.4891Z" fill="#6A2383"/>
<path d="M39.2137 33.2423C39.8771 33.2423 40.4148 32.7051 40.4148 32.0425C40.4148 31.3799 39.8771 30.8428 39.2137 30.8428C38.5504 30.8428 38.0127 31.3799 38.0127 32.0425C38.0127 32.7051 38.5504 33.2423 39.2137 33.2423Z" fill="#6A2383"/>
<path d="M39.7702 37.2133C40.2524 37.2133 40.6434 36.8228 40.6434 36.341C40.6434 35.8593 40.2524 35.4688 39.7702 35.4688C39.2879 35.4688 38.897 35.8593 38.897 36.341C38.897 36.8228 39.2879 37.2133 39.7702 37.2133Z" fill="#6A2383"/>
<path d="M40.3267 41.2488C40.6641 41.2488 40.9377 40.9756 40.9377 40.6386C40.9377 40.3015 40.6641 40.0283 40.3267 40.0283C39.9893 40.0283 39.7158 40.3015 39.7158 40.6386C39.7158 40.9756 39.9893 41.2488 40.3267 41.2488Z" fill="#6A2383"/>
<path d="M36.2707 31.7613C36.9941 31.7613 37.5805 31.1755 37.5805 30.4529C37.5805 29.7303 36.9941 29.1445 36.2707 29.1445C35.5474 29.1445 34.9609 29.7303 34.9609 30.4529C34.9609 31.1755 35.5474 31.7613 36.2707 31.7613Z" fill="#6A2383"/>
<path d="M37.4927 35.5917C38.035 35.5917 38.4746 35.1525 38.4746 34.6108C38.4746 34.069 38.035 33.6299 37.4927 33.6299C36.9504 33.6299 36.5107 34.069 36.5107 34.6108C36.5107 35.1525 36.9504 35.5917 37.4927 35.5917Z" fill="#6A2383"/>
<path d="M38.7163 39.4876C39.1137 39.4876 39.4359 39.1657 39.4359 38.7687C39.4359 38.3717 39.1137 38.0498 38.7163 38.0498C38.3188 38.0498 37.9966 38.3717 37.9966 38.7687C37.9966 39.1657 38.3188 39.4876 38.7163 39.4876Z" fill="#6A2383"/>
<path d="M32.7972 31.2088C33.7617 31.2088 34.5436 30.4277 34.5436 29.4643C34.5436 28.5008 33.7617 27.7197 32.7972 27.7197C31.8327 27.7197 31.0508 28.5008 31.0508 29.4643C31.0508 30.4277 31.8327 31.2088 32.7972 31.2088Z" fill="#6A2383"/>
<path d="M34.7181 34.9496C35.3205 34.9496 35.8088 34.4618 35.8088 33.86C35.8088 33.2583 35.3205 32.7705 34.7181 32.7705C34.1158 32.7705 33.6274 33.2583 33.6274 33.86C33.6274 34.4618 34.1158 34.9496 34.7181 34.9496Z" fill="#6A2383"/>
<path d="M36.5138 38.1684C36.9961 38.1684 37.387 37.7778 37.387 37.2961C37.387 36.8144 36.9961 36.4238 36.5138 36.4238C36.0316 36.4238 35.6406 36.8144 35.6406 37.2961C35.6406 37.7778 36.0316 38.1684 36.5138 38.1684Z" fill="#6A2383"/>
<path d="M38.3722 41.8221C38.7096 41.8221 38.9831 41.5489 38.9831 41.2118C38.9831 40.8748 38.7096 40.6016 38.3722 40.6016C38.0347 40.6016 37.7612 40.8748 37.7612 41.2118C37.7612 41.5489 38.0347 41.8221 38.3722 41.8221Z" fill="#6A2383"/>
<path d="M31.449 34.7369C32.1723 34.7369 32.7588 34.1511 32.7588 33.4285C32.7588 32.7059 32.1723 32.1201 31.449 32.1201C30.7256 32.1201 30.1392 32.7059 30.1392 33.4285C30.1392 34.1511 30.7256 34.7369 31.449 34.7369Z" fill="#6A2383"/>
<path d="M33.8145 37.3348C34.3568 37.3348 34.7964 36.8957 34.7964 36.3539C34.7964 35.8122 34.3568 35.373 33.8145 35.373C33.2722 35.373 32.8325 35.8122 32.8325 36.3539C32.8325 36.8957 33.2722 37.3348 33.8145 37.3348Z" fill="#6A2383"/>
<path d="M36.2631 40.6497C36.6606 40.6497 36.9828 40.3279 36.9828 39.9308C36.9828 39.5338 36.6606 39.2119 36.2631 39.2119C35.8657 39.2119 35.5435 39.5338 35.5435 39.9308C35.5435 40.3279 35.8657 40.6497 36.2631 40.6497Z" fill="#6A2383"/>
<path d="M27.7549 34.8699C28.8395 34.8699 29.7188 33.9916 29.7188 32.9081C29.7188 31.8246 28.8395 30.9463 27.7549 30.9463C26.6703 30.9463 25.791 31.8246 25.791 32.9081C25.791 33.9916 26.6703 34.8699 27.7549 34.8699Z" fill="#6A2383"/>
<path d="M30.7968 37.6293C31.3991 37.6293 31.8875 37.1415 31.8875 36.5397C31.8875 35.938 31.3991 35.4502 30.7968 35.4502C30.1944 35.4502 29.7061 35.938 29.7061 36.5397C29.7061 37.1415 30.1944 37.6293 30.7968 37.6293Z" fill="#6A2383"/>
<path d="M33.7135 40.0805C34.1958 40.0805 34.5867 39.6899 34.5867 39.2082C34.5867 38.7265 34.1958 38.3359 33.7135 38.3359C33.2313 38.3359 32.8403 38.7265 32.8403 39.2082C32.8403 39.6899 33.2313 40.0805 33.7135 40.0805Z" fill="#6A2383"/>
<path d="M36.6915 42.9705C37.0289 42.9705 37.3024 42.6973 37.3024 42.3603C37.3024 42.0232 37.0289 41.75 36.6915 41.75C36.3541 41.75 36.0806 42.0232 36.0806 42.3603C36.0806 42.6973 36.3541 42.9705 36.6915 42.9705Z" fill="#6A2383"/>
<path d="M27.4171 37.1522C27.7775 37.1522 28.0697 36.8604 28.0697 36.5004C28.0697 36.1405 27.7775 35.8486 27.4171 35.8486C27.0568 35.8486 26.7646 36.1405 26.7646 36.5004C26.7646 36.8604 27.0568 37.1522 27.4171 37.1522Z" fill="#6A2383"/>
<path d="M30.8543 39.7064C31.1643 39.7064 31.4157 39.4554 31.4157 39.1457C31.4157 38.836 31.1643 38.585 30.8543 38.585C30.5443 38.585 30.293 38.836 30.293 39.1457C30.293 39.4554 30.5443 39.7064 30.8543 39.7064Z" fill="#6A2383"/>
<path d="M34.2897 42.2648C34.5502 42.2648 34.7614 42.0538 34.7614 41.7935C34.7614 41.5333 34.5502 41.3223 34.2897 41.3223C34.0291 41.3223 33.8179 41.5333 33.8179 41.7935C33.8179 42.0538 34.0291 42.2648 34.2897 42.2648Z" fill="#6A2383"/>
<path d="M27.5022 38.4605C28.2256 38.4605 28.812 37.8748 28.812 37.1521C28.812 36.4295 28.2256 35.8438 27.5022 35.8438C26.7788 35.8438 26.1924 36.4295 26.1924 37.1521C26.1924 37.8748 26.7788 38.4605 27.5022 38.4605Z" fill="#6A2383"/>
<path d="M30.854 40.1278C31.3963 40.1278 31.836 39.6886 31.836 39.1469C31.836 38.6052 31.3963 38.166 30.854 38.166C30.3117 38.166 29.8721 38.6052 29.8721 39.1469C29.8721 39.6886 30.3117 40.1278 30.854 40.1278Z" fill="#6A2383"/>
<path d="M34.2895 42.512C34.687 42.512 35.0092 42.1902 35.0092 41.7931C35.0092 41.3961 34.687 41.0742 34.2895 41.0742C33.892 41.0742 33.5698 41.3961 33.5698 41.7931C33.5698 42.1902 33.892 42.512 34.2895 42.512Z" fill="#6A2383"/>
<path d="M24.0254 39.7019C25.1101 39.7019 25.9893 38.8236 25.9893 37.7401C25.9893 36.6566 25.1101 35.7783 24.0254 35.7783C22.9408 35.7783 22.0615 36.6566 22.0615 37.7401C22.0615 38.8236 22.9408 39.7019 24.0254 39.7019Z" fill="#6A2383"/>
<path d="M27.8954 41.3861C28.4978 41.3861 28.9861 40.8983 28.9861 40.2966C28.9861 39.6948 28.4978 39.207 27.8954 39.207C27.293 39.207 26.8047 39.6948 26.8047 40.2966C26.8047 40.8983 27.293 41.3861 27.8954 41.3861Z" fill="#6A2383"/>
<path d="M31.6413 42.766C32.1235 42.766 32.5145 42.3755 32.5145 41.8937C32.5145 41.412 32.1235 41.0215 31.6413 41.0215C31.159 41.0215 30.7681 41.412 30.7681 41.8937C30.7681 42.3755 31.159 42.766 31.6413 42.766Z" fill="#6A2383"/>
<path d="M35.4488 44.5809C35.7862 44.5809 36.0597 44.3077 36.0597 43.9706C36.0597 43.6336 35.7862 43.3604 35.4488 43.3604C35.1114 43.3604 34.8379 43.6336 34.8379 43.9706C34.8379 44.3077 35.1114 44.5809 35.4488 44.5809Z" fill="#6A2383"/>
<path d="M24.9001 43.2213C25.6235 43.2213 26.2099 42.6355 26.2099 41.9129C26.2099 41.1903 25.6235 40.6045 24.9001 40.6045C24.1767 40.6045 23.5903 41.1903 23.5903 41.9129C23.5903 42.6355 24.1767 43.2213 24.9001 43.2213Z" fill="#6A2383"/>
<path d="M28.9014 43.6971C29.4437 43.6971 29.8833 43.258 29.8833 42.7162C29.8833 42.1745 29.4437 41.7354 28.9014 41.7354C28.3591 41.7354 27.9194 42.1745 27.9194 42.7162C27.9194 43.258 28.3591 43.6971 28.9014 43.6971Z" fill="#6A2383"/>
<path d="M32.9877 44.8929C33.3852 44.8929 33.7074 44.571 33.7074 44.174C33.7074 43.7769 33.3852 43.4551 32.9877 43.4551C32.5903 43.4551 32.2681 43.7769 32.2681 44.174C32.2681 44.571 32.5903 44.8929 32.9877 44.8929Z" fill="#6A2383"/>
<path d="M21.9734 45.2312C22.938 45.2312 23.7198 44.4502 23.7198 43.4867C23.7198 42.5232 22.938 41.7422 21.9734 41.7422C21.0089 41.7422 20.2271 42.5232 20.2271 43.4867C20.2271 44.4502 21.0089 45.2312 21.9734 45.2312Z" fill="#6A2383"/>
<path d="M26.2997 45.8558C26.9021 45.8558 27.3904 45.368 27.3904 44.7663C27.3904 44.1646 26.9021 43.6768 26.2997 43.6768C25.6973 43.6768 25.209 44.1646 25.209 44.7663C25.209 45.368 25.6973 45.8558 26.2997 45.8558Z" fill="#6A2383"/>
<path d="M30.5006 45.9584C30.9829 45.9584 31.3738 45.5679 31.3738 45.0861C31.3738 44.6044 30.9829 44.2139 30.5006 44.2139C30.0184 44.2139 29.6274 44.6044 29.6274 45.0861C29.6274 45.5679 30.0184 45.9584 30.5006 45.9584Z" fill="#6A2383"/>
<path d="M34.7642 46.4969C35.1016 46.4969 35.3752 46.2237 35.3752 45.8866C35.3752 45.5496 35.1016 45.2764 34.7642 45.2764C34.4268 45.2764 34.1533 45.5496 34.1533 45.8866C34.1533 46.2237 34.4268 46.4969 34.7642 46.4969Z" fill="#6A2383"/>
<path d="M23.8992 48.5514C24.6225 48.5514 25.209 47.9656 25.209 47.243C25.209 46.5204 24.6225 45.9346 23.8992 45.9346C23.1758 45.9346 22.5894 46.5204 22.5894 47.243C22.5894 47.9656 23.1758 48.5514 23.8992 48.5514Z" fill="#6A2383"/>
<path d="M28.1514 47.6962C28.6937 47.6962 29.1333 47.257 29.1333 46.7153C29.1333 46.1735 28.6937 45.7344 28.1514 45.7344C27.6091 45.7344 27.1694 46.1735 27.1694 46.7153C27.1694 47.257 27.6091 47.6962 28.1514 47.6962Z" fill="#6A2383"/>
<path d="M32.4872 47.5569C32.8847 47.5569 33.2069 47.2351 33.2069 46.838C33.2069 46.441 32.8847 46.1191 32.4872 46.1191C32.0898 46.1191 31.7676 46.441 31.7676 46.838C31.7676 47.2351 32.0898 47.5569 32.4872 47.5569Z" fill="#6A2383"/>
<path d="M21.7991 51.3309C22.7636 51.3309 23.5455 50.5498 23.5455 49.5863C23.5455 48.6228 22.7636 47.8418 21.7991 47.8418C20.8346 47.8418 20.0527 48.6228 20.0527 49.5863C20.0527 50.5498 20.8346 51.3309 21.7991 51.3309Z" fill="#6A2383"/>
<path d="M26.1636 50.6012C26.7668 50.6012 27.2559 50.1127 27.2559 49.5101C27.2559 48.9075 26.7668 48.4189 26.1636 48.4189C25.5603 48.4189 25.0713 48.9075 25.0713 49.5101C25.0713 50.1127 25.5603 50.6012 26.1636 50.6012Z" fill="#6A2383"/>
<path d="M30.4049 49.3471C30.8872 49.3471 31.2781 48.9565 31.2781 48.4748C31.2781 47.9931 30.8872 47.6025 30.4049 47.6025C29.9227 47.6025 29.5317 47.9931 29.5317 48.4748C29.5317 48.9565 29.9227 49.3471 30.4049 49.3471Z" fill="#6A2383"/>
<path d="M34.7071 48.5291C35.0445 48.5291 35.318 48.2559 35.318 47.9189C35.318 47.5818 35.0445 47.3086 34.7071 47.3086C34.3697 47.3086 34.0962 47.5818 34.0962 47.9189C34.0962 48.2559 34.3697 48.5291 34.7071 48.5291Z" fill="#6A2383"/>
<path d="M24.5804 53.714C25.2438 53.714 25.7815 53.1768 25.7815 52.5142C25.7815 51.8516 25.2438 51.3145 24.5804 51.3145C23.9171 51.3145 23.3794 51.8516 23.3794 52.5142C23.3794 53.1768 23.9171 53.714 24.5804 53.714Z" fill="#6A2383"/>
<path d="M28.6729 51.7304C29.2152 51.7304 29.6548 51.2912 29.6548 50.7495C29.6548 50.2077 29.2152 49.7686 28.6729 49.7686C28.1306 49.7686 27.6909 50.2077 27.6909 50.7495C27.6909 51.2912 28.1306 51.7304 28.6729 51.7304Z" fill="#6A2383"/>
<path d="M32.8359 50.2474C33.2333 50.2474 33.5556 49.9255 33.5556 49.5285C33.5556 49.1314 33.2333 48.8096 32.8359 48.8096C32.4384 48.8096 32.1162 49.1314 32.1162 49.5285C32.1162 49.9255 32.4384 50.2474 32.8359 50.2474Z" fill="#6A2383"/>
<path d="M23.52 56.9673C24.3635 56.9673 25.0473 56.2843 25.0473 55.4417C25.0473 54.5991 24.3635 53.916 23.52 53.916C22.6765 53.916 21.9927 54.5991 21.9927 55.4417C21.9927 56.2843 22.6765 56.9673 23.52 56.9673Z" fill="#6A2383"/>
<path d="M27.4878 54.9364C28.0301 54.9364 28.4698 54.4972 28.4698 53.9555C28.4698 53.4138 28.0301 52.9746 27.4878 52.9746C26.9455 52.9746 26.5059 53.4138 26.5059 53.9555C26.5059 54.4972 26.9455 54.9364 27.4878 54.9364Z" fill="#6A2383"/>
<path d="M31.3595 52.599C31.8418 52.599 32.2327 52.2085 32.2327 51.7268C32.2327 51.245 31.8418 50.8545 31.3595 50.8545C30.8773 50.8545 30.4863 51.245 30.4863 51.7268C30.4863 52.2085 30.8773 52.599 31.3595 52.599Z" fill="#6A2383"/>
<path d="M35.2808 50.4813C35.6182 50.4813 35.8918 50.208 35.8918 49.871C35.8918 49.534 35.6182 49.2607 35.2808 49.2607C34.9434 49.2607 34.6699 49.534 34.6699 49.871C34.6699 50.208 34.9434 50.4813 35.2808 50.4813Z" fill="#6A2383"/>
<path d="M26.8929 58.3968C27.4953 58.3968 27.9836 57.909 27.9836 57.3073C27.9836 56.7056 27.4953 56.2178 26.8929 56.2178C26.2906 56.2178 25.8022 56.7056 25.8022 57.3073C25.8022 57.909 26.2906 58.3968 26.8929 58.3968Z" fill="#6A2383"/>
<path d="M30.4176 55.2973C30.8999 55.2973 31.2908 54.9067 31.2908 54.425C31.2908 53.9433 30.8999 53.5527 30.4176 53.5527C29.9354 53.5527 29.5444 53.9433 29.5444 54.425C29.5444 54.9067 29.9354 55.2973 30.4176 55.2973Z" fill="#6A2383"/>
<path d="M33.9985 52.6976C34.3959 52.6976 34.7181 52.3757 34.7181 51.9787C34.7181 51.5816 34.3959 51.2598 33.9985 51.2598C33.601 51.2598 33.2788 51.5816 33.2788 51.9787C33.2788 52.3757 33.601 52.6976 33.9985 52.6976Z" fill="#6A2383"/>
<path d="M26.968 61.7848C27.6914 61.7848 28.2778 61.199 28.2778 60.4764C28.2778 59.7538 27.6914 59.168 26.968 59.168C26.2446 59.168 25.6582 59.7538 25.6582 60.4764C25.6582 61.199 26.2446 61.7848 26.968 61.7848Z" fill="#6A2383"/>
<path d="M30.1554 58.6381C30.6377 58.6381 31.0286 58.2476 31.0286 57.7658C31.0286 57.2841 30.6377 56.8936 30.1554 56.8936C29.6732 56.8936 29.2822 57.2841 29.2822 57.7658C29.2822 58.2476 29.6732 58.6381 30.1554 58.6381Z" fill="#6A2383"/>
<path d="M33.2755 55.3978C33.7578 55.3978 34.1487 55.0073 34.1487 54.5256C34.1487 54.0438 33.7578 53.6533 33.2755 53.6533C32.7933 53.6533 32.4023 54.0438 32.4023 54.5256C32.4023 55.0073 32.7933 55.3978 33.2755 55.3978Z" fill="#6A2383"/>
<path d="M36.4293 52.16C36.7667 52.16 37.0402 51.8868 37.0402 51.5497C37.0402 51.2127 36.7667 50.9395 36.4293 50.9395C36.0919 50.9395 35.8184 51.2127 35.8184 51.5497C35.8184 51.8868 36.0919 52.16 36.4293 52.16Z" fill="#6A2383"/>
<path d="M30.5646 61.4657C30.925 61.4657 31.2171 61.1739 31.2171 60.8139C31.2171 60.4539 30.925 60.1621 30.5646 60.1621C30.2042 60.1621 29.9121 60.4539 29.9121 60.8139C29.9121 61.1739 30.2042 61.4657 30.5646 61.4657Z" fill="#6A2383"/>
<path d="M33.2132 57.9428C33.5232 57.9428 33.7745 57.6917 33.7745 57.382C33.7745 57.0723 33.5232 56.8213 33.2132 56.8213C32.9032 56.8213 32.6519 57.0723 32.6519 57.382C32.6519 57.6917 32.9032 57.9428 33.2132 57.9428Z" fill="#6A2383"/>
<path d="M35.8629 54.422C36.1235 54.422 36.3347 54.2111 36.3347 53.9508C36.3347 53.6905 36.1235 53.4795 35.8629 53.4795C35.6023 53.4795 35.3911 53.6905 35.3911 53.9508C35.3911 54.2111 35.6023 54.422 35.8629 54.422Z" fill="#6A2383"/>
<path d="M30.6065 62.1219C31.1488 62.1219 31.5884 61.6828 31.5884 61.1411C31.5884 60.5993 31.1488 60.1602 30.6065 60.1602C30.0641 60.1602 29.6245 60.5993 29.6245 61.1411C29.6245 61.6828 30.0641 62.1219 30.6065 62.1219Z" fill="#6A2383"/>
<path d="M33.213 58.2543C33.6953 58.2543 34.0862 57.8638 34.0862 57.382C34.0862 56.9003 33.6953 56.5098 33.213 56.5098C32.7308 56.5098 32.3398 56.9003 32.3398 57.382C32.3398 57.8638 32.7308 58.2543 33.213 58.2543Z" fill="#6A2383"/>
<path d="M35.8632 54.6702C36.2607 54.6702 36.5829 54.3484 36.5829 53.9513C36.5829 53.5543 36.2607 53.2324 35.8632 53.2324C35.4658 53.2324 35.1436 53.5543 35.1436 53.9513C35.1436 54.3484 35.4658 54.6702 35.8632 54.6702Z" fill="#6A2383"/>
<path d="M31.8055 65.2924C32.4079 65.2924 32.8962 64.8046 32.8962 64.2028C32.8962 63.6011 32.4079 63.1133 31.8055 63.1133C31.2032 63.1133 30.7148 63.6011 30.7148 64.2028C30.7148 64.8046 31.2032 65.2924 31.8055 65.2924Z" fill="#6A2383"/>
<path d="M33.9186 61.5365C34.4009 61.5365 34.7918 61.146 34.7918 60.6643C34.7918 60.1825 34.4009 59.792 33.9186 59.792C33.4364 59.792 33.0454 60.1825 33.0454 60.6643C33.0454 61.146 33.4364 61.5365 33.9186 61.5365Z" fill="#6A2383"/>
<path d="M35.9621 57.4691C36.4443 57.4691 36.8353 57.0786 36.8353 56.5969C36.8353 56.1151 36.4443 55.7246 35.9621 55.7246C35.4798 55.7246 35.0889 56.1151 35.0889 56.5969C35.0889 57.0786 35.4798 57.4691 35.9621 57.4691Z" fill="#6A2383"/>
<path d="M38.0411 53.4031C38.3785 53.4031 38.652 53.1299 38.652 52.7929C38.652 52.4558 38.3785 52.1826 38.0411 52.1826C37.7037 52.1826 37.4302 52.4558 37.4302 52.7929C37.4302 53.1299 37.7037 53.4031 38.0411 53.4031Z" fill="#6A2383"/>
<path d="M35.3579 64.6132C35.9002 64.6132 36.3399 64.174 36.3399 63.6323C36.3399 63.0905 35.9002 62.6514 35.3579 62.6514C34.8156 62.6514 34.376 63.0905 34.376 63.6323C34.376 64.174 34.8156 64.6132 35.3579 64.6132Z" fill="#6A2383"/>
<path d="M36.7878 60.2035C37.27 60.2035 37.6609 59.813 37.6609 59.3312C37.6609 58.8495 37.27 58.459 36.7878 58.459C36.3055 58.459 35.9146 58.8495 35.9146 59.3312C35.9146 59.813 36.3055 60.2035 36.7878 60.2035Z" fill="#6A2383"/>
<path d="M38.2446 55.9681C38.642 55.9681 38.9642 55.6462 38.9642 55.2492C38.9642 54.8521 38.642 54.5303 38.2446 54.5303C37.8471 54.5303 37.5249 54.8521 37.5249 55.2492C37.5249 55.6462 37.8471 55.9681 38.2446 55.9681Z" fill="#6A2383"/>
<path d="M37.096 66.9299C37.4572 66.9299 37.7501 66.6373 37.7501 66.2765C37.7501 65.9156 37.4572 65.623 37.096 65.623C36.7347 65.623 36.4419 65.9156 36.4419 66.2765C36.4419 66.6373 36.7347 66.9299 37.096 66.9299Z" fill="#6A2383"/>
<path d="M38.3932 63.1303C38.8755 63.1303 39.2664 62.7397 39.2664 62.258C39.2664 61.7763 38.8755 61.3857 38.3932 61.3857C37.911 61.3857 37.52 61.7763 37.52 62.258C37.52 62.7397 37.911 63.1303 38.3932 63.1303Z" fill="#6A2383"/>
<path d="M39.1593 58.6059C39.6416 58.6059 40.0325 58.2153 40.0325 57.7336C40.0325 57.2519 39.6416 56.8613 39.1593 56.8613C38.6771 56.8613 38.2861 57.2519 38.2861 57.7336C38.2861 58.2153 38.6771 58.6059 39.1593 58.6059Z" fill="#6A2383"/>
<path d="M39.9605 54.0848C40.2979 54.0848 40.5715 53.8116 40.5715 53.4745C40.5715 53.1375 40.2979 52.8643 39.9605 52.8643C39.6231 52.8643 39.3496 53.1375 39.3496 53.4745C39.3496 53.8116 39.6231 54.0848 39.9605 54.0848Z" fill="#6A2383"/>
<path d="M39.9093 65.7397C40.3916 65.7397 40.7825 65.3491 40.7825 64.8674C40.7825 64.3856 40.3916 63.9951 39.9093 63.9951C39.4271 63.9951 39.0361 64.3856 39.0361 64.8674C39.0361 65.3491 39.4271 65.7397 39.9093 65.7397Z" fill="#6A2383"/>
<path d="M40.6354 60.9633C41.1177 60.9633 41.5086 60.5727 41.5086 60.091C41.5086 59.6093 41.1177 59.2188 40.6354 59.2188C40.1532 59.2188 39.7622 59.6093 39.7622 60.091C39.7622 60.5727 40.1532 60.9633 40.6354 60.9633Z" fill="#6A2383"/>
<path d="M41.5278 56.4378C41.9252 56.4378 42.2474 56.1159 42.2474 55.7189C42.2474 55.3219 41.9252 55 41.5278 55C41.1303 55 40.8081 55.3219 40.8081 55.7189C40.8081 56.1159 41.1303 56.4378 41.5278 56.4378Z" fill="#6A2383"/>
<path d="M60.522 45.2827C60.9071 45.2827 61.2193 44.9709 61.2193 44.5862C61.2193 44.2015 60.9071 43.8896 60.522 43.8896C60.1369 43.8896 59.8247 44.2015 59.8247 44.5862C59.8247 44.9709 60.1369 45.2827 60.522 45.2827Z" fill="#6A2383"/>
<path d="M56.225 45.8452C56.5872 45.8452 56.8807 45.5519 56.8807 45.1902C56.8807 44.8284 56.5872 44.5352 56.225 44.5352C55.8629 44.5352 55.5693 44.8284 55.5693 45.1902C55.5693 45.5519 55.8629 45.8452 56.225 45.8452Z" fill="#6A2383"/>
<path d="M51.9166 46.134C52.1577 46.134 52.3532 45.9387 52.3532 45.6979C52.3532 45.457 52.1577 45.2617 51.9166 45.2617C51.6755 45.2617 51.48 45.457 51.48 45.6979C51.48 45.9387 51.6755 46.134 51.9166 46.134Z" fill="#6A2383"/>
<path d="M47.6147 46.6231C47.8196 46.6231 47.9857 46.4572 47.9857 46.2525C47.9857 46.0478 47.8196 45.8818 47.6147 45.8818C47.4098 45.8818 47.2437 46.0478 47.2437 46.2525C47.2437 46.4572 47.4098 46.6231 47.6147 46.6231Z" fill="#6A2383"/>
<path d="M57.8113 42.8537C58.1726 42.8537 58.4654 42.5611 58.4654 42.2003C58.4654 41.8394 58.1726 41.5469 57.8113 41.5469C57.4501 41.5469 57.1572 41.8394 57.1572 42.2003C57.1572 42.5611 57.4501 42.8537 57.8113 42.8537Z" fill="#6A2383"/>
<path d="M53.6487 44.0763C54.01 44.0763 54.3028 43.7838 54.3028 43.4229C54.3028 43.0621 54.01 42.7695 53.6487 42.7695C53.2875 42.7695 52.9946 43.0621 52.9946 43.4229C52.9946 43.7838 53.2875 44.0763 53.6487 44.0763Z" fill="#6A2383"/>
<path d="M49.4859 45.0803C49.727 45.0803 49.9225 44.885 49.9225 44.6441C49.9225 44.4033 49.727 44.208 49.4859 44.208C49.2448 44.208 49.0493 44.4033 49.0493 44.6441C49.0493 44.885 49.2448 45.0803 49.4859 45.0803Z" fill="#6A2383"/>
<path d="M58.8014 39.6029C59.2837 39.6029 59.6746 39.2124 59.6746 38.7307C59.6746 38.2489 59.2837 37.8584 58.8014 37.8584C58.3192 37.8584 57.9282 38.2489 57.9282 38.7307C57.9282 39.2124 58.3192 39.6029 58.8014 39.6029Z" fill="#6A2383"/>
<path d="M54.9007 41.5077C55.3229 41.5077 55.6651 41.1658 55.6651 40.7441C55.6651 40.3224 55.3229 39.9805 54.9007 39.9805C54.4785 39.9805 54.1362 40.3224 54.1362 40.7441C54.1362 41.1658 54.4785 41.5077 54.9007 41.5077Z" fill="#6A2383"/>
<path d="M50.9604 42.9889C51.2616 42.9889 51.5057 42.745 51.5057 42.4442C51.5057 42.1433 51.2616 41.8994 50.9604 41.8994C50.6592 41.8994 50.415 42.1433 50.415 42.4442C50.415 42.745 50.6592 42.9889 50.9604 42.9889Z" fill="#6A2383"/>
<path d="M47.0406 44.7355C47.2817 44.7355 47.4772 44.5403 47.4772 44.2994C47.4772 44.0585 47.2817 43.8633 47.0406 43.8633C46.7995 43.8633 46.604 44.0585 46.604 44.2994C46.604 44.5403 46.7995 44.7355 47.0406 44.7355Z" fill="#6A2383"/>
<path d="M55.4847 38.0653C55.9069 38.0653 56.2491 37.7235 56.2491 37.3017C56.2491 36.88 55.9069 36.5381 55.4847 36.5381C55.0625 36.5381 54.7202 36.88 54.7202 37.3017C54.7202 37.7235 55.0625 38.0653 55.4847 38.0653Z" fill="#6A2383"/>
<path d="M51.9036 40.4005C52.2649 40.4005 52.5577 40.108 52.5577 39.7472C52.5577 39.3863 52.2649 39.0938 51.9036 39.0938C51.5424 39.0938 51.2495 39.3863 51.2495 39.7472C51.2495 40.108 51.5424 40.4005 51.9036 40.4005Z" fill="#6A2383"/>
<path d="M48.3232 42.737C48.6244 42.737 48.8685 42.4931 48.8685 42.1922C48.8685 41.8914 48.6244 41.6475 48.3232 41.6475C48.022 41.6475 47.7778 41.8914 47.7778 42.1922C47.7778 42.4931 48.022 42.737 48.3232 42.737Z" fill="#6A2383"/>
<path d="M55.3534 34.7855C55.9558 34.7855 56.4441 34.2977 56.4441 33.696C56.4441 33.0942 55.9558 32.6064 55.3534 32.6064C54.751 32.6064 54.2627 33.0942 54.2627 33.696C54.2627 34.2977 54.751 34.7855 55.3534 34.7855Z" fill="#6A2383"/>
<path d="M52.2331 37.806C52.7153 37.806 53.1063 37.4155 53.1063 36.9338C53.1063 36.452 52.7153 36.0615 52.2331 36.0615C51.7508 36.0615 51.3599 36.452 51.3599 36.9338C51.3599 37.4155 51.7508 37.806 52.2331 37.806Z" fill="#6A2383"/>
<path d="M49.0457 40.3C49.407 40.3 49.6998 40.0074 49.6998 39.6466C49.6998 39.2857 49.407 38.9932 49.0457 38.9932C48.6845 38.9932 48.3916 39.2857 48.3916 39.6466C48.3916 40.0074 48.6845 40.3 49.0457 40.3Z" fill="#6A2383"/>
<path d="M45.8923 43.1244C46.1696 43.1244 46.3945 42.8998 46.3945 42.6227C46.3945 42.3457 46.1696 42.1211 45.8923 42.1211C45.615 42.1211 45.3901 42.3457 45.3901 42.6227C45.3901 42.8998 45.615 43.1244 45.8923 43.1244Z" fill="#6A2383"/>
<path d="M51.7565 34.0097C52.1169 34.0097 52.409 33.7178 52.409 33.3579C52.409 32.9979 52.1169 32.7061 51.7565 32.7061C51.3961 32.7061 51.104 32.9979 51.104 33.3579C51.104 33.7178 51.3961 34.0097 51.7565 34.0097Z" fill="#6A2383"/>
<path d="M49.1082 37.351C49.4182 37.351 49.6696 37.0999 49.6696 36.7902C49.6696 36.4805 49.4182 36.2295 49.1082 36.2295C48.7982 36.2295 48.5469 36.4805 48.5469 36.7902C48.5469 37.0999 48.7982 37.351 49.1082 37.351Z" fill="#6A2383"/>
<path d="M46.4581 40.6926C46.7187 40.6926 46.9299 40.4816 46.9299 40.2213C46.9299 39.961 46.7187 39.75 46.4581 39.75C46.1976 39.75 45.9863 39.961 45.9863 40.2213C45.9863 40.4816 46.1976 40.6926 46.4581 40.6926Z" fill="#6A2383"/>
<path d="M51.7565 34.2309C52.2388 34.2309 52.6297 33.8403 52.6297 33.3586C52.6297 32.8769 52.2388 32.4863 51.7565 32.4863C51.2742 32.4863 50.8833 32.8769 50.8833 33.3586C50.8833 33.8403 51.2742 34.2309 51.7565 34.2309Z" fill="#6A2383"/>
<path d="M49.1082 37.5536C49.5304 37.5536 49.8727 37.2117 49.8727 36.79C49.8727 36.3683 49.5304 36.0264 49.1082 36.0264C48.686 36.0264 48.3438 36.3683 48.3438 36.79C48.3438 37.2117 48.686 37.5536 49.1082 37.5536Z" fill="#6A2383"/>
<path d="M46.4581 40.8319C46.7955 40.8319 47.069 40.5586 47.069 40.2216C47.069 39.8846 46.7955 39.6113 46.4581 39.6113C46.1207 39.6113 45.8472 39.8846 45.8472 40.2216C45.8472 40.5586 46.1207 40.8319 46.4581 40.8319Z" fill="#6A2383"/>
<path d="M60.3496 51.236C60.6507 51.236 60.8949 50.9921 60.8949 50.6913C60.8949 50.3904 60.6507 50.1465 60.3496 50.1465C60.0484 50.1465 59.8042 50.3904 59.8042 50.6913C59.8042 50.9921 60.0484 51.236 60.3496 51.236Z" fill="#6A2383"/>
<path d="M56.0761 50.3757C56.3773 50.3757 56.6215 50.1318 56.6215 49.8309C56.6215 49.53 56.3773 49.2861 56.0761 49.2861C55.7749 49.2861 55.5308 49.53 55.5308 49.8309C55.5308 50.1318 55.7749 50.3757 56.0761 50.3757Z" fill="#6A2383"/>
<path d="M51.8205 49.4196C52.0016 49.4196 52.1484 49.273 52.1484 49.0921C52.1484 48.9113 52.0016 48.7646 51.8205 48.7646C51.6395 48.7646 51.4927 48.9113 51.4927 49.0921C51.4927 49.273 51.6395 49.4196 51.8205 49.4196Z" fill="#6A2383"/>
<path d="M47.5569 48.6198C47.7379 48.6198 47.8847 48.4732 47.8847 48.2923C47.8847 48.1115 47.7379 47.9648 47.5569 47.9648C47.3758 47.9648 47.229 48.1115 47.229 48.2923C47.229 48.4732 47.3758 48.6198 47.5569 48.6198Z" fill="#6A2383"/>
<path d="M57.5059 53.3527C57.7471 53.3527 57.9425 53.1575 57.9425 52.9166C57.9425 52.6757 57.7471 52.4805 57.5059 52.4805C57.2648 52.4805 57.0693 52.6757 57.0693 52.9166C57.0693 53.1575 57.2648 53.3527 57.5059 53.3527Z" fill="#6A2383"/>
<path d="M58.5073 48.1266C58.8084 48.1266 59.0526 47.8827 59.0526 47.5819C59.0526 47.281 58.8084 47.0371 58.5073 47.0371C58.2061 47.0371 57.9619 47.281 57.9619 47.5819C57.9619 47.8827 58.2061 48.1266 58.5073 48.1266Z" fill="#6A2383"/>
<path d="M53.4196 51.7898C53.6007 51.7898 53.7475 51.6431 53.7475 51.4623C53.7475 51.2814 53.6007 51.1348 53.4196 51.1348C53.2386 51.1348 53.0918 51.2814 53.0918 51.4623C53.0918 51.6431 53.2386 51.7898 53.4196 51.7898Z" fill="#6A2383"/>
<path d="M54.1699 48.0016C54.471 48.0016 54.7152 47.7577 54.7152 47.4569C54.7152 47.156 54.471 46.9121 54.1699 46.9121C53.8687 46.9121 53.6245 47.156 53.6245 47.4569C53.6245 47.7577 53.8687 48.0016 54.1699 48.0016Z" fill="#6A2383"/>
<path d="M49.3337 50.2216C49.4538 50.2216 49.5512 50.1244 49.5512 50.0044C49.5512 49.8844 49.4538 49.7871 49.3337 49.7871C49.2136 49.7871 49.1162 49.8844 49.1162 50.0044C49.1162 50.1244 49.2136 50.2216 49.3337 50.2216Z" fill="#6A2383"/>
<path d="M49.8342 47.6618C50.0153 47.6618 50.162 47.5152 50.162 47.3343C50.162 47.1535 50.0153 47.0068 49.8342 47.0068C49.6531 47.0068 49.5063 47.1535 49.5063 47.3343C49.5063 47.5152 49.6531 47.6618 49.8342 47.6618Z" fill="#6A2383"/>
<path d="M50.5159 31.2769C51.2392 31.2769 51.8257 30.6912 51.8257 29.9686C51.8257 29.2459 51.2392 28.6602 50.5159 28.6602C49.7925 28.6602 49.2061 29.2459 49.2061 29.9686C49.2061 30.6912 49.7925 31.2769 50.5159 31.2769Z" fill="#6A2383"/>
<path d="M48.4844 35.1249C49.0267 35.1249 49.4663 34.6857 49.4663 34.144C49.4663 33.6022 49.0267 33.1631 48.4844 33.1631C47.9421 33.1631 47.5024 33.6022 47.5024 34.144C47.5024 34.6857 47.9421 35.1249 48.4844 35.1249Z" fill="#6A2383"/>
<path d="M46.3577 38.3388C46.7799 38.3388 47.1222 37.9969 47.1222 37.5752C47.1222 37.1534 46.7799 36.8115 46.3577 36.8115C45.9355 36.8115 45.5933 37.1534 45.5933 37.5752C45.5933 37.9969 45.9355 38.3388 46.3577 38.3388Z" fill="#6A2383"/>
<path d="M44.2783 41.9245C44.5794 41.9245 44.8236 41.6806 44.8236 41.3797C44.8236 41.0789 44.5794 40.835 44.2783 40.835C43.9771 40.835 43.7329 41.0789 43.7329 41.3797C43.7329 41.6806 43.9771 41.9245 44.2783 41.9245Z" fill="#6A2383"/>
<path d="M46.9911 31.849C47.5935 31.849 48.0818 31.3612 48.0818 30.7595C48.0818 30.1577 47.5935 29.6699 46.9911 29.6699C46.3887 29.6699 45.9004 30.1577 45.9004 30.7595C45.9004 31.3612 46.3887 31.849 46.9911 31.849Z" fill="#6A2383"/>
<path d="M45.5338 35.7133C46.0161 35.7133 46.407 35.3228 46.407 34.841C46.407 34.3593 46.0161 33.9688 45.5338 33.9688C45.0516 33.9688 44.6606 34.3593 44.6606 34.841C44.6606 35.3228 45.0516 35.7133 45.5338 35.7133Z" fill="#6A2383"/>
<path d="M44.0755 39.5763C44.4367 39.5763 44.7296 39.2838 44.7296 38.9229C44.7296 38.5621 44.4367 38.2695 44.0755 38.2695C43.7142 38.2695 43.4214 38.5621 43.4214 38.9229C43.4214 39.2838 43.7142 39.5763 44.0755 39.5763Z" fill="#6A2383"/>
<path d="M44.7631 29.4439C45.6066 29.4439 46.2904 28.7608 46.2904 27.9182C46.2904 27.0756 45.6066 26.3926 44.7631 26.3926C43.9196 26.3926 43.2358 27.0756 43.2358 27.9182C43.2358 28.7608 43.9196 29.4439 44.7631 29.4439Z" fill="#6A2383"/>
<path d="M44.0243 33.7484C44.6267 33.7484 45.115 33.2606 45.115 32.6589C45.115 32.0571 44.6267 31.5693 44.0243 31.5693C43.4219 31.5693 42.9336 32.0571 42.9336 32.6589C42.9336 33.2606 43.4219 33.7484 44.0243 33.7484Z" fill="#6A2383"/>
<path d="M43.1624 37.2001C43.5846 37.2001 43.9268 36.8582 43.9268 36.4365C43.9268 36.0147 43.5846 35.6729 43.1624 35.6729C42.7402 35.6729 42.3979 36.0147 42.3979 36.4365C42.3979 36.8582 42.7402 37.2001 43.1624 37.2001Z" fill="#6A2383"/>
<path d="M42.361 41.2842C42.686 41.2842 42.9495 41.021 42.9495 40.6963C42.9495 40.3716 42.686 40.1084 42.361 40.1084C42.036 40.1084 41.7725 40.3716 41.7725 40.6963C41.7725 41.021 42.036 41.2842 42.361 41.2842Z" fill="#6A2383"/>
<path d="M41.6555 31.066C42.3789 31.066 42.9653 30.4802 42.9653 29.7576C42.9653 29.035 42.3789 28.4492 41.6555 28.4492C40.9321 28.4492 40.3457 29.035 40.3457 29.7576C40.3457 30.4802 40.9321 31.066 41.6555 31.066Z" fill="#6A2383"/>
<path d="M41.5308 35.0712C42.0731 35.0712 42.5127 34.632 42.5127 34.0903C42.5127 33.5485 42.0731 33.1094 41.5308 33.1094C40.9885 33.1094 40.5488 33.5485 40.5488 34.0903C40.5488 34.632 40.9885 35.0712 41.5308 35.0712Z" fill="#6A2383"/>
<path d="M41.4077 39.1399C41.8051 39.1399 42.1273 38.8181 42.1273 38.421C42.1273 38.024 41.8051 37.7021 41.4077 37.7021C41.0102 37.7021 40.688 38.024 40.688 38.421C40.688 38.8181 41.0102 39.1399 41.4077 39.1399Z" fill="#6A2383"/>
<path d="M40.7151 67.6994C41.0764 67.6994 41.3692 67.4068 41.3692 67.046C41.3692 66.6851 41.0764 66.3926 40.7151 66.3926C40.3539 66.3926 40.061 66.6851 40.061 67.046C40.061 67.4068 40.3539 67.6994 40.7151 67.6994Z" fill="#6A2383"/>
<path d="M42.5623 94.5369C43.5268 94.5369 44.3087 93.7559 44.3087 92.7924C44.3087 91.8289 43.5268 91.0479 42.5623 91.0479C41.5978 91.0479 40.8159 91.8289 40.8159 92.7924C40.8159 93.7559 41.5978 94.5369 42.5623 94.5369Z" fill="#6A2383"/>
<path d="M42.0057 89.6944C42.6691 89.6944 43.2068 89.1573 43.2068 88.4947C43.2068 87.8321 42.6691 87.2949 42.0057 87.2949C41.3424 87.2949 40.8047 87.8321 40.8047 88.4947C40.8047 89.1573 41.3424 89.6944 42.0057 89.6944Z" fill="#6A2383"/>
<path d="M41.4494 85.0697C41.9316 85.0697 42.3226 84.6792 42.3226 84.1975C42.3226 83.7157 41.9316 83.3252 41.4494 83.3252C40.9671 83.3252 40.5762 83.7157 40.5762 84.1975C40.5762 84.6792 40.9671 85.0697 41.4494 85.0697Z" fill="#6A2383"/>
<path d="M40.8927 80.5086C41.2301 80.5086 41.5036 80.2354 41.5036 79.8983C41.5036 79.5613 41.2301 79.2881 40.8927 79.2881C40.5553 79.2881 40.2817 79.5613 40.2817 79.8983C40.2817 80.2354 40.5553 80.5086 40.8927 80.5086Z" fill="#6A2383"/>
<path d="M44.9485 91.3932C45.6719 91.3932 46.2583 90.8074 46.2583 90.0848C46.2583 89.3622 45.6719 88.7764 44.9485 88.7764C44.2251 88.7764 43.6387 89.3622 43.6387 90.0848C43.6387 90.8074 44.2251 91.3932 44.9485 91.3932Z" fill="#6A2383"/>
<path d="M43.7266 86.9071C44.2689 86.9071 44.7085 86.4679 44.7085 85.9262C44.7085 85.3845 44.2689 84.9453 43.7266 84.9453C43.1843 84.9453 42.7446 85.3845 42.7446 85.9262C42.7446 86.4679 43.1843 86.9071 43.7266 86.9071Z" fill="#6A2383"/>
<path d="M42.5034 82.4876C42.9008 82.4876 43.223 82.1657 43.223 81.7687C43.223 81.3717 42.9008 81.0498 42.5034 81.0498C42.1059 81.0498 41.7837 81.3717 41.7837 81.7687C41.7837 82.1657 42.1059 82.4876 42.5034 82.4876Z" fill="#6A2383"/>
<path d="M48.4222 92.8172C49.3867 92.8172 50.1686 92.0361 50.1686 91.0726C50.1686 90.1092 49.3867 89.3281 48.4222 89.3281C47.4577 89.3281 46.6758 90.1092 46.6758 91.0726C46.6758 92.0361 47.4577 92.8172 48.4222 92.8172Z" fill="#6A2383"/>
<path d="M46.5013 87.7679C47.1037 87.7679 47.592 87.2801 47.592 86.6784C47.592 86.0767 47.1037 85.5889 46.5013 85.5889C45.899 85.5889 45.4106 86.0767 45.4106 86.6784C45.4106 87.2801 45.899 87.7679 46.5013 87.7679Z" fill="#6A2383"/>
<path d="M44.7052 84.1146C45.1875 84.1146 45.5784 83.7241 45.5784 83.2424C45.5784 82.7606 45.1875 82.3701 44.7052 82.3701C44.223 82.3701 43.832 82.7606 43.832 83.2424C43.832 83.7241 44.223 84.1146 44.7052 84.1146Z" fill="#6A2383"/>
<path d="M42.8472 79.9363C43.1846 79.9363 43.4582 79.6631 43.4582 79.3261C43.4582 78.989 43.1846 78.7158 42.8472 78.7158C42.5098 78.7158 42.2363 78.989 42.2363 79.3261C42.2363 79.6631 42.5098 79.9363 42.8472 79.9363Z" fill="#6A2383"/>
<path d="M49.7702 88.4176C50.4936 88.4176 51.08 87.8318 51.08 87.1092C51.08 86.3866 50.4936 85.8008 49.7702 85.8008C49.0469 85.8008 48.4604 86.3866 48.4604 87.1092C48.4604 87.8318 49.0469 88.4176 49.7702 88.4176Z" fill="#6A2383"/>
<path d="M47.4048 85.1649C47.9471 85.1649 48.3868 84.7258 48.3868 84.184C48.3868 83.6423 47.9471 83.2031 47.4048 83.2031C46.8625 83.2031 46.4229 83.6423 46.4229 84.184C46.4229 84.7258 46.8625 85.1649 47.4048 85.1649Z" fill="#6A2383"/>
<path d="M44.9565 81.3245C45.3539 81.3245 45.6762 81.0027 45.6762 80.6056C45.6762 80.2086 45.3539 79.8867 44.9565 79.8867C44.559 79.8867 44.2368 80.2086 44.2368 80.6056C44.2368 81.0027 44.559 81.3245 44.9565 81.3245Z" fill="#6A2383"/>
<path d="M53.4649 89.5906C54.5495 89.5906 55.4288 88.7123 55.4288 87.6288C55.4288 86.5453 54.5495 85.667 53.4649 85.667C52.3802 85.667 51.501 86.5453 51.501 87.6288C51.501 88.7123 52.3802 89.5906 53.4649 89.5906Z" fill="#6A2383"/>
<path d="M50.4227 85.0882C51.0251 85.0882 51.5134 84.6004 51.5134 83.9987C51.5134 83.397 51.0251 82.9092 50.4227 82.9092C49.8204 82.9092 49.332 83.397 49.332 83.9987C49.332 84.6004 49.8204 85.0882 50.4227 85.0882Z" fill="#6A2383"/>
<path d="M47.5055 82.1996C47.9878 82.1996 48.3787 81.8091 48.3787 81.3273C48.3787 80.8456 47.9878 80.4551 47.5055 80.4551C47.0233 80.4551 46.6323 80.8456 46.6323 81.3273C46.6323 81.8091 47.0233 82.1996 47.5055 82.1996Z" fill="#6A2383"/>
<path d="M44.5279 78.7879C44.8653 78.7879 45.1388 78.5147 45.1388 78.1776C45.1388 77.8406 44.8653 77.5674 44.5279 77.5674C44.1905 77.5674 43.917 77.8406 43.917 78.1776C43.917 78.5147 44.1905 78.7879 44.5279 78.7879Z" fill="#6A2383"/>
<path d="M53.8019 84.6894C54.1623 84.6894 54.4544 84.3975 54.4544 84.0375C54.4544 83.6776 54.1623 83.3857 53.8019 83.3857C53.4415 83.3857 53.1494 83.6776 53.1494 84.0375C53.1494 84.3975 53.4415 84.6894 53.8019 84.6894Z" fill="#6A2383"/>
<path d="M50.3651 81.9516C50.6751 81.9516 50.9264 81.7005 50.9264 81.3908C50.9264 81.0811 50.6751 80.8301 50.3651 80.8301C50.055 80.8301 49.8037 81.0811 49.8037 81.3908C49.8037 81.7005 50.055 81.9516 50.3651 81.9516Z" fill="#6A2383"/>
<path d="M46.9298 79.216C47.1904 79.216 47.4016 79.005 47.4016 78.7447C47.4016 78.4844 47.1904 78.2734 46.9298 78.2734C46.6692 78.2734 46.458 78.4844 46.458 78.7447C46.458 79.005 46.6692 79.216 46.9298 79.216Z" fill="#6A2383"/>
<path d="M53.7175 84.6939C54.4409 84.6939 55.0273 84.1082 55.0273 83.3855C55.0273 82.6629 54.4409 82.0771 53.7175 82.0771C52.9941 82.0771 52.4077 82.6629 52.4077 83.3855C52.4077 84.1082 52.9941 84.6939 53.7175 84.6939Z" fill="#6A2383"/>
<path d="M50.3653 82.3719C50.9076 82.3719 51.3472 81.9328 51.3472 81.3911C51.3472 80.8493 50.9076 80.4102 50.3653 80.4102C49.8229 80.4102 49.3833 80.8493 49.3833 81.3911C49.3833 81.9328 49.8229 82.3719 50.3653 82.3719Z" fill="#6A2383"/>
<path d="M46.9301 79.4632C47.3276 79.4632 47.6498 79.1413 47.6498 78.7443C47.6498 78.3473 47.3276 78.0254 46.9301 78.0254C46.5327 78.0254 46.2104 78.3473 46.2104 78.7443C46.2104 79.1413 46.5327 79.4632 46.9301 79.4632Z" fill="#6A2383"/>
<path d="M57.1944 84.7595C58.279 84.7595 59.1583 83.8812 59.1583 82.7977C59.1583 81.7143 58.279 80.8359 57.1944 80.8359C56.1097 80.8359 55.2305 81.7143 55.2305 82.7977C55.2305 83.8812 56.1097 84.7595 57.1944 84.7595Z" fill="#6A2383"/>
<path d="M53.3241 81.3294C53.9265 81.3294 54.4148 80.8416 54.4148 80.2399C54.4148 79.6382 53.9265 79.1504 53.3241 79.1504C52.7217 79.1504 52.2334 79.6382 52.2334 80.2399C52.2334 80.8416 52.7217 81.3294 53.3241 81.3294Z" fill="#6A2383"/>
<path d="M49.5783 79.516C50.0605 79.516 50.4515 79.1255 50.4515 78.6437C50.4515 78.162 50.0605 77.7715 49.5783 77.7715C49.096 77.7715 48.7051 78.162 48.7051 78.6437C48.7051 79.1255 49.096 79.516 49.5783 79.516Z" fill="#6A2383"/>
<path d="M45.7706 77.1776C46.108 77.1776 46.3815 76.9043 46.3815 76.5673C46.3815 76.2303 46.108 75.957 45.7706 75.957C45.4332 75.957 45.1597 76.2303 45.1597 76.5673C45.1597 76.9043 45.4332 77.1776 45.7706 77.1776Z" fill="#6A2383"/>
<path d="M56.3191 79.9332C57.0425 79.9332 57.6289 79.3474 57.6289 78.6248C57.6289 77.9022 57.0425 77.3164 56.3191 77.3164C55.5957 77.3164 55.0093 77.9022 55.0093 78.6248C55.0093 79.3474 55.5957 79.9332 56.3191 79.9332Z" fill="#6A2383"/>
<path d="M52.3179 78.8007C52.8602 78.8007 53.2998 78.3615 53.2998 77.8198C53.2998 77.278 52.8602 76.8389 52.3179 76.8389C51.7756 76.8389 51.3359 77.278 51.3359 77.8198C51.3359 78.3615 51.7756 78.8007 52.3179 78.8007Z" fill="#6A2383"/>
<path d="M48.2319 77.0833C48.6293 77.0833 48.9515 76.7614 48.9515 76.3644C48.9515 75.9674 48.6293 75.6455 48.2319 75.6455C47.8344 75.6455 47.5122 75.9674 47.5122 76.3644C47.5122 76.7614 47.8344 77.0833 48.2319 77.0833Z" fill="#6A2383"/>
<path d="M59.2459 78.7957C60.2104 78.7957 60.9923 78.0146 60.9923 77.0512C60.9923 76.0877 60.2104 75.3066 59.2459 75.3066C58.2814 75.3066 57.4995 76.0877 57.4995 77.0512C57.4995 78.0146 58.2814 78.7957 59.2459 78.7957Z" fill="#6A2383"/>
<path d="M54.9198 76.8607C55.5222 76.8607 56.0105 76.3729 56.0105 75.7712C56.0105 75.1694 55.5222 74.6816 54.9198 74.6816C54.3174 74.6816 53.8291 75.1694 53.8291 75.7712C53.8291 76.3729 54.3174 76.8607 54.9198 76.8607Z" fill="#6A2383"/>
<path d="M50.7189 76.3227C51.2012 76.3227 51.5921 75.9321 51.5921 75.4504C51.5921 74.9687 51.2012 74.5781 50.7189 74.5781C50.2366 74.5781 49.8457 74.9687 49.8457 75.4504C49.8457 75.9321 50.2366 76.3227 50.7189 76.3227Z" fill="#6A2383"/>
<path d="M46.4552 75.2625C46.7926 75.2625 47.0661 74.9893 47.0661 74.6523C47.0661 74.3152 46.7926 74.042 46.4552 74.042C46.1178 74.042 45.8442 74.3152 45.8442 74.6523C45.8442 74.9893 46.1178 75.2625 46.4552 75.2625Z" fill="#6A2383"/>
<path d="M57.3205 74.6041C58.0439 74.6041 58.6303 74.0183 58.6303 73.2957C58.6303 72.5731 58.0439 71.9873 57.3205 71.9873C56.5972 71.9873 56.0107 72.5731 56.0107 73.2957C56.0107 74.0183 56.5972 74.6041 57.3205 74.6041Z" fill="#6A2383"/>
<path d="M53.0679 74.8036C53.6102 74.8036 54.0498 74.3644 54.0498 73.8227C54.0498 73.281 53.6102 72.8418 53.0679 72.8418C52.5256 72.8418 52.0859 73.281 52.0859 73.8227C52.0859 74.3644 52.5256 74.8036 53.0679 74.8036Z" fill="#6A2383"/>
<path d="M48.7324 74.4183C49.1298 74.4183 49.452 74.0964 49.452 73.6994C49.452 73.3023 49.1298 72.9805 48.7324 72.9805C48.3349 72.9805 48.0127 73.3023 48.0127 73.6994C48.0127 74.0964 48.3349 74.4183 48.7324 74.4183Z" fill="#6A2383"/>
<path d="M59.4202 72.6961C60.3847 72.6961 61.1666 71.915 61.1666 70.9516C61.1666 69.9881 60.3847 69.207 59.4202 69.207C58.4557 69.207 57.6738 69.9881 57.6738 70.9516C57.6738 71.915 58.4557 72.6961 59.4202 72.6961Z" fill="#6A2383"/>
<path d="M55.0562 72.1178C55.6594 72.1178 56.1485 71.6293 56.1485 71.0267C56.1485 70.4241 55.6594 69.9355 55.0562 69.9355C54.4529 69.9355 53.9639 70.4241 53.9639 71.0267C53.9639 71.6293 54.4529 72.1178 55.0562 72.1178Z" fill="#6A2383"/>
<path d="M50.8146 72.935C51.2969 72.935 51.6878 72.5444 51.6878 72.0627C51.6878 71.581 51.2969 71.1904 50.8146 71.1904C50.3323 71.1904 49.9414 71.581 49.9414 72.0627C49.9414 72.5444 50.3323 72.935 50.8146 72.935Z" fill="#6A2383"/>
<path d="M46.5128 73.2283C46.8502 73.2283 47.1237 72.9551 47.1237 72.6181C47.1237 72.281 46.8502 72.0078 46.5128 72.0078C46.1754 72.0078 45.9019 72.281 45.9019 72.6181C45.9019 72.9551 46.1754 73.2283 46.5128 73.2283Z" fill="#6A2383"/>
<path d="M56.639 69.2238C57.3024 69.2238 57.8401 68.6866 57.8401 68.024C57.8401 67.3614 57.3024 66.8242 56.639 66.8242C55.9757 66.8242 55.438 67.3614 55.438 68.024C55.438 68.6866 55.9757 69.2238 56.639 69.2238Z" fill="#6A2383"/>
<path d="M52.5469 70.7684C53.0892 70.7684 53.5288 70.3293 53.5288 69.7875C53.5288 69.2458 53.0892 68.8066 52.5469 68.8066C52.0046 68.8066 51.5649 69.2458 51.5649 69.7875C51.5649 70.3293 52.0046 70.7684 52.5469 70.7684Z" fill="#6A2383"/>
<path d="M48.3837 71.7278C48.7812 71.7278 49.1034 71.406 49.1034 71.0089C49.1034 70.6119 48.7812 70.29 48.3837 70.29C47.9863 70.29 47.6641 70.6119 47.6641 71.0089C47.6641 71.406 47.9863 71.7278 48.3837 71.7278Z" fill="#6A2383"/>
<path d="M57.6997 66.6226C58.5432 66.6226 59.227 65.9396 59.227 65.097C59.227 64.2544 58.5432 63.5713 57.6997 63.5713C56.8562 63.5713 56.1724 64.2544 56.1724 65.097C56.1724 65.9396 56.8562 66.6226 57.6997 66.6226Z" fill="#6A2383"/>
<path d="M53.732 67.5624C54.2743 67.5624 54.7139 67.1232 54.7139 66.5815C54.7139 66.0397 54.2743 65.6006 53.732 65.6006C53.1896 65.6006 52.75 66.0397 52.75 66.5815C52.75 67.1232 53.1896 67.5624 53.732 67.5624Z" fill="#6A2383"/>
<path d="M49.8585 69.682C50.3408 69.682 50.7317 69.2915 50.7317 68.8098C50.7317 68.328 50.3408 67.9375 49.8585 67.9375C49.3763 67.9375 48.9854 68.328 48.9854 68.8098C48.9854 69.2915 49.3763 69.682 49.8585 69.682Z" fill="#6A2383"/>
<path d="M45.9386 71.2762C46.276 71.2762 46.5495 71.003 46.5495 70.6659C46.5495 70.3289 46.276 70.0557 45.9386 70.0557C45.6012 70.0557 45.3276 70.3289 45.3276 70.6659C45.3276 71.003 45.6012 71.2762 45.9386 71.2762Z" fill="#6A2383"/>
<path d="M54.3265 64.3207C54.9289 64.3207 55.4172 63.8329 55.4172 63.2311C55.4172 62.6294 54.9289 62.1416 54.3265 62.1416C53.7242 62.1416 53.2358 62.6294 53.2358 63.2311C53.2358 63.8329 53.7242 64.3207 54.3265 64.3207Z" fill="#6A2383"/>
<path d="M50.8019 66.9857C51.2842 66.9857 51.6751 66.5952 51.6751 66.1135C51.6751 65.6317 51.2842 65.2412 50.8019 65.2412C50.3197 65.2412 49.9287 65.6317 49.9287 66.1135C49.9287 66.5952 50.3197 66.9857 50.8019 66.9857Z" fill="#6A2383"/>
<path d="M47.2211 69.2776C47.6186 69.2776 47.9408 68.9558 47.9408 68.5587C47.9408 68.1617 47.6186 67.8398 47.2211 67.8398C46.8237 67.8398 46.5015 68.1617 46.5015 68.5587C46.5015 68.9558 46.8237 69.2776 47.2211 69.2776Z" fill="#6A2383"/>
<path d="M54.2517 61.3687C54.9751 61.3687 55.5615 60.783 55.5615 60.0604C55.5615 59.3377 54.9751 58.752 54.2517 58.752C53.5283 58.752 52.9419 59.3377 52.9419 60.0604C52.9419 60.783 53.5283 61.3687 54.2517 61.3687Z" fill="#6A2383"/>
<path d="M51.0641 63.6449C51.5464 63.6449 51.9373 63.2544 51.9373 62.7726C51.9373 62.2909 51.5464 61.9004 51.0641 61.9004C50.5819 61.9004 50.1909 62.2909 50.1909 62.7726C50.1909 63.2544 50.5819 63.6449 51.0641 63.6449Z" fill="#6A2383"/>
<path d="M47.944 66.8842C48.4263 66.8842 48.8172 66.4936 48.8172 66.0119C48.8172 65.5302 48.4263 65.1396 47.944 65.1396C47.4617 65.1396 47.0708 65.5302 47.0708 66.0119C47.0708 66.4936 47.4617 66.8842 47.944 66.8842Z" fill="#6A2383"/>
<path d="M44.7901 69.5975C45.1275 69.5975 45.401 69.3243 45.401 68.9872C45.401 68.6502 45.1275 68.377 44.7901 68.377C44.4527 68.377 44.1792 68.6502 44.1792 68.9872C44.1792 69.3243 44.4527 69.5975 44.7901 69.5975Z" fill="#6A2383"/>
<path d="M50.6549 60.3749C51.0153 60.3749 51.3074 60.0831 51.3074 59.7231C51.3074 59.3631 51.0153 59.0713 50.6549 59.0713C50.2946 59.0713 50.0024 59.3631 50.0024 59.7231C50.0024 60.0831 50.2946 60.3749 50.6549 60.3749Z" fill="#6A2383"/>
<path d="M48.0062 63.7162C48.3162 63.7162 48.5675 63.4652 48.5675 63.1555C48.5675 62.8458 48.3162 62.5947 48.0062 62.5947C47.6961 62.5947 47.4448 62.8458 47.4448 63.1555C47.4448 63.4652 47.6961 63.7162 48.0062 63.7162Z" fill="#6A2383"/>
<path d="M45.3565 67.0588C45.6171 67.0588 45.8283 66.8478 45.8283 66.5875C45.8283 66.3272 45.6171 66.1162 45.3565 66.1162C45.096 66.1162 44.8848 66.3272 44.8848 66.5875C44.8848 66.8478 45.096 67.0588 45.3565 67.0588Z" fill="#6A2383"/>
<path d="M50.6133 60.3778C51.1556 60.3778 51.5952 59.9386 51.5952 59.3969C51.5952 58.8552 51.1556 58.416 50.6133 58.416C50.071 58.416 49.6313 58.8552 49.6313 59.3969C49.6313 59.9386 50.071 60.3778 50.6133 60.3778Z" fill="#6A2383"/>
<path d="M48.0065 64.0277C48.4888 64.0277 48.8797 63.6372 48.8797 63.1555C48.8797 62.6737 48.4888 62.2832 48.0065 62.2832C47.5242 62.2832 47.1333 62.6737 47.1333 63.1555C47.1333 63.6372 47.5242 64.0277 48.0065 64.0277Z" fill="#6A2383"/>
<path d="M45.3564 67.3069C45.7539 67.3069 46.0761 66.9851 46.0761 66.588C46.0761 66.191 45.7539 65.8691 45.3564 65.8691C44.9589 65.8691 44.6367 66.191 44.6367 66.588C44.6367 66.9851 44.9589 67.3069 45.3564 67.3069Z" fill="#6A2383"/>
<path d="M49.4139 57.4242C50.0163 57.4242 50.5046 56.9364 50.5046 56.3347C50.5046 55.7329 50.0163 55.2451 49.4139 55.2451C48.8116 55.2451 48.3232 55.7329 48.3232 56.3347C48.3232 56.9364 48.8116 57.4242 49.4139 57.4242Z" fill="#6A2383"/>
<path d="M47.3009 60.7465C47.7832 60.7465 48.1741 60.356 48.1741 59.8742C48.1741 59.3925 47.7832 59.002 47.3009 59.002C46.8187 59.002 46.4277 59.3925 46.4277 59.8742C46.4277 60.356 46.8187 60.7465 47.3009 60.7465Z" fill="#6A2383"/>
<path d="M45.2555 64.8139C45.7378 64.8139 46.1287 64.4233 46.1287 63.9416C46.1287 63.4599 45.7378 63.0693 45.2555 63.0693C44.7733 63.0693 44.3823 63.4599 44.3823 63.9416C44.3823 64.4233 44.7733 64.8139 45.2555 64.8139Z" fill="#6A2383"/>
<path d="M43.1763 68.3553C43.5138 68.3553 43.7873 68.0821 43.7873 67.745C43.7873 67.408 43.5138 67.1348 43.1763 67.1348C42.8389 67.1348 42.5654 67.408 42.5654 67.745C42.5654 68.0821 42.8389 68.3553 43.1763 68.3553Z" fill="#6A2383"/>
<path d="M45.8618 57.8856C46.4041 57.8856 46.8438 57.4465 46.8438 56.9047C46.8438 56.363 46.4041 55.9238 45.8618 55.9238C45.3195 55.9238 44.8799 56.363 44.8799 56.9047C44.8799 57.4465 45.3195 57.8856 45.8618 57.8856Z" fill="#6A2383"/>
<path d="M44.4318 62.0775C44.914 62.0775 45.305 61.687 45.305 61.2053C45.305 60.7235 44.914 60.333 44.4318 60.333C43.9495 60.333 43.5586 60.7235 43.5586 61.2053C43.5586 61.687 43.9495 62.0775 44.4318 62.0775Z" fill="#6A2383"/>
<path d="M42.975 66.0062C43.3725 66.0062 43.6947 65.6843 43.6947 65.2873C43.6947 64.8902 43.3725 64.5684 42.975 64.5684C42.5776 64.5684 42.2554 64.8902 42.2554 65.2873C42.2554 65.6843 42.5776 66.0062 42.975 66.0062Z" fill="#6A2383"/>
<path d="M44.1375 55.2228C44.4987 55.2228 44.7916 54.9303 44.7916 54.5694C44.7916 54.2086 44.4987 53.916 44.1375 53.916C43.7762 53.916 43.4834 54.2086 43.4834 54.5694C43.4834 54.9303 43.7762 55.2228 44.1375 55.2228Z" fill="#6A2383"/>
<path d="M42.8263 59.1527C43.3086 59.1527 43.6995 58.7622 43.6995 58.2805C43.6995 57.7987 43.3086 57.4082 42.8263 57.4082C42.3441 57.4082 41.9531 57.7987 41.9531 58.2805C41.9531 58.7622 42.3441 59.1527 42.8263 59.1527Z" fill="#6A2383"/>
<path d="M42.0602 63.6752C42.5425 63.6752 42.9334 63.2847 42.9334 62.8029C42.9334 62.3212 42.5425 61.9307 42.0602 61.9307C41.578 61.9307 41.187 62.3212 41.187 62.8029C41.187 63.2847 41.578 63.6752 42.0602 63.6752Z" fill="#6A2383"/>
<path d="M20.6973 76.6479C21.0824 76.6479 21.3946 76.3361 21.3946 75.9514C21.3946 75.5667 21.0824 75.2549 20.6973 75.2549C20.3122 75.2549 20 75.5667 20 75.9514C20 76.3361 20.3122 76.6479 20.6973 76.6479Z" fill="#6A2383"/>
<path d="M24.9946 76.0034C25.3567 76.0034 25.6503 75.7101 25.6503 75.3484C25.6503 74.9866 25.3567 74.6934 24.9946 74.6934C24.6324 74.6934 24.3389 74.9866 24.3389 75.3484C24.3389 75.7101 24.6324 76.0034 24.9946 76.0034Z" fill="#6A2383"/>
<path d="M29.3028 75.2766C29.5439 75.2766 29.7394 75.0813 29.7394 74.8404C29.7394 74.5996 29.5439 74.4043 29.3028 74.4043C29.0617 74.4043 28.8662 74.5996 28.8662 74.8404C28.8662 75.0813 29.0617 75.2766 29.3028 75.2766Z" fill="#6A2383"/>
<path d="M33.6049 74.6553C33.8098 74.6553 33.9759 74.4894 33.9759 74.2847C33.9759 74.08 33.8098 73.9141 33.6049 73.9141C33.4 73.9141 33.2339 74.08 33.2339 74.2847C33.2339 74.4894 33.4 74.6553 33.6049 74.6553Z" fill="#6A2383"/>
<path d="M23.408 78.9894C23.7693 78.9894 24.0621 78.6969 24.0621 78.336C24.0621 77.9752 23.7693 77.6826 23.408 77.6826C23.0468 77.6826 22.7539 77.9752 22.7539 78.336C22.7539 78.6969 23.0468 78.9894 23.408 78.9894Z" fill="#6A2383"/>
<path d="M27.5711 77.7687C27.9323 77.7687 28.2252 77.4762 28.2252 77.1153C28.2252 76.7545 27.9323 76.4619 27.5711 76.4619C27.2098 76.4619 26.917 76.7545 26.917 77.1153C26.917 77.4762 27.2098 77.7687 27.5711 77.7687Z" fill="#6A2383"/>
<path d="M31.734 76.3312C31.9751 76.3312 32.1706 76.136 32.1706 75.8951C32.1706 75.6542 31.9751 75.459 31.734 75.459C31.4928 75.459 31.2974 75.6542 31.2974 75.8951C31.2974 76.136 31.4928 76.3312 31.734 76.3312Z" fill="#6A2383"/>
<path d="M22.4181 82.6801C22.9004 82.6801 23.2913 82.2896 23.2913 81.8078C23.2913 81.3261 22.9004 80.9355 22.4181 80.9355C21.9359 80.9355 21.5449 81.3261 21.5449 81.8078C21.5449 82.2896 21.9359 82.6801 22.4181 82.6801Z" fill="#6A2383"/>
<path d="M26.3186 80.5585C26.7408 80.5585 27.0831 80.2166 27.0831 79.7949C27.0831 79.3731 26.7408 79.0312 26.3186 79.0312C25.8965 79.0312 25.5542 79.3731 25.5542 79.7949C25.5542 80.2166 25.8965 80.5585 26.3186 80.5585Z" fill="#6A2383"/>
<path d="M30.2592 78.6374C30.5604 78.6374 30.8046 78.3935 30.8046 78.0926C30.8046 77.7917 30.5604 77.5479 30.2592 77.5479C29.958 77.5479 29.7139 77.7917 29.7139 78.0926C29.7139 78.3935 29.958 78.6374 30.2592 78.6374Z" fill="#6A2383"/>
<path d="M34.1793 76.673C34.4204 76.673 34.6159 76.4778 34.6159 76.2369C34.6159 75.996 34.4204 75.8008 34.1793 75.8008C33.9381 75.8008 33.7427 75.996 33.7427 76.2369C33.7427 76.4778 33.9381 76.673 34.1793 76.673Z" fill="#6A2383"/>
<path d="M25.7352 84.0009C26.1573 84.0009 26.4996 83.659 26.4996 83.2373C26.4996 82.8155 26.1573 82.4736 25.7352 82.4736C25.313 82.4736 24.9707 82.8155 24.9707 83.2373C24.9707 83.659 25.313 84.0009 25.7352 84.0009Z" fill="#6A2383"/>
<path d="M29.3157 81.4445C29.677 81.4445 29.9698 81.152 29.9698 80.7911C29.9698 80.4302 29.677 80.1377 29.3157 80.1377C28.9545 80.1377 28.6616 80.4302 28.6616 80.7911C28.6616 81.152 28.9545 81.4445 29.3157 81.4445Z" fill="#6A2383"/>
<path d="M32.8964 78.8884C33.1976 78.8884 33.4418 78.6445 33.4418 78.3436C33.4418 78.0427 33.1976 77.7988 32.8964 77.7988C32.5952 77.7988 32.3511 78.0427 32.3511 78.3436C32.3511 78.6445 32.5952 78.8884 32.8964 78.8884Z" fill="#6A2383"/>
<path d="M25.8661 87.932C26.4685 87.932 26.9568 87.4442 26.9568 86.8425C26.9568 86.2407 26.4685 85.7529 25.8661 85.7529C25.2637 85.7529 24.7754 86.2407 24.7754 86.8425C24.7754 87.4442 25.2637 87.932 25.8661 87.932Z" fill="#6A2383"/>
<path d="M28.9865 84.475C29.4687 84.475 29.8597 84.0845 29.8597 83.6027C29.8597 83.121 29.4687 82.7305 28.9865 82.7305C28.5042 82.7305 28.1133 83.121 28.1133 83.6027C28.1133 84.0845 28.5042 84.475 28.9865 84.475Z" fill="#6A2383"/>
<path d="M32.1736 81.5451C32.5349 81.5451 32.8277 81.2525 32.8277 80.8917C32.8277 80.5308 32.5349 80.2383 32.1736 80.2383C31.8124 80.2383 31.5195 80.5308 31.5195 80.8917C31.5195 81.2525 31.8124 81.5451 32.1736 81.5451Z" fill="#6A2383"/>
<path d="M35.3274 78.4173C35.6047 78.4173 35.8295 78.1927 35.8295 77.9157C35.8295 77.6387 35.6047 77.4141 35.3274 77.4141C35.05 77.4141 34.8252 77.6387 34.8252 77.9157C34.8252 78.1927 35.05 78.4173 35.3274 78.4173Z" fill="#6A2383"/>
<path d="M29.463 87.8319C29.8234 87.8319 30.1155 87.5401 30.1155 87.1801C30.1155 86.8201 29.8234 86.5283 29.463 86.5283C29.1027 86.5283 28.8105 86.8201 28.8105 87.1801C28.8105 87.5401 29.1027 87.8319 29.463 87.8319Z" fill="#6A2383"/>
<path d="M32.1111 84.309C32.4212 84.309 32.6725 84.0579 32.6725 83.7482C32.6725 83.4386 32.4212 83.1875 32.1111 83.1875C31.8011 83.1875 31.5498 83.4386 31.5498 83.7482C31.5498 84.0579 31.8011 84.309 32.1111 84.309Z" fill="#6A2383"/>
<path d="M34.7613 80.7883C35.0219 80.7883 35.2331 80.5773 35.2331 80.317C35.2331 80.0567 35.0219 79.8457 34.7613 79.8457C34.5008 79.8457 34.2896 80.0567 34.2896 80.317C34.2896 80.5773 34.5008 80.7883 34.7613 80.7883Z" fill="#6A2383"/>
<path d="M29.463 88.0521C29.9453 88.0521 30.3362 87.6616 30.3362 87.1799C30.3362 86.6981 29.9453 86.3076 29.463 86.3076C28.9808 86.3076 28.5898 86.6981 28.5898 87.1799C28.5898 87.6616 28.9808 88.0521 29.463 88.0521Z" fill="#6A2383"/>
<path d="M32.1111 84.5126C32.5333 84.5126 32.8756 84.1707 32.8756 83.749C32.8756 83.3272 32.5333 82.9854 32.1111 82.9854C31.6889 82.9854 31.3467 83.3272 31.3467 83.749C31.3467 84.1707 31.6889 84.5126 32.1111 84.5126Z" fill="#6A2383"/>
<path d="M34.7613 80.9266C35.0987 80.9266 35.3722 80.6534 35.3722 80.3163C35.3722 79.9793 35.0987 79.7061 34.7613 79.7061C34.4239 79.7061 34.1504 79.9793 34.1504 80.3163C34.1504 80.6534 34.4239 80.9266 34.7613 80.9266Z" fill="#6A2383"/>
<path d="M20.8701 70.3913C21.1712 70.3913 21.4154 70.1474 21.4154 69.8465C21.4154 69.5457 21.1712 69.3018 20.8701 69.3018C20.5689 69.3018 20.3247 69.5457 20.3247 69.8465C20.3247 70.1474 20.5689 70.3913 20.8701 70.3913Z" fill="#6A2383"/>
<path d="M25.1415 71.2507C25.4427 71.2507 25.6869 71.0068 25.6869 70.7059C25.6869 70.405 25.4427 70.1611 25.1415 70.1611C24.8404 70.1611 24.5962 70.405 24.5962 70.7059C24.5962 71.0068 24.8404 71.2507 25.1415 71.2507Z" fill="#6A2383"/>
<path d="M29.3991 71.7732C29.5802 71.7732 29.727 71.6265 29.727 71.4457C29.727 71.2648 29.5802 71.1182 29.3991 71.1182C29.2181 71.1182 29.0713 71.2648 29.0713 71.4457C29.0713 71.6265 29.2181 71.7732 29.3991 71.7732Z" fill="#6A2383"/>
<path d="M33.6623 72.572C33.8434 72.572 33.9902 72.4254 33.9902 72.2445C33.9902 72.0636 33.8434 71.917 33.6623 71.917C33.4813 71.917 33.3345 72.0636 33.3345 72.2445C33.3345 72.4254 33.4813 72.572 33.6623 72.572Z" fill="#6A2383"/>
<path d="M23.7135 68.0559C23.9546 68.0559 24.1501 67.8606 24.1501 67.6197C24.1501 67.3789 23.9546 67.1836 23.7135 67.1836C23.4723 67.1836 23.2769 67.3789 23.2769 67.6197C23.2769 67.8606 23.4723 68.0559 23.7135 68.0559Z" fill="#6A2383"/>
<path d="M22.7123 73.5016C23.0135 73.5016 23.2577 73.2577 23.2577 72.9569C23.2577 72.656 23.0135 72.4121 22.7123 72.4121C22.4112 72.4121 22.167 72.656 22.167 72.9569C22.167 73.2577 22.4112 73.5016 22.7123 73.5016Z" fill="#6A2383"/>
<path d="M27.7995 69.404C27.9806 69.404 28.1274 69.2574 28.1274 69.0765C28.1274 68.8957 27.9806 68.749 27.7995 68.749C27.6185 68.749 27.4717 68.8957 27.4717 69.0765C27.4717 69.2574 27.6185 69.404 27.7995 69.404Z" fill="#6A2383"/>
<path d="M27.0497 73.6247C27.3509 73.6247 27.5951 73.3808 27.5951 73.0799C27.5951 72.7791 27.3509 72.5352 27.0497 72.5352C26.7486 72.5352 26.5044 72.7791 26.5044 73.0799C26.5044 73.3808 26.7486 73.6247 27.0497 73.6247Z" fill="#6A2383"/>
<path d="M31.886 70.749C32.0061 70.749 32.1035 70.6517 32.1035 70.5317C32.1035 70.4117 32.0061 70.3145 31.886 70.3145C31.7658 70.3145 31.6685 70.4117 31.6685 70.5317C31.6685 70.6517 31.7658 70.749 31.886 70.749Z" fill="#6A2383"/>
<path d="M31.385 73.532C31.566 73.532 31.7128 73.3853 31.7128 73.2045C31.7128 73.0236 31.566 72.877 31.385 72.877C31.2039 72.877 31.0571 73.0236 31.0571 73.2045C31.0571 73.3853 31.2039 73.532 31.385 73.532Z" fill="#6A2383"/>
<path d="M30.7038 91.8766C31.4272 91.8766 32.0136 91.2908 32.0136 90.5682C32.0136 89.8456 31.4272 89.2598 30.7038 89.2598C29.9805 89.2598 29.394 89.8456 29.394 90.5682C29.394 91.2908 29.9805 91.8766 30.7038 91.8766Z" fill="#6A2383"/>
<path d="M32.7349 87.3749C33.2772 87.3749 33.7168 86.9357 33.7168 86.394C33.7168 85.8523 33.2772 85.4131 32.7349 85.4131C32.1926 85.4131 31.7529 85.8523 31.7529 86.394C31.7529 86.9357 32.1926 87.3749 32.7349 87.3749Z" fill="#6A2383"/>
<path d="M34.8621 83.7245C35.2843 83.7245 35.6266 83.3826 35.6266 82.9609C35.6266 82.5392 35.2843 82.1973 34.8621 82.1973C34.4399 82.1973 34.0977 82.5392 34.0977 82.9609C34.0977 83.3826 34.4399 83.7245 34.8621 83.7245Z" fill="#6A2383"/>
<path d="M36.9409 79.7018C37.242 79.7018 37.4862 79.4579 37.4862 79.1571C37.4862 78.8562 37.242 78.6123 36.9409 78.6123C36.6397 78.6123 36.3955 78.8562 36.3955 79.1571C36.3955 79.4579 36.6397 79.7018 36.9409 79.7018Z" fill="#6A2383"/>
<path d="M34.2289 90.8685C34.8313 90.8685 35.3196 90.3807 35.3196 89.779C35.3196 89.1773 34.8313 88.6895 34.2289 88.6895C33.6265 88.6895 33.1382 89.1773 33.1382 89.779C33.1382 90.3807 33.6265 90.8685 34.2289 90.8685Z" fill="#6A2383"/>
<path d="M35.6857 86.5697C36.168 86.5697 36.5589 86.1792 36.5589 85.6975C36.5589 85.2157 36.168 84.8252 35.6857 84.8252C35.2034 84.8252 34.8125 85.2157 34.8125 85.6975C34.8125 86.1792 35.2034 86.5697 35.6857 86.5697Z" fill="#6A2383"/>
<path d="M37.1443 82.2687C37.5056 82.2687 37.7984 81.9762 37.7984 81.6153C37.7984 81.2545 37.5056 80.9619 37.1443 80.9619C36.7831 80.9619 36.4902 81.2545 36.4902 81.6153C36.4902 81.9762 36.7831 82.2687 37.1443 82.2687Z" fill="#6A2383"/>
<path d="M36.4565 94.1451C37.3 94.1451 37.9838 93.462 37.9838 92.6194C37.9838 91.7768 37.3 91.0938 36.4565 91.0938C35.613 91.0938 34.9292 91.7768 34.9292 92.6194C34.9292 93.462 35.613 94.1451 36.4565 94.1451Z" fill="#6A2383"/>
<path d="M37.1952 88.9691C37.7976 88.9691 38.2859 88.4813 38.2859 87.8796C38.2859 87.2778 37.7976 86.79 37.1952 86.79C36.5928 86.79 36.1045 87.2778 36.1045 87.8796C36.1045 88.4813 36.5928 88.9691 37.1952 88.9691Z" fill="#6A2383"/>
<path d="M38.0574 84.8632C38.4796 84.8632 38.8219 84.5213 38.8219 84.0996C38.8219 83.6778 38.4796 83.3359 38.0574 83.3359C37.6352 83.3359 37.293 83.6778 37.293 84.0996C37.293 84.5213 37.6352 84.8632 38.0574 84.8632Z" fill="#6A2383"/>
<path d="M38.8586 80.4287C39.1836 80.4287 39.4471 80.1655 39.4471 79.8408C39.4471 79.5161 39.1836 79.2529 38.8586 79.2529C38.5335 79.2529 38.27 79.5161 38.27 79.8408C38.27 80.1655 38.5335 80.4287 38.8586 80.4287Z" fill="#6A2383"/>
<path d="M39.5637 92.0875C40.2871 92.0875 40.8735 91.5017 40.8735 90.7791C40.8735 90.0565 40.2871 89.4707 39.5637 89.4707C38.8403 89.4707 38.2539 90.0565 38.2539 90.7791C38.2539 91.5017 38.8403 92.0875 39.5637 92.0875Z" fill="#6A2383"/>
<path d="M39.6885 87.4286C40.2308 87.4286 40.6704 86.9894 40.6704 86.4477C40.6704 85.906 40.2308 85.4668 39.6885 85.4668C39.1462 85.4668 38.7065 85.906 38.7065 86.4477C38.7065 86.9894 39.1462 87.4286 39.6885 87.4286Z" fill="#6A2383"/>
<path d="M39.8115 82.8343C40.2089 82.8343 40.5311 82.5124 40.5311 82.1154C40.5311 81.7183 40.2089 81.3965 39.8115 81.3965C39.414 81.3965 39.0918 81.7183 39.0918 82.1154C39.0918 82.5124 39.414 82.8343 39.8115 82.8343Z" fill="#6A2383"/>
<path d="M86.2258 50.3765C85.6811 51.2467 84.8995 51.9439 83.9724 52.3863C82.9787 52.8858 81.7756 53.1355 80.3629 53.1355C78.2358 53.1355 76.4836 52.6179 75.1061 51.5827C73.7286 50.5475 72.9775 49.1001 72.8527 47.2405H77.7353C77.8056 47.9541 78.0605 48.517 78.4997 48.9291C78.9555 49.3468 79.5577 49.5683 80.1758 49.5458C80.7654 49.5458 81.2302 49.386 81.5703 49.0665C81.7404 48.9012 81.8737 48.702 81.9616 48.4818C82.0495 48.2616 82.09 48.0254 82.0805 47.7885C82.0869 47.5664 82.0488 47.3452 81.9683 47.1381C81.8878 46.9309 81.7666 46.742 81.6119 46.5823C81.2776 46.2458 80.8811 45.9772 80.4444 45.7916C79.9785 45.5849 79.3345 45.3394 78.5125 45.0551C77.5075 44.7238 76.5259 44.3251 75.5747 43.8617C74.7917 43.4581 74.1196 42.869 73.6172 42.1459C73.0755 41.3802 72.8047 40.3897 72.8047 39.1745C72.7791 38.1354 73.0794 37.1143 73.6635 36.2542C74.2588 35.4154 75.0793 34.7619 76.0305 34.369C77.1313 33.9137 78.3144 33.6902 79.5057 33.7124C81.6156 33.7124 83.2922 34.2125 84.5353 35.2125C85.7785 36.2126 86.4806 37.5886 86.6416 39.3406H81.6839C81.6267 38.7832 81.3866 38.2603 81.001 37.8533C80.6331 37.4869 80.1368 37.3037 79.5121 37.3037C79.0402 37.2815 78.5766 37.434 78.2103 37.7319C77.8787 38.0184 77.7134 38.438 77.7145 38.9908C77.7052 39.4141 77.8645 39.8238 78.1575 40.1298C78.4746 40.4583 78.8556 40.7187 79.277 40.895C79.7226 41.0921 80.3666 41.3418 81.2089 41.6443C82.2301 41.9756 83.225 42.3831 84.1851 42.8632C84.9759 43.2855 85.6562 43.8874 86.1714 44.6205C86.7247 45.3895 87.002 46.3901 87.003 47.6223C87.0048 48.5947 86.7357 49.5483 86.2258 50.3765Z" fill="#6A2383"/>
<path d="M113.28 39.5359C114.337 40.6712 114.865 42.2507 114.865 44.2742V52.9489H110.302V44.8014C110.302 43.8535 110.047 43.1165 109.536 42.5904C109.028 42.0632 108.334 41.7996 107.457 41.7996C106.544 41.7996 105.823 42.0808 105.297 42.6431C104.77 43.2055 104.506 43.9963 104.505 45.0155V52.9489H99.92V44.8014C99.92 43.8535 99.6695 43.1165 99.1684 42.5904C98.6673 42.0643 97.9791 41.8007 97.1037 41.7996C96.19 41.7996 95.4655 42.0765 94.9303 42.6303C94.3951 43.1842 94.1286 43.9792 94.1307 45.0155V52.9489H89.5376V37.9958H94.1259V40.5407C94.5115 39.71 95.1435 39.0179 95.9363 38.5582C96.8046 38.0615 97.7922 37.8113 98.7925 37.8345C99.86 37.8142 100.912 38.0907 101.831 38.6333C102.712 39.1649 103.405 39.9564 103.816 40.8986C104.32 39.9835 105.056 39.2163 105.949 38.6732C106.848 38.1209 107.885 37.833 108.94 37.8425C110.778 37.8371 112.225 38.4016 113.28 39.5359Z" fill="#6A2383"/>
<path d="M126.559 38.5853C127.369 39.0887 128.005 39.8273 128.382 40.702V37.9958H132.937V52.9489H128.382V50.2426C128.005 51.1174 127.369 51.856 126.559 52.3594C125.735 52.877 124.751 53.1358 123.608 53.1358C122.44 53.1528 121.292 52.8321 120.303 52.2124C119.293 51.561 118.49 50.6363 117.987 49.5461C117.424 48.3842 117.143 47.0262 117.143 45.4723C117.143 43.9004 117.424 42.5382 117.987 41.3858C118.493 40.301 119.296 39.3811 120.303 38.7323C121.295 38.1115 122.446 37.7903 123.616 37.8073C124.755 37.8073 125.736 38.0666 126.559 38.5853ZM122.71 42.7932C122.11 43.4323 121.811 44.3253 121.811 45.4723C121.811 46.6194 122.11 47.5124 122.71 48.1514C123.308 48.7905 124.099 49.11 125.083 49.11C125.527 49.124 125.968 49.0429 126.378 48.872C126.788 48.7012 127.156 48.4446 127.458 48.1195C128.074 47.4581 128.382 46.5736 128.382 45.466C128.382 44.3413 128.074 43.4525 127.458 42.7996C127.154 42.4779 126.785 42.2243 126.376 42.0558C125.966 41.8872 125.526 41.8075 125.083 41.8219C124.1 41.8262 123.309 42.15 122.71 42.7932Z" fill="#6A2383"/>
<path d="M154.207 49.0099C153.635 49.0099 153.229 48.8949 152.987 48.6616C152.746 48.4284 152.626 48.0226 152.626 47.4299V41.8545H155.629V37.8079H152.632V34.3252H148.044V37.8079L145.846 37.835C142.405 37.835 141.269 39.8991 140.697 40.8097V37.9964H136.108V52.9495H140.697V47.4699C140.697 44.754 141.986 41.8321 145.846 41.8321L147.266 41.8449L148.044 40.447V47.3517C148.044 49.3539 148.531 50.7875 149.505 51.6523C150.48 52.5171 151.844 52.9505 153.598 52.9527H155.663V49.0099H154.207Z" fill="#6A2383"/>
<path d="M99.263 60.3037C100.167 59.7669 101.662 59.5049 102.722 59.5049V64.403H100.886C99.6687 64.403 98.7251 64.6623 98.0555 65.181C97.386 65.6997 97.0506 66.5751 97.0496 67.8074V74.613H92.4629V59.6598H97.0496V62.4747C97.6014 61.5834 98.3608 60.8385 99.263 60.3037Z" fill="#6A2383"/>
<path d="M117.618 60.3986C118.622 61.0477 119.421 61.967 119.924 63.0505C120.487 64.204 120.769 65.5662 120.77 67.1371C120.77 68.691 120.488 70.0489 119.924 71.2108C119.424 72.2998 118.624 73.2245 117.618 73.8772C116.626 74.4987 115.475 74.8199 114.304 74.8021C113.159 74.8021 112.176 74.5428 111.354 74.0241C110.547 73.5266 109.918 72.7876 109.556 71.9122V74.6184H104.969V54.7832H109.556V62.3684C109.916 61.4922 110.543 60.7512 111.347 60.25C112.169 59.7324 113.153 59.4736 114.298 59.4736C115.471 59.4546 116.624 59.7759 117.618 60.3986ZM110.455 64.4708C109.837 65.1236 109.529 66.0124 109.529 67.1371C109.529 68.2618 109.837 69.1463 110.455 69.7906C110.756 70.1161 111.124 70.3731 111.533 70.5443C111.943 70.7154 112.384 70.7967 112.828 70.7827C113.811 70.7827 114.603 70.4632 115.203 69.8242C115.803 69.1851 116.103 68.2916 116.102 67.1435C116.102 66.0007 115.802 65.1077 115.203 64.4644C114.604 63.8211 113.812 63.5016 112.828 63.5058C112.387 63.4898 111.947 63.5675 111.538 63.7339C111.129 63.9002 110.759 64.1514 110.455 64.4708Z" fill="#6A2383"/>
<path d="M131.709 60.2499C132.519 60.7542 133.155 61.4932 133.534 62.3682V59.6604H138.093V74.6135H133.534V71.912C133.156 72.7872 132.519 73.5259 131.709 74.0288C130.887 74.5485 129.903 74.8078 128.758 74.8068C127.588 74.8246 126.437 74.5033 125.445 73.8818C124.439 73.2291 123.639 72.3045 123.138 71.2155C122.574 70.0535 122.292 68.6956 122.292 67.1417C122.292 65.5697 122.574 64.2075 123.138 63.0552C123.641 61.9716 124.441 61.0523 125.445 60.4032C126.437 59.7817 127.588 59.4604 128.758 59.4782C129.902 59.475 130.886 59.7323 131.709 60.2499ZM127.86 64.4578C127.26 65.0968 126.961 65.9899 126.961 67.1369C126.961 68.284 127.26 69.1775 127.86 69.8176C128.458 70.4566 129.249 70.7761 130.233 70.7761C130.677 70.7902 131.118 70.7089 131.528 70.5378C131.938 70.3666 132.306 70.1096 132.608 69.7841C133.225 69.1227 133.534 68.2382 133.534 67.1305C133.534 66.0058 133.225 65.1171 132.608 64.4642C132.304 64.1424 131.935 63.8889 131.526 63.7203C131.116 63.5518 130.675 63.4721 130.233 63.4865C129.25 63.4908 128.459 63.8145 127.86 64.4578Z" fill="#6A2383"/>
<path d="M154.484 61.2079C155.495 62.3517 156 63.9242 156 65.9254V74.6065H151.413V66.459C151.413 65.4589 151.149 64.6772 150.622 64.1138C150.094 63.5504 149.392 63.274 148.515 63.2847C147.587 63.2847 146.849 63.5792 146.302 64.1681C145.755 64.7571 145.483 65.5969 145.485 66.6875V74.6193H140.896V59.6662H145.485V62.3996C145.902 61.5206 146.569 60.7842 147.404 60.2829C148.309 59.7506 149.345 59.4816 150.395 59.5065C152.111 59.5022 153.474 60.0693 154.484 61.2079Z" fill="#6A2383"/>
<path d="M84.4137 55.668V66.6016C84.4137 67.8531 84.1323 68.8089 83.5693 69.4692C83.0064 70.1296 82.1902 70.4597 81.1208 70.4597C80.0472 70.4597 79.2289 70.1296 78.666 69.4692C78.103 68.8089 77.8216 67.8531 77.8216 66.6016V57.9605C77.8216 57.6591 77.7621 57.3608 77.6466 57.0824C77.531 56.8041 77.3617 56.5512 77.1482 56.3383C76.9348 56.1254 76.6814 55.9566 76.4026 55.8416C76.1238 55.7265 75.8251 55.6676 75.5234 55.668H71.1494V59.6874H73.254V66.6016C73.254 68.3877 73.5851 69.8974 74.2472 71.1307C74.8555 72.3085 75.8105 73.272 76.9835 73.8913C78.1457 74.4983 79.4869 74.8019 81.0073 74.8019C82.4254 74.8251 83.8284 74.5079 85.0982 73.8769C86.3055 73.2611 87.3008 72.2986 87.9561 71.1131C88.6534 69.8894 89.002 68.3845 89.002 66.5984V55.668H84.4137Z" fill="#6A2383"/>
<path d="M72.6445 86.3122V80.4268H75.2545C76.1661 80.4268 76.8868 80.6776 77.4167 81.1792C77.9466 81.6808 78.2132 82.3981 78.2164 83.3311C78.2164 84.2577 77.9424 84.9862 77.3944 85.5166C76.8463 86.047 76.1341 86.3132 75.2577 86.3153L72.6445 86.3122ZM73.9064 85.2689H75.2465C75.4622 85.2683 75.6756 85.2242 75.8737 85.139C76.0719 85.0539 76.2508 84.9297 76.3996 84.7737C76.7323 84.4425 76.8991 83.9632 76.9002 83.3359C76.9012 82.7086 76.7413 82.2405 76.4204 81.9317C76.2646 81.7819 76.0807 81.6644 75.8792 81.5859C75.6777 81.5075 75.4627 81.4697 75.2465 81.4748H73.9064V85.2689Z" fill="#6A2383"/>
<path d="M79.3423 86.3122V80.4268H83.6059V81.47H80.6041V82.6793H83.083V83.7209H80.6041V85.2689H83.6059V86.3122H79.3423Z" fill="#6A2383"/>
<path d="M84.3066 80.4268H85.698L87.1981 84.6523L88.703 80.4268H90.0512L87.7978 86.3122H86.5888L84.3066 80.4268Z" fill="#6A2383"/>
<path d="M91.0107 86.3122V80.4268H95.2728V81.47H92.271V82.6793H94.7514V83.7209H92.271V85.2689H95.2728V86.3122H91.0107Z" fill="#6A2383"/>
<path d="M96.4082 86.3122V80.4268H97.67V85.2689H100.411V86.3122H96.4082Z" fill="#6A2383"/>
<path d="M100.938 83.322C100.938 82.3837 101.215 81.6451 101.769 81.1062C102.324 80.5673 103.064 80.2979 103.99 80.2979C104.913 80.2979 105.651 80.5673 106.205 81.1062C106.76 81.6451 107.034 82.3837 107.029 83.322C107.029 84.2656 106.751 85.0218 106.194 85.5905C105.638 86.1593 104.903 86.4458 103.99 86.45C103.074 86.45 102.337 86.1662 101.78 85.5985C101.224 85.0309 100.943 84.272 100.938 83.322ZM102.286 83.322C102.286 83.9706 102.451 84.4792 102.781 84.8477C102.93 85.0205 103.114 85.1592 103.321 85.2543C103.528 85.3494 103.753 85.3986 103.981 85.3986C104.209 85.3986 104.434 85.3494 104.641 85.2543C104.848 85.1592 105.032 85.0205 105.18 84.8477C105.511 84.4803 105.676 83.9717 105.676 83.322C105.676 82.6724 105.512 82.1814 105.185 81.8491C105.028 81.6884 104.841 81.5606 104.634 81.4734C104.427 81.3862 104.205 81.3413 103.98 81.3413C103.755 81.3413 103.533 81.3862 103.326 81.4734C103.119 81.5606 102.932 81.6884 102.775 81.8491C102.45 82.1878 102.287 82.6787 102.286 83.322Z" fill="#6A2383"/>
<path d="M108.163 86.3122V80.4268H110.338C112.077 80.4268 112.946 81.1031 112.946 82.4557C112.946 83.1394 112.724 83.6623 112.279 84.0245C111.835 84.3866 111.186 84.5676 110.334 84.5676H109.428V86.3058L108.163 86.3122ZM109.428 83.5308H110.446C111.242 83.5021 111.639 83.1458 111.638 82.462C111.638 82.1031 111.531 81.8481 111.318 81.6968C111.021 81.5261 110.681 81.4471 110.339 81.47H109.428V83.5308Z" fill="#6A2383"/>
<path d="M114.085 86.3122V80.4268H115.563L117.104 83.1921L118.654 80.4268H120.133V86.3122H118.864V82.2352L117.523 84.6603H116.661L115.345 82.2959V86.3122H114.085Z" fill="#6A2383"/>
<path d="M121.528 86.3122V80.4268H125.791V81.47H122.79V82.6793H125.269V83.7209H122.79V85.2689H125.791V86.3122H121.528Z" fill="#6A2383"/>
<path d="M126.927 86.3122V80.4268H128.404L131.016 84.5804V80.4268H132.276V86.3122H130.799L128.187 82.1585V86.3122H126.927Z" fill="#6A2383"/>
<path d="M133.239 81.47V80.4268H137.981V81.47H136.241V86.3122H134.979V81.47H133.239Z" fill="#6A2383"/>
</g>
<defs>
<clipPath id="clip0_308_4388">
<rect width="136" height="68.5383" fill="white" transform="translate(20 26)"/>
</clipPath>
</defs>
</svg>
