<svg width="176" height="120" viewBox="0 0 176 120" fill="none" xmlns="http://www.w3.org/2000/svg">
<rect width="176" height="120" fill="white"/>
<g clip-path="url(#clip0_308_7668)">
<path d="M105.389 66.7767C111.5 66.7767 114.359 65.0291 113.676 61.4327C113.135 58.5842 110.55 56.672 107.241 56.672C102.641 56.672 98.5907 60.4092 99.7789 66.6657C100.606 71.0297 103.522 73.428 107.989 73.428C109.025 73.428 111.629 73.305 113.676 72.1822L112.772 69.0024C111.458 69.6551 110.008 69.9856 108.541 69.9665C107.142 69.9665 105.986 69.5102 105.2 68.6493C104.792 68.1399 104.511 67.541 104.379 66.9017L104.353 66.7668H104.484C104.794 66.7708 105.095 66.7767 105.389 66.7767ZM104.337 63.5315H104.183V63.3728C104.234 61.7025 105.248 59.9033 107.347 59.9033C108.434 59.9033 109.275 60.4984 109.437 61.401V61.4347C109.58 62.2143 109.239 62.7539 108.396 63.0891C107.624 63.3926 106.436 63.5354 104.653 63.5354C104.558 63.5295 104.458 63.5315 104.337 63.5315ZM151.775 49.3086C153.242 49.3355 154.686 49.6886 156 50.3421L154.889 53.5536C153.812 53.02 153.163 52.9744 152.636 52.9744C150.876 52.9744 150.281 54.5792 150.281 56.0788L150.269 57.035H153.221V60.435H150.281V73.059H145.764V56.0947C145.764 53.7282 146.334 51.9489 147.482 50.8102C148.472 49.8422 149.995 49.3086 151.775 49.3086ZM140.789 49.3086C142.257 49.3355 143.7 49.6886 145.014 50.3421L143.904 53.5536C142.826 53.02 142.178 52.9744 141.652 52.9744C139.889 52.9744 139.291 54.5792 139.303 56.0788L139.291 57.035H142.243V60.435H139.297V73.059H134.779V56.0947C134.779 53.7282 135.348 51.9489 136.497 50.8102C137.486 49.8422 139.01 49.3086 140.789 49.3086ZM80.3509 57.4257C78.6066 56.9394 76.8057 56.6853 74.995 56.67C67.0782 56.67 64.5768 62.49 65.6003 67.8955C66.2272 71.2043 68.5758 73.426 71.4482 73.426C72.8487 73.426 75.3064 72.7991 76.5879 70.5437C76.6521 71.3872 76.7601 72.2267 76.9112 73.059H81.0352C80.579 70.9266 80.3489 67.7725 80.3509 65.8385V57.4257ZM75.8341 64.0889C75.8618 68.324 74.2174 69.8256 72.7951 69.8256C71.4621 69.8256 70.502 68.7941 70.1608 66.9949C69.5498 63.7774 71.2399 59.9014 74.3265 59.9014C74.7682 59.9056 75.2085 59.9514 75.6417 60.0382L75.7746 60.0601L75.8341 64.0889ZM124.021 56.67C118.431 56.67 115.888 60.9071 115.888 65.047C115.888 69.1869 118.421 73.426 124.021 73.426C129.621 73.426 132.154 69.1889 132.154 65.047C132.154 60.9051 129.611 56.67 124.021 56.67ZM124.021 70.0756C121.617 70.0359 120.578 67.9511 120.538 65.047C120.578 62.1469 121.617 59.9748 124.021 59.9331C126.425 59.9748 127.467 62.1469 127.505 65.047C127.469 67.9511 126.425 70.0359 124.021 70.0756ZM94.296 73.0511L88.6763 63.9421V73.0511H84.1615V49.6756H88.6763V63.1089L93.1356 57.035H98.9041L93.1118 63.6029L99.5726 73.059L94.296 73.0511ZM67.3182 54.8014H61.3236V73.0511H56.7949V54.8014H50.8994V50.8737H67.3162L67.3182 54.8014Z" fill="#8ABD24"/>
<path d="M43.1633 45.4781C40.5706 43.5182 25.707 47.8148 23.156 54.3669C21.7675 57.9236 25.3182 62.7558 28.3989 65.0787C31.4795 67.4015 37.1012 69.4725 40.1382 67.1635C45.742 62.9105 45.7678 47.434 43.1633 45.4781Z" fill="#E42313"/>
<g style="mix-blend-mode:multiply">
<path d="M38.7361 50.2187C38.9007 49.7942 39.8608 49.5165 40.0294 49.6415C40.198 49.7664 40.1941 50.7682 39.8311 51.0439C39.6327 51.1927 39.2717 51.0578 39.0733 50.909C38.8749 50.7602 38.6468 50.4468 38.7361 50.2187ZM28.2227 55.2969C28.056 55.1699 27.0959 55.4476 26.9293 55.8721C26.842 56.1003 27.0701 56.4117 27.2685 56.5625C27.4669 56.7132 27.8319 56.8481 28.0283 56.6993C28.3813 56.4236 28.3853 55.4238 28.2147 55.2969H28.2227ZM33.4635 51.7441C33.2949 51.6172 32.3348 51.8949 32.1701 52.3194C32.0809 52.5475 32.309 52.8609 32.5094 53.0117C32.7097 53.1625 33.0727 53.2954 33.2671 53.1446C33.6281 52.8709 33.642 51.8711 33.4635 51.7441ZM37.8494 62.5551C37.6828 62.4301 36.7207 62.7078 36.556 63.1304C36.4687 63.3605 36.6969 63.6739 36.8972 63.8227C37.0976 63.9714 37.4586 64.1083 37.653 63.9576C38.016 63.6838 38.018 62.6821 37.8494 62.5551ZM32.313 59.8772C32.1424 59.7522 31.1843 60.0279 31.0196 60.4524C30.9323 60.6805 31.1585 60.994 31.3588 61.1447C31.5592 61.2955 31.9202 61.4264 32.1166 61.2776C32.4776 61.0098 32.4796 60.012 32.313 59.8772ZM39.8192 56.5267C39.6505 56.4018 38.6924 56.6775 38.5258 57.102C38.4365 57.3321 38.6647 57.6436 38.865 57.7923C39.0654 57.9411 39.4264 58.078 39.6248 57.9272C39.9898 57.6594 39.9898 56.6597 39.8192 56.5327V56.5267Z" fill="#8ABD24"/>
</g>
<path d="M32.6261 69.5416C32.9276 68.4724 30.9122 68.645 27.5936 66.1436C24.2749 63.6422 23.8861 61.6625 22.9419 62.2437C21.4621 63.1602 19.7819 67.3358 20.0239 67.7444C20.2481 68.1134 22.557 67.3061 24.4931 66.4114C23.053 68.4705 20.978 73.4614 21.6803 73.991C22.3825 74.5206 26.6077 71.1504 28.1926 69.2005C27.8653 71.3071 27.7265 73.749 28.141 73.864C28.5993 73.9811 32.154 71.2159 32.6261 69.5416Z" fill="#8ABD24"/>
</g>
<defs>
<clipPath id="clip0_308_7668">
<rect width="136" height="29.0448" fill="white" transform="translate(20 45)"/>
</clipPath>
</defs>
</svg>
