<svg width="161" height="56" viewBox="0 0 161 56" fill="none" xmlns="http://www.w3.org/2000/svg">
<path d="M0 32.2659L2.9371 29.0515C3.76085 30.064 4.78509 30.8954 5.9455 31.4934C7.10591 32.0914 8.37744 32.4431 9.68028 32.5265C10.6624 32.5659 11.6347 32.3184 12.4783 31.8141C12.817 31.6086 13.0951 31.317 13.2844 30.9691C13.4736 30.6211 13.5673 30.2293 13.5559 29.8334C13.5647 29.5271 13.5017 29.223 13.3719 28.9455C13.2422 28.6679 13.0492 28.4246 12.8086 28.2349C11.9962 27.6522 11.1072 27.1845 10.1669 26.8449L7.7338 25.8198C5.95622 25.1706 4.32991 24.1655 2.95448 22.866C1.94636 21.7636 1.40988 20.3105 1.45986 18.8176C1.42779 17.8466 1.62693 16.8818 2.04088 16.0027C2.45483 15.1237 3.07175 14.3555 3.84083 13.7615C5.59311 12.457 7.74073 11.7945 9.92359 11.885C11.5033 11.8262 13.0755 12.1309 14.5188 12.7755C15.9621 13.4202 17.2381 14.3876 18.2483 15.6033L15.4502 18.7829C14.7468 17.9819 13.8809 17.3398 12.91 16.8994C11.9391 16.459 10.8855 16.2304 9.81931 16.2288C7.62952 16.2288 6.53462 16.9933 6.53462 18.5223C6.52912 18.8078 6.58889 19.0908 6.70936 19.3498C6.82983 19.6087 7.00783 19.8368 7.22979 20.0165C7.98091 20.5931 8.82009 21.0448 9.71504 21.3544L12.0091 22.2926C13.8774 22.9772 15.5864 24.0354 17.0317 25.4028C18.0721 26.5236 18.628 28.0097 18.5785 29.538C18.6235 30.5809 18.4145 31.6191 17.9695 32.5634C17.5245 33.5076 16.8568 34.3297 16.0237 34.959C14.1731 36.2816 11.9362 36.9537 9.6629 36.8702C7.80003 36.9401 5.94796 36.5578 4.26515 35.7559C2.58233 34.9541 1.11888 33.7566 0 32.2659Z" fill="#1D3C34"/>
<path d="M23.1668 26.3061V12.4061H28.259V26.6536C28.2277 27.3821 28.3458 28.1092 28.6058 28.7905C28.8658 29.4717 29.2623 30.0926 29.7709 30.6151C30.2811 31.127 30.8922 31.5273 31.5654 31.7905C32.2385 32.0538 32.9591 32.1742 33.6813 32.1441C34.3846 32.1678 35.085 32.044 35.7376 31.7807C36.3901 31.5173 36.9802 31.1203 37.47 30.6151C37.9755 30.0912 38.3688 29.4696 38.6258 28.7884C38.8828 28.1073 38.9981 27.3808 38.9646 26.6536V12.3714H44.1784V26.2714C44.2368 27.6868 44.003 29.0991 43.4918 30.4204C42.9805 31.7416 42.2026 32.9435 41.2065 33.9511C40.2276 34.92 39.0619 35.6799 37.7803 36.1846C36.4986 36.6894 35.1277 36.9285 33.7508 36.8875C32.3515 36.9378 30.9572 36.6961 29.6565 36.1779C28.3558 35.6596 27.1774 34.8761 26.1964 33.8773C25.2153 32.8786 24.4532 31.6864 23.9585 30.3769C23.4638 29.0673 23.2475 27.6691 23.3232 26.2714L23.1668 26.3061Z" fill="#1D3C34"/>
<path d="M86.4735 21.3625V36.305H81.2597V22.0227C81.39 20.5375 80.9487 19.0586 80.0258 17.8875C79.5654 17.3835 78.9999 16.9869 78.3692 16.7257C77.7385 16.4644 77.0581 16.345 76.3761 16.3758C75.673 16.3495 74.972 16.4686 74.3171 16.7257C73.6621 16.9829 73.0674 17.3724 72.5701 17.8701C72.0761 18.3765 71.6904 18.978 71.4365 19.6382C71.1825 20.2983 71.0656 21.0032 71.0928 21.71V36.305H65.879V22.0227C65.9419 20.5546 65.452 19.1163 64.5061 17.9917C64.0532 17.4901 63.4973 17.0923 62.8764 16.8254C62.2555 16.5585 61.5842 16.4289 60.9085 16.4453C60.1985 16.4211 59.4912 16.5463 58.8326 16.8127C58.174 17.0791 57.5786 17.4807 57.0851 17.9917C56.0841 19.0893 55.5591 20.5389 55.6252 22.0227V36.305H50.481V12.2927H55.2776V14.5341C56.1778 13.6108 57.2615 12.8864 58.4588 12.4076C59.6562 11.9288 60.9407 11.7061 62.2294 11.7541C63.6722 11.655 65.1145 11.9542 66.3988 12.6192C67.683 13.2841 68.7597 14.2892 69.5113 15.5245C70.4605 14.2847 71.6965 13.2939 73.1133 12.6371C74.53 11.9804 76.0851 11.6773 77.6448 11.7541C78.8443 11.7129 80.0387 11.9288 81.1478 12.3873C82.257 12.8459 83.2551 13.5364 84.0752 14.4125C85.7369 16.3357 86.5956 18.824 86.4735 21.3625Z" fill="#1D3C34"/>
<path d="M128.694 21.4412V36.3837H123.48V22.1015C123.582 20.6081 123.116 19.1313 122.176 17.9662C121.716 17.4622 121.15 17.0656 120.52 16.8044C119.889 16.5432 119.209 16.4237 118.527 16.4546C117.82 16.4343 117.117 16.5578 116.46 16.8177C115.802 17.0775 115.205 17.4683 114.703 17.9662C114.212 18.474 113.83 19.0762 113.579 19.7363C113.328 20.3964 113.214 21.1005 113.243 21.8061V36.3837H108.03V22.1015C108.099 20.6354 107.615 19.1968 106.674 18.0704C106.213 17.5598 105.646 17.1566 105.013 16.8893C104.379 16.6221 103.694 16.4974 103.007 16.5241C102.297 16.4988 101.589 16.6234 100.93 16.8899C100.272 17.1563 99.6763 17.5586 99.1835 18.0704C98.1825 19.168 97.6575 20.6176 97.7236 22.1015V36.3837H92.5098V12.3714H97.3065V14.6128C98.206 13.6887 99.2896 12.9637 100.487 12.4848C101.685 12.0059 102.969 11.7838 104.258 11.8328C105.701 11.7337 107.143 12.033 108.428 12.6979C109.712 13.3629 110.789 14.3679 111.54 15.6032C112.486 14.3637 113.718 13.3728 115.132 12.7159C116.546 12.059 118.099 11.756 119.656 11.8328C120.866 11.7724 122.075 11.974 123.2 12.4238C124.325 12.8737 125.339 13.5611 126.174 14.4391C127.886 16.3607 128.789 18.8695 128.694 21.4412Z" fill="#1D3C34"/>
<path d="M139.973 12.3714H134.829V36.3836H139.973V12.3714Z" fill="#1D3C34"/>
<path d="M160.602 32.0225V36.3836C159.204 36.6996 157.778 36.88 156.345 36.9223C153.98 37.0664 151.647 36.3159 149.81 34.8199C148.995 34.002 148.366 33.0187 147.964 31.9366C147.562 30.8545 147.398 29.6987 147.481 28.5475V16.8194H143.571V12.3714H147.481V6.06427H152.695V12.3714H159.89V16.8194H152.747V28.1131C152.687 28.6979 152.758 29.2887 152.957 29.842C153.155 30.3954 153.476 30.8971 153.894 31.3101C154.947 32.035 156.218 32.3727 157.492 32.2658C157.978 32.2658 159.038 32.1963 160.602 32.0225Z" fill="#1D3C34"/>
<path d="M139.869 0.990804C139.214 0.350954 138.334 -0.00493017 137.418 0.000431036C136.959 -0.00679908 136.503 0.0769922 136.076 0.24698C135.65 0.416969 135.261 0.669784 134.933 0.990804C134.601 1.30196 134.339 1.67924 134.162 2.09825C133.985 2.51727 133.899 2.96867 133.908 3.42329C133.898 3.87286 133.985 4.31928 134.162 4.73275C134.338 5.14622 134.601 5.51724 134.933 5.82105C135.263 6.13894 135.652 6.38854 136.078 6.55552C136.505 6.72251 136.96 6.80357 137.418 6.79404C138.331 6.80405 139.211 6.45454 139.869 5.82105C140.197 5.51451 140.457 5.14298 140.634 4.73015C140.811 4.31732 140.899 3.87224 140.894 3.42329C140.9 2.96912 140.812 2.51868 140.635 2.10012C140.459 1.68157 140.198 1.30393 139.869 0.990804ZM139.139 5.09129C138.67 5.53744 138.048 5.78629 137.401 5.78629C136.754 5.78629 136.131 5.53744 135.663 5.09129C135.419 4.87429 135.228 4.60569 135.101 4.30508C134.975 4.00448 134.918 3.67947 134.933 3.35379C134.925 3.02901 134.985 2.70617 135.111 2.40663C135.237 2.10709 135.425 1.8377 135.663 1.61629C136.125 1.15793 136.75 0.900743 137.401 0.900743C138.052 0.900743 138.677 1.15793 139.139 1.61629C139.377 1.8377 139.565 2.10709 139.69 2.40663C139.816 2.70617 139.877 3.02901 139.869 3.35379C139.884 3.67947 139.827 4.00448 139.7 4.30508C139.574 4.60569 139.382 4.87429 139.139 5.09129Z" fill="#1D3C34"/>
<path d="M27.4071 54.1236C27.4107 54.3552 27.368 54.5851 27.2814 54.8C27.1949 55.0148 27.0662 55.2102 26.9031 55.3746C26.5221 55.7004 26.0309 55.8683 25.5301 55.8437H23.1318V49.8146H25.1825C25.6124 49.797 26.0334 49.9394 26.3643 50.2142C26.5102 50.3518 26.6245 50.5194 26.6995 50.7053C26.7745 50.8912 26.8084 51.0912 26.7988 51.2915C26.8108 51.5393 26.7517 51.7855 26.6286 52.0009C26.5054 52.2164 26.3233 52.3922 26.1036 52.5077C26.4766 52.5887 26.8125 52.7902 27.0595 53.0811C27.2851 53.3818 27.4071 53.7476 27.4071 54.1236ZM25.1304 50.2316H23.601V52.3687H25.1304C25.2875 52.3789 25.4452 52.3581 25.5943 52.3074C25.7434 52.2568 25.881 52.1772 25.9993 52.0733C26.1048 51.9733 26.1874 51.8516 26.2414 51.7166C26.2954 51.5817 26.3195 51.4366 26.3122 51.2915C26.3185 51.1479 26.2956 51.0046 26.2448 50.8702C26.194 50.7358 26.1164 50.6131 26.0167 50.5096C25.7671 50.3082 25.4504 50.2089 25.1304 50.2316ZM26.5381 55.0618C26.7814 54.8066 26.9171 54.4675 26.9171 54.1149C26.9171 53.7623 26.7814 53.4232 26.5381 53.168C26.2464 52.9118 25.8656 52.7807 25.478 52.8031H23.601V55.4267H25.478C25.8656 55.4491 26.2464 55.318 26.5381 55.0618Z" fill="#1D3C34"/>
<path d="M31.3868 53.4981V49.8146H31.8734V53.5329C31.8409 54.0587 32.0156 54.5764 32.3601 54.975C32.5389 55.1492 32.7513 55.2852 32.9843 55.3748C33.2173 55.4644 33.4662 55.5057 33.7156 55.4963C33.963 55.5097 34.2103 55.4702 34.4411 55.3803C34.6719 55.2904 34.8808 55.1522 35.0538 54.975C35.4046 54.579 35.5856 54.0611 35.5578 53.5329V49.8146H36.0271V53.4981C36.0514 54.1364 35.8271 54.7593 35.4014 55.2356C35.1752 55.4626 34.9032 55.6389 34.6035 55.7528C34.3039 55.8666 33.9835 55.9154 33.6635 55.8959C33.3438 55.9132 33.024 55.8634 32.7246 55.7497C32.4253 55.6359 32.1531 55.4608 31.9256 55.2356C31.5312 54.7462 31.3385 54.1248 31.3868 53.4981Z" fill="#1D3C34"/>
<path d="M39.9722 54.6622L40.3198 54.4016C40.4917 54.7174 40.7417 54.9838 41.046 55.1755C41.3503 55.3671 41.6986 55.4775 42.0577 55.4962C42.4149 55.5153 42.7669 55.4042 43.0484 55.1834C43.2637 54.9953 43.3983 54.7315 43.4242 54.4468C43.4501 54.1621 43.3653 53.8783 43.1874 53.6544C42.9233 53.4319 42.6312 53.245 42.3184 53.0984L41.7102 52.7162C41.3475 52.5743 41.0166 52.3616 40.7369 52.0907C40.504 51.8347 40.3795 51.4984 40.3893 51.1524C40.3804 50.9456 40.4215 50.7396 40.5093 50.5521C40.597 50.3645 40.7288 50.2009 40.8933 50.0752C41.2479 49.7942 41.6928 49.6521 42.1446 49.6756C42.5016 49.6675 42.8547 49.7513 43.17 49.9188C43.4812 50.0941 43.7486 50.3377 43.9521 50.6312L43.5871 50.8918C43.4297 50.6528 43.2156 50.4564 42.964 50.32C42.7123 50.1836 42.4309 50.1114 42.1446 50.1099C41.8289 50.0998 41.5183 50.1912 41.2583 50.3706C41.1341 50.4542 41.0336 50.5686 40.9666 50.7026C40.8996 50.8365 40.8684 50.9855 40.8759 51.1351C40.8751 51.3772 40.9615 51.6116 41.1193 51.7953C41.3688 52.0065 41.6504 52.1766 41.9535 52.2992L42.6313 52.6293C43.0256 52.7993 43.3851 53.0408 43.6914 53.3417C43.912 53.6038 44.0294 53.9374 44.0216 54.28C44.0251 54.502 43.9785 54.722 43.8852 54.9235C43.792 55.1251 43.6544 55.303 43.4828 55.4441C43.1043 55.7483 42.6301 55.9084 42.1446 55.8958C41.7036 55.8964 41.2709 55.7762 40.8933 55.5483C40.5184 55.3328 40.2021 55.0285 39.9722 54.6622Z" fill="#1D3C34"/>
<path d="M48.2621 55.8438V49.8146H48.6619V55.8438H48.2621Z" fill="#1D3C34"/>
<path d="M57.4561 49.8146H57.9253V55.948H57.7342L53.7369 50.7355V55.7569H53.2677V49.6409H53.4415L57.4561 54.8534V49.8146Z" fill="#1D3C34"/>
<path d="M62.4612 55.8438V49.8146H66.2499V50.249H62.9478V52.3688H65.52V52.8031H62.9478V55.4268H66.4237V55.8438H62.4612Z" fill="#1D3C34"/>
<path d="M69.8819 54.6622L70.2469 54.4016C70.4188 54.7174 70.6688 54.9838 70.9731 55.1755C71.2773 55.3671 71.6257 55.4775 71.9848 55.4962C72.3414 55.5107 72.6918 55.4001 72.9754 55.1834C73.0976 55.0819 73.1954 54.9543 73.2616 54.81C73.3277 54.6656 73.3606 54.5082 73.3578 54.3494C73.358 54.0969 73.2722 53.8518 73.1145 53.6544C72.8444 53.4402 72.5532 53.2539 72.2455 53.0984L71.5503 52.7683C71.1806 52.6302 70.8433 52.4173 70.5597 52.1428C70.3342 51.8824 70.2107 51.549 70.2121 51.2046C70.2074 50.9983 70.2504 50.7938 70.3378 50.6069C70.4253 50.42 70.5547 50.2559 70.7161 50.1273C71.0736 49.8519 71.5164 49.7105 71.9675 49.7277C72.3302 49.7175 72.6894 49.8013 73.0102 49.9709C73.3197 50.1421 73.5823 50.3867 73.7749 50.6833L73.4273 50.944C73.2683 50.7025 73.0514 50.5045 72.7965 50.368C72.5416 50.2314 72.2566 50.1607 71.9675 50.1621C71.6517 50.152 71.3411 50.2433 71.0811 50.4227C70.9613 50.5095 70.8651 50.625 70.8013 50.7585C70.7376 50.8921 70.7083 51.0394 70.7161 51.1872C70.7066 51.4308 70.7941 51.6682 70.9594 51.8474C71.205 52.0553 71.4803 52.2252 71.7763 52.3513L72.4541 52.6815C72.8544 52.8403 73.2159 53.0832 73.5142 53.3938C73.7424 53.6516 73.8609 53.9882 73.8444 54.3321C73.8519 54.5547 73.807 54.776 73.7135 54.9782C73.6199 55.1803 73.4802 55.3578 73.3057 55.4962C72.9287 55.8032 72.4534 55.9636 71.9675 55.9479C71.5316 55.9507 71.1038 55.8303 70.7335 55.6005C70.3791 55.3599 70.0871 55.0382 69.8819 54.6622Z" fill="#1D3C34"/>
<path d="M77.668 54.6622L78.033 54.4016C78.2049 54.7174 78.4549 54.9838 78.7592 55.1755C79.0634 55.3671 79.4118 55.4775 79.7709 55.4962C80.1275 55.5107 80.4779 55.4001 80.7615 55.1834C80.8837 55.0819 80.9814 54.9543 81.0476 54.81C81.1138 54.6656 81.1467 54.5082 81.1439 54.3494C81.1441 54.0969 81.0583 53.8518 80.9006 53.6544C80.6305 53.4402 80.3393 53.2539 80.0316 53.0984L79.3364 52.7683C78.9688 52.626 78.6323 52.4135 78.3458 52.1428C78.1203 51.8824 77.9968 51.549 77.9982 51.2046C77.9934 50.9983 78.0365 50.7938 78.1239 50.6069C78.2113 50.42 78.3408 50.2559 78.5022 50.1273C78.8597 49.8519 79.3025 49.7105 79.7535 49.7277C80.1163 49.7175 80.4755 49.8013 80.7963 49.9709C81.1075 50.1463 81.3748 50.3898 81.5783 50.6833L81.2134 50.944C81.0543 50.7025 80.8375 50.5045 80.5826 50.368C80.3277 50.2314 80.0427 50.1607 79.7535 50.1621C79.4378 50.152 79.1271 50.2433 78.8672 50.4227C78.7473 50.5095 78.6511 50.625 78.5874 50.7585C78.5236 50.8921 78.4943 51.0394 78.5022 51.1872C78.4927 51.4308 78.5802 51.6682 78.7455 51.8474C78.991 52.0553 79.2664 52.2252 79.5623 52.3513L80.2401 52.6815C80.6429 52.8453 81.0092 53.0874 81.3177 53.3938C81.5335 53.6577 81.6448 53.9916 81.6305 54.3321C81.638 54.5547 81.5931 54.776 81.4995 54.9782C81.406 55.1803 81.2663 55.3578 81.0917 55.4962C80.7147 55.8032 80.2395 55.9636 79.7535 55.9479C79.3177 55.9507 78.8899 55.8303 78.5196 55.6005C78.1651 55.3599 77.8732 55.0382 77.668 54.6622Z" fill="#1D3C34"/>
<path d="M90.8764 52.8378C90.8694 52.4289 90.9445 52.0228 91.0973 51.6434C91.25 51.264 91.4773 50.9192 91.7658 50.6292C92.0542 50.3392 92.3979 50.11 92.7765 49.9552C93.1551 49.8003 93.5609 49.7229 93.9699 49.7277C94.4514 49.7217 94.9277 49.8288 95.3602 50.0404C95.7802 50.2533 96.1436 50.563 96.4204 50.9439L96.0554 51.2219C95.8304 50.9205 95.5425 50.6716 95.2116 50.4927C94.8807 50.3138 94.5147 50.2091 94.1392 50.186C93.7638 50.1628 93.3878 50.2218 93.0374 50.3587C92.687 50.4955 92.3706 50.7071 92.1103 50.9787C91.8634 51.2269 91.6697 51.5229 91.5412 51.8485C91.4127 52.1742 91.3521 52.5226 91.363 52.8725C91.35 53.2227 91.4097 53.5718 91.5383 53.8977C91.6669 54.2237 91.8617 54.5195 92.1103 54.7664C92.3714 55.0358 92.6883 55.2447 93.0387 55.3787C93.3892 55.5126 93.7647 55.5683 94.1389 55.5418C94.5132 55.5153 94.8771 55.4073 95.2051 55.2253C95.5332 55.0434 95.8175 54.7918 96.038 54.4884L96.403 54.7664C96.1262 55.1473 95.7628 55.457 95.3429 55.6699C94.9115 55.8869 94.4354 56 93.9525 56C93.5448 56 93.1411 55.9195 92.7646 55.763C92.3882 55.6065 92.0464 55.3771 91.7589 55.0881C91.4714 54.799 91.2439 54.456 91.0895 54.0788C90.935 53.7016 90.8567 53.2975 90.859 52.8899L90.8764 52.8378Z" fill="#1D3C34"/>
<path d="M100.557 55.8438V49.8146H104.276V50.249H100.974V52.3688H103.546V52.8031H100.974V55.4268H104.45V55.8438H100.557Z" fill="#1D3C34"/>
<path d="M112.635 49.8146H113.104V55.948H112.965L108.968 50.7355V55.7569H108.499V49.6409H108.673L112.687 54.8534L112.635 49.8146Z" fill="#1D3C34"/>
<path d="M119.187 55.8438V50.249H116.98V49.8146H121.864V50.249H119.656V55.8438H119.187Z" fill="#1D3C34"/>
<path d="M125.722 55.8438V49.8146H129.511V50.249H126.209V52.3688H128.781V52.8031H126.209V55.4268H129.684V55.8438H125.722Z" fill="#1D3C34"/>
<path d="M138.165 55.8438H137.609L135.559 53.1333H134.081V55.8438H133.612V49.8146H135.663C135.903 49.8019 136.143 49.8368 136.37 49.9174C136.597 49.9979 136.805 50.1224 136.984 50.2838C137.147 50.4331 137.277 50.6159 137.364 50.8197C137.451 51.0236 137.493 51.2437 137.488 51.4653C137.504 51.8597 137.372 52.2461 137.118 52.5483C136.864 52.8505 136.506 53.0468 136.115 53.0985L138.165 55.8438ZM134.099 50.249V52.7163H135.663C136.026 52.7325 136.38 52.608 136.653 52.3688C136.775 52.2561 136.87 52.1186 136.933 51.9656C136.996 51.8127 137.025 51.6479 137.018 51.4826C137.026 51.3146 136.998 51.1469 136.935 50.9909C136.872 50.8349 136.776 50.6944 136.653 50.5791C136.379 50.3446 136.023 50.2262 135.663 50.249H134.099Z" fill="#1D3C34"/>
</svg>
